<svg width="21" height="40" viewBox="0 0 21 40" fill="none" xmlns="http://www.w3.org/2000/svg">
<path d="M4.18401 31.5398C4.18401 36.2117 7.94876 40 12.5924 40C17.2352 40 21 36.2117 21 31.5398C21 28.6789 19.5885 26.1492 17.4286 24.6187V4.84375C17.4286 2.16875 15.2733 0 12.6149 0C11.2857 0 10.0823 0.542187 9.21118 1.41875C8.34006 2.29531 7.80124 3.50625 7.80124 4.84375V24.5867C5.61491 26.1141 4.18401 28.6586 4.18401 31.5398Z" fill="#E2E2E2"/>
<path d="M12.5915 32.8125C13.7064 32.8125 14.6101 31.9031 14.6101 30.7812V4.95624C14.6101 3.83437 13.7064 2.92499 12.5915 2.92499C11.4766 2.92499 10.5728 3.83437 10.5728 4.95624V30.7812C10.5728 31.9031 11.4773 32.8125 12.5915 32.8125Z" fill="#F3E8D7"/>
<path d="M12.5915 37.1633C9.33015 37.1633 6.68627 34.5029 6.68627 31.2211C6.68627 27.9393 9.33015 25.2789 12.5915 25.2789C15.8529 25.2789 18.4968 27.9393 18.4968 31.2211C18.4968 34.5029 15.8529 37.1633 12.5915 37.1633Z" fill="#E5394B"/>
<path d="M12.635 28.9695C13.7258 28.9695 14.6101 28.0797 14.6101 26.982V12.5547C14.6101 11.457 13.7258 10.5672 12.635 10.5672C11.5441 10.5672 10.6598 11.457 10.6598 12.5547V26.9812C10.6598 28.0797 11.5441 28.9695 12.635 28.9695Z" fill="#E5394B"/>
<path d="M1.9171 4.2547H4.04211C4.36742 4.2547 4.63062 3.98986 4.63062 3.66252C4.63062 3.33517 4.36742 3.07033 4.04211 3.07033H1.9171C1.59179 3.07033 1.32859 3.33517 1.32859 3.66252C1.32859 3.98908 1.59179 4.2547 1.9171 4.2547Z" fill="#E2E2E2"/>
<path d="M1.9171 9.16407H4.04211C4.36742 9.16407 4.63062 8.89922 4.63062 8.57188C4.63062 8.24453 4.36742 7.97969 4.04211 7.97969H1.9171C1.59179 7.97969 1.32859 8.24453 1.32859 8.57188C1.32859 8.89922 1.59179 9.16407 1.9171 9.16407Z" fill="#E2E2E2"/>
<path d="M1.9171 18.9828H4.04211C4.36742 18.9828 4.63062 18.718 4.63062 18.3907C4.63062 18.0633 4.36742 17.7985 4.04211 17.7985H1.9171C1.59179 17.7985 1.32859 18.0633 1.32859 18.3907C1.32859 18.718 1.59179 18.9828 1.9171 18.9828Z" fill="#E2E2E2"/>
<path d="M1.9171 23.893H4.04211C4.36742 23.893 4.63062 23.6281 4.63062 23.3008C4.63062 22.9734 4.36742 22.7086 4.04211 22.7086H1.9171C1.59179 22.7086 1.32859 22.9734 1.32859 23.3008C1.32859 23.6273 1.59179 23.893 1.9171 23.893Z" fill="#E2E2E2"/>
<path d="M0.58869 14.0734H4.04211C4.36742 14.0734 4.63062 13.8086 4.63062 13.4813C4.63062 13.1539 4.36742 12.8891 4.04211 12.8891H0.58869C0.26338 12.8891 0.000179291 13.1539 0.000179291 13.4813C0.000179291 13.8086 0.26338 14.0734 0.58869 14.0734Z" fill="#E2E2E2"/>
</svg>
