<svg width="80" height="8" viewBox="0 0 80 8" fill="none" xmlns="http://www.w3.org/2000/svg">
<g clip-path="url(#clip0)">
<path d="M62.7511 1.56757L63.3398 0.415085H59.4916L59.016 1.3316C58.9745 1.4222 58.9121 1.4833 58.836 1.52333C58.7575 1.56336 58.6582 1.58232 58.5405 1.58232H58.5105L58.0234 2.53044H58.3973L57.8248 3.65554V3.65765C57.8087 3.70189 57.7925 3.74403 57.7718 3.78617L57.7671 3.7946L57.7625 3.80513L56.5529 6.18174V6.18385C56.4836 6.33766 56.4467 6.48725 56.4467 6.6263C56.4467 6.76115 56.4813 6.88967 56.5529 7.00344C56.6083 7.10668 56.7006 7.20992 56.8276 7.2942C57.1739 7.54282 57.6125 7.6608 58.118 7.6587H59.6716H59.6739C59.8332 7.64395 60.1379 7.62709 60.5858 7.57864L60.6112 7.57653L61.1883 6.43879H61.1167C60.872 6.43879 60.6897 6.41561 60.5765 6.37347C60.5188 6.3524 60.4819 6.32712 60.4565 6.29762C60.4311 6.26813 60.4219 6.23652 60.4196 6.19649C60.4196 6.16067 60.4288 6.12064 60.4496 6.07218L62.264 2.53255H63.1713L63.6768 1.56968H62.7511V1.56757ZM6.3783 4.54466L6.36676 4.56994L5.65575 5.98791V5.99212C5.65113 6.00898 5.63497 6.03004 5.60035 6.05111C5.56572 6.07218 5.51493 6.09536 5.4503 6.11854C5.30025 6.16278 5.17097 6.19228 5.01169 6.19228C4.82932 6.19228 4.6885 6.15857 4.62156 6.09747L4.61925 6.09325L4.61463 6.09115C4.59155 6.0764 4.58462 6.06376 4.58462 6.05111C4.58462 6.04479 4.58693 6.03426 4.59385 6.02372L4.59616 6.02162L6.60453 1.95736C6.62992 1.911 6.70379 1.85201 6.83307 1.80987H6.83538C6.94388 1.76773 7.09162 1.75088 7.25552 1.75088C7.44943 1.75088 7.57409 1.78037 7.66643 1.83094C7.68028 1.84358 7.68951 1.85412 7.69413 1.86254C7.70105 1.87097 7.70105 1.87519 7.70105 1.8794C7.70105 1.88361 7.70105 1.88783 7.69182 1.89836L7.68951 1.90258L7.17241 2.96447H12.004L12.3203 2.34082L12.8374 1.28103L12.8097 1.25996C12.6412 1.13565 12.4727 1.02609 12.3041 0.920748L12.3018 0.918641L12.2995 0.916534C11.8909 0.69952 11.4662 0.514111 11.0229 0.387695C10.1249 0.141185 9.07459 0.0168762 7.89035 0.0168762H7.50483C6.23518 0.0168762 5.11557 0.170682 4.14832 0.495149C3.18107 0.804867 2.57856 1.2094 2.33617 1.68767L0.0900303 6.21545C0.0300101 6.34819 0 6.47461 0 6.5947C0 6.76115 0.0600202 6.91917 0.180061 7.05822C0.300101 7.19939 0.480162 7.3237 0.717934 7.43747C1.35507 7.76826 2.34079 7.91996 3.6243 7.92206H4.01443C4.87549 7.92206 5.85659 7.84411 6.95542 7.6903C8.20661 7.50489 9.20156 7.30473 9.94489 7.10458L9.96566 7.09826L10.2819 6.45354V6.45143C10.3027 6.39454 10.3235 6.33766 10.3512 6.28709L10.5982 5.81092L11.2192 4.54466H6.3783ZM20.303 4.04743L20.3584 3.94419L20.6446 3.38164V3.37953C20.6677 3.32264 20.6793 3.26786 20.6793 3.21308C20.6793 3.12038 20.6469 3.03189 20.5846 2.94761C20.5223 2.86544 20.4323 2.78748 20.3122 2.71374C20.2337 2.65896 20.1206 2.6084 19.9937 2.55994C19.4165 2.3366 18.657 2.21861 17.6921 2.21861H16.8426C16.5102 2.21861 16.2147 2.23547 15.903 2.25233C15.289 2.305 14.7303 2.40613 14.1902 2.55994C13.8 2.67792 13.4815 2.80434 13.2391 2.9434C12.9967 3.08245 12.8305 3.23415 12.7474 3.40481L11.6231 5.57495L11.3415 6.11011L11.0391 6.72533V6.72954C11.0299 6.76536 11.0276 6.79907 11.0276 6.83489C11.0276 6.95498 11.0783 7.06876 11.1776 7.172C11.2769 7.27524 11.4223 7.36794 11.6139 7.45222C11.637 7.46275 11.6578 7.46907 11.6762 7.47329C11.6947 7.4775 11.7086 7.48172 11.7201 7.48804H11.7224C12.2857 7.72612 13.0613 7.82725 14.0055 7.82725H14.8735C15.1874 7.82725 15.5198 7.82725 15.8176 7.79354C16.4294 7.74298 16.988 7.64184 17.5282 7.48804C18.2923 7.26049 18.7563 7.00555 18.9595 6.68741V6.6853L19.9636 4.71322L20.303 4.04743ZM16.9857 3.53544L16.9834 3.53966L15.8015 5.84674L15.4991 6.46618C15.4783 6.49568 15.439 6.52517 15.3675 6.54413C15.2959 6.5652 15.192 6.57785 15.0581 6.57785C14.9381 6.57785 14.8527 6.5631 14.7834 6.54835C14.7673 6.53781 14.7511 6.52728 14.7442 6.51885C14.7396 6.51464 14.7373 6.51042 14.735 6.50832C14.735 6.50621 14.735 6.50621 14.735 6.50621L15.9169 4.19913L16.2401 3.57547C16.2516 3.55019 16.2886 3.52069 16.367 3.49963C16.4432 3.47856 16.554 3.46591 16.6995 3.46591C16.8057 3.46591 16.8888 3.47434 16.9395 3.48909C16.9649 3.49752 16.9811 3.50595 16.9903 3.51227C16.9973 3.51859 16.9973 3.52069 16.9973 3.52069C16.9926 3.5228 16.9903 3.52702 16.9857 3.53544ZM48.4709 3.17095C48.4709 2.975 48.3417 2.80223 48.1108 2.65896L48.1062 2.65686L48.1016 2.65475C48.0485 2.63579 47.9861 2.59997 47.9284 2.56626L47.9261 2.56415H47.9238C47.4506 2.3366 46.7327 2.22283 45.7908 2.22283H45.5045C44.7912 2.22283 44.0941 2.27972 43.4177 2.39138C42.8406 2.48409 42.2888 2.63157 41.7556 2.80223C41.5686 2.85701 41.3216 2.95182 40.9938 3.09931L40.9799 3.10563L40.4559 4.10853H44.0179L44.2857 3.61761V3.61551C44.2903 3.60286 44.3065 3.5839 44.3388 3.56705C44.3688 3.54808 44.4149 3.53123 44.4634 3.51437C44.5558 3.47856 44.6458 3.47856 44.7728 3.47856C44.8351 3.47856 44.8836 3.47856 44.9205 3.48488C44.9574 3.4912 44.9805 3.50173 45.0059 3.5228L45.0128 3.52912L45.0221 3.53334C45.0405 3.53966 45.0498 3.54387 45.0544 3.55019C45.059 3.55441 45.059 3.55862 45.0613 3.56705C45.0613 3.57337 45.059 3.57969 45.0567 3.59022L44.7705 4.16331L43.3831 4.43721L41.3401 4.84806C40.9476 4.92391 40.5344 5.0735 40.1027 5.27787H40.1004C39.7911 5.44643 39.5395 5.59602 39.3709 5.76879C39.2209 5.89941 39.1147 6.03637 39.0316 6.16699L39.0293 6.1691V6.17121C38.9462 6.33766 38.9023 6.49778 38.9023 6.64737C38.9023 6.91917 39.0478 7.15725 39.3317 7.34266V7.35951L39.3525 7.37216C39.8072 7.66081 40.5275 7.80829 41.5294 7.8104C41.7394 7.8104 42.028 7.77036 42.4158 7.71558C42.6005 7.68819 42.7552 7.65448 42.8775 7.61867C42.9375 7.60181 42.9883 7.58496 43.0345 7.56599L42.9929 7.66081H46.2456L48.4017 3.43431C48.4455 3.34161 48.4709 3.25522 48.4709 3.17095ZM43.7316 6.20071C43.7224 6.21124 43.6924 6.23231 43.6508 6.24706C43.5839 6.27445 43.4916 6.30184 43.4154 6.31869C43.3761 6.32712 43.3415 6.33344 43.3161 6.33976C43.3046 6.34187 43.293 6.34398 43.2861 6.34608C43.2815 6.34608 43.2792 6.34819 43.2769 6.34819C43.0137 6.34819 42.8175 6.32501 42.7136 6.2597C42.6559 6.22599 42.6282 6.18596 42.6282 6.1375C42.6282 6.11432 42.6351 6.08693 42.6536 6.05533C42.7275 5.9247 42.9237 5.79618 43.263 5.70558L43.3831 5.66976C43.6001 5.63605 43.8332 5.58759 44.0664 5.54124L43.7316 6.20071ZM41.437 0.419299H37.9028L37.8381 0.547822L37.7112 0.792225L37.1179 1.95946H40.666L41.437 0.419299ZM36.1529 1.68767H36.1576L36.213 1.57811L36.8085 0.419299H33.2974L32.2747 2.42299C31.8107 2.33028 31.2705 2.29236 30.608 2.2755H30.3102C29.6915 2.2755 29.089 2.39349 28.5511 2.6084C27.9925 2.8233 27.637 3.09931 27.4546 3.42167V3.42378L25.8364 6.5947C25.7833 6.69373 25.7579 6.79064 25.7579 6.88335C25.7579 7.07508 25.8756 7.24574 26.0926 7.37848C26.178 7.43747 26.2473 7.4775 26.3535 7.51964C26.6559 7.63763 27.0853 7.69662 27.5978 7.69662C28.0433 7.69662 28.4496 7.67766 28.8051 7.65659H28.8074C29.1698 7.61867 29.4445 7.58074 29.6569 7.55967C29.6869 7.55967 29.7631 7.57653 29.8577 7.64606L29.8693 7.65448H33.1127L33.302 7.28156L35.9244 2.13855L36.1529 1.68767ZM31.6445 3.65554L30.2686 6.3208C30.2294 6.39033 30.174 6.43879 30.0909 6.47461C30.0078 6.51042 29.897 6.52939 29.7539 6.52939C29.6431 6.52939 29.5623 6.51674 29.5161 6.49778C29.493 6.48935 29.4792 6.47671 29.4699 6.46829C29.4607 6.45775 29.4584 6.44722 29.4584 6.43247C29.4584 6.41561 29.4653 6.39033 29.4815 6.35873L30.8596 3.63447C30.9012 3.5839 30.9566 3.53123 31.072 3.47856C31.1736 3.44063 31.2728 3.42378 31.3721 3.42378C31.4344 3.42378 31.4806 3.42799 31.5175 3.44063C31.5545 3.45327 31.5799 3.47013 31.6053 3.50173L31.6076 3.50595L31.6099 3.50805C31.6445 3.53966 31.6514 3.56073 31.6514 3.59233C31.6537 3.60919 31.6514 3.63026 31.6445 3.65554ZM36.7416 2.69267L36.7301 2.71796L34.2092 7.65659H37.7619L40.2874 2.69478H36.7416V2.69267ZM57.0607 3.39849C57.0815 3.33529 57.0931 3.27418 57.0931 3.21519C57.0931 3.10563 57.0561 3.0045 56.9776 2.91179C56.9338 2.83594 56.8714 2.77695 56.7745 2.72428C56.4628 2.50726 55.9758 2.40613 55.2855 2.40613C54.7315 2.40613 54.2167 2.43984 53.755 2.49251C53.3164 2.53676 52.9678 2.57047 52.7139 2.59575C52.46 2.61893 52.2961 2.63157 52.2337 2.63157C52.1899 2.63157 52.1506 2.62736 52.1183 2.62104C52.0883 2.61472 52.0652 2.60418 52.056 2.59575L52.0537 2.59365L52.0491 2.59154C52.0167 2.57047 52.0052 2.5473 52.0052 2.53255C52.0052 2.52833 52.0052 2.52412 52.0075 2.52201L52.0421 2.46091H49.8029L47.1436 7.6587H50.6571L52.6585 3.75456C52.6931 3.68503 52.7531 3.63025 52.8386 3.59233C52.924 3.55441 53.0371 3.53334 53.1733 3.53334C53.2725 3.53334 53.3418 3.54598 53.3834 3.56494C53.4041 3.57547 53.4157 3.58601 53.4226 3.59654C53.4295 3.60708 53.4341 3.61972 53.4341 3.63658C53.4341 3.65765 53.4272 3.68293 53.4111 3.71664L51.3935 7.65448H54.9069L55.8003 5.89731C55.8072 5.88256 55.8119 5.86781 55.8188 5.85517L55.8211 5.85096L55.8257 5.82567L55.828 5.82146L57.0584 3.4006L57.0607 3.39849ZM26.619 4.02004L27.4708 2.35135H27.3992C27.2099 2.35135 27.0183 2.35135 26.8452 2.37031C26.5289 2.39138 26.2704 2.41034 26.0326 2.44827H26.0303H26.028C25.8872 2.48409 25.6725 2.53887 25.4324 2.62736L25.3747 2.46512H22.0089L21.4226 3.61761V3.61972C21.4041 3.67029 21.3834 3.72085 21.3603 3.7651L21.0948 4.26233L20.7231 4.99133L19.7236 6.96341C19.7166 6.97816 19.7028 6.99502 19.6889 7.01609L19.3657 7.65027H22.9185L24.4421 4.66897C24.546 4.46038 24.7722 4.29604 25.1346 4.18438C25.4947 4.07271 25.9841 4.01372 26.5959 4.01372H26.619V4.02004Z" fill="white"/>
<path d="M67.8782 6.96759C67.1857 7.0308 66.0684 7.13193 64.9419 7.23517C63.4598 7.37212 61.9593 7.51328 61.4053 7.57649L67.712 7.82722C67.6982 7.75558 67.6936 7.67973 67.6912 7.60599C67.6866 7.41426 67.7582 7.17196 67.8782 6.96759Z" fill="white"/>
<path d="M69.9629 4.26021C69.9559 4.21175 69.9536 4.15908 69.979 4.09377C70.0437 3.91257 70.1683 3.74191 70.3137 3.55861C70.3161 3.55861 70.316 3.55861 70.3184 3.55861C70.3207 3.55439 70.323 3.55229 70.3253 3.54807C70.3276 3.54175 70.3322 3.53754 70.3345 3.53333C69.919 3.56282 68.5824 3.66185 67.2296 3.76509C65.9277 3.86411 64.6026 3.96735 64.0947 4.01792L69.9375 4.3466L69.9698 4.29182C69.9675 4.28339 69.9652 4.27286 69.9652 4.26443C69.9629 4.26232 69.9629 4.26021 69.9629 4.26021Z" fill="white"/>
<path d="M71.1332 0.495122C71.1724 0.45509 71.2163 0.417165 71.2624 0.381348C70.6184 0.410845 67.0818 0.581506 67.0056 0.604682L70.9115 0.809054C70.9208 0.792198 70.93 0.773236 70.9392 0.758487C70.9946 0.663676 71.0477 0.581506 71.1332 0.495122Z" fill="white"/>
<path d="M79.6584 3.54594C79.4737 3.4722 79.2406 3.43638 79.0051 3.4111C78.9405 3.40267 78.6357 3.38582 78.6265 3.38582C78.4718 3.37739 78.2641 3.3816 78.2295 3.3816C77.9478 3.38582 77.65 3.39846 77.3384 3.45113C77.2022 3.47431 77.0498 3.5017 76.9252 3.53541C76.782 3.57544 76.722 3.57755 76.6089 3.60915C76.3942 3.66814 76.2903 3.73978 76.1264 3.81563L75.9718 3.8978C75.891 3.93362 75.8125 3.95258 75.7617 3.97154C75.7617 3.97154 75.6186 3.98418 75.5008 4.08321C75.4939 4.08953 75.487 4.09374 75.4824 4.10006C75.4778 4.10428 75.3046 4.24755 75.3046 4.24755L75.5632 3.97786C75.5632 3.97786 75.4293 3.9905 75.3185 4.06425C75.2077 4.1401 75.0184 4.28969 75.0184 4.28969C75.0207 4.27705 75.0715 4.19488 75.0715 4.19488C75.0853 4.17381 75.1015 4.15484 75.12 4.13377C75.1707 4.0811 75.3 3.97786 75.3 3.97786C75.2192 3.98208 75.15 3.9884 75.1015 3.99682C74.9307 4.02 75.0484 4.00314 74.9422 4.02211C74.9122 4.01789 74.8845 4.01368 74.8568 4.00947C74.7806 3.99682 74.7114 3.97997 74.6698 3.93783C74.6306 3.8978 74.6075 3.85145 74.5728 3.8072C74.5567 3.78402 74.5267 3.76928 74.5198 3.74399C74.5198 3.74189 74.5174 3.73767 74.5174 3.73346C74.5174 3.72714 74.5336 3.61547 74.5567 3.56069C74.559 3.55437 74.5613 3.54594 74.5659 3.53751C74.5613 3.53751 74.5428 3.53962 74.5128 3.53119C74.4736 3.52066 74.4274 3.48905 74.4274 3.48905C74.4274 3.48905 74.4343 3.47852 74.4366 3.47641C74.4551 3.44902 74.499 3.39424 74.5359 3.39424C74.5405 3.39424 74.5451 3.39424 74.5475 3.39635C74.559 3.40056 74.5544 3.40267 74.5775 3.40267C74.6005 3.40267 74.6467 3.3816 74.6467 3.3816C74.6467 3.3816 74.7183 3.28679 74.7206 3.28047C74.7229 3.27626 74.716 3.27204 74.716 3.27204L74.5728 3.24676C74.5728 3.24676 74.4921 3.18144 74.5013 3.15827C74.5013 3.15616 74.5082 3.15405 74.5151 3.15405C74.5244 3.15405 74.5359 3.15616 74.5521 3.16037C74.6029 3.17302 74.6513 3.17723 74.6906 3.17723C74.7437 3.17723 74.7829 3.17091 74.7968 3.16669C74.8106 3.15616 74.8452 3.12877 74.8452 3.12877C74.8499 3.11613 74.8429 3.10138 74.8152 3.08031C74.746 3.02974 74.6883 2.9539 74.686 2.94547C74.6883 2.94757 74.6929 2.94968 74.6975 2.9539C74.7575 3.00025 74.9445 3.03185 74.9445 3.03185L75.0738 3.00235C75.0853 2.99603 75.0992 2.98971 75.1107 2.98339C75.12 2.97918 75.143 2.96654 75.143 2.96443C75.1477 2.95179 75.1477 2.94125 75.1223 2.93493C75.0853 2.9244 75.0784 2.91176 75.0392 2.89069C75.0022 2.86962 74.9283 2.79166 74.9237 2.78745C74.9422 2.80009 74.9676 2.81484 74.9976 2.82959C75.0876 2.87383 75.2192 2.89069 75.2192 2.89069L75.2562 2.8633C75.2562 2.8633 75.2862 2.84012 75.3577 2.82537L75.427 2.82327C75.4316 2.82327 75.4755 2.81695 75.4962 2.81484C75.5239 2.81484 75.5447 2.81484 75.5609 2.81484C75.577 2.81484 75.5886 2.81484 75.5978 2.81484C75.6232 2.80641 75.6486 2.80009 75.6717 2.79377C75.6717 2.79377 75.921 2.75795 76.0526 2.73688C76.1772 2.71581 76.2996 2.69685 76.4081 2.67367C76.512 2.6526 76.602 2.63154 76.662 2.60625C76.8236 2.56201 76.9506 2.53462 77.1768 2.43559C77.4053 2.33446 77.5762 2.22911 77.7793 2.11955C77.9824 2.00999 78.0933 1.95732 78.2318 1.8604C78.301 1.81194 78.3864 1.74663 78.4649 1.68131C78.5434 1.61389 78.6127 1.54858 78.6519 1.48958C78.7627 1.32103 78.7973 1.15669 78.7973 1.01974C78.7973 0.977598 78.7927 0.939674 78.7881 0.903856C78.7812 0.861717 78.7558 0.775333 78.7027 0.672094C78.6496 0.573068 78.5734 0.461401 78.458 0.396087C78.3403 0.328665 78.2548 0.299168 78.1025 0.282313C78.0425 0.273885 77.9663 0.267564 77.8832 0.267564C77.7331 0.265457 77.4561 0.334986 77.4561 0.334986C77.283 0.381338 77.1283 0.444546 76.976 0.507754C76.7243 0.610993 76.4358 0.802723 76.318 0.891214C76.0133 1.08505 75.7479 1.32524 75.5193 1.56122C75.2815 1.79087 75.0507 2.08373 74.9399 2.2565L74.9191 2.28811C74.9191 2.28811 74.8522 2.34289 74.8522 2.34499H74.8499C74.8383 2.35131 74.7806 2.37449 74.746 2.42927C74.7437 2.43138 74.7414 2.43559 74.7391 2.4377C74.6837 2.46509 74.6329 2.50091 74.589 2.54304C74.589 2.54304 74.559 2.57254 74.5475 2.58729C74.469 2.62943 74.4066 2.67367 74.3443 2.72213C74.2889 2.73056 74.215 2.79166 74.1619 2.81273C74.1504 2.81905 74.125 2.82327 74.1042 2.82959C74.0604 2.84434 74.0188 2.87173 73.9611 2.88647C73.8665 2.91176 73.7626 2.92229 73.6495 2.95811C73.5063 3.00235 73.324 3.08874 73.2639 3.09506C73.2039 3.09927 73.1416 3.10138 73.1047 3.10349C73.077 3.10349 73.077 3.10349 73.0285 3.10349C72.9823 3.10349 72.8784 3.1393 72.793 3.15827C72.793 3.15827 72.7376 3.1688 72.7168 3.17091C72.6961 3.17302 72.6476 3.16669 72.6476 3.16669C72.6014 3.15195 72.5599 3.13088 72.5183 3.11824C72.4491 3.09717 72.4029 3.0761 72.3867 3.02974C72.3867 3.02974 72.3937 2.98971 72.3798 2.96864C72.3683 2.94757 72.359 2.94547 72.359 2.94547C72.359 2.94547 72.3844 2.91386 72.389 2.89279C72.3913 2.87173 72.3775 2.82959 72.3775 2.82959C72.3775 2.82959 72.2828 2.92861 72.1028 3.04449C72.0197 3.09717 71.9504 3.11402 71.8996 3.12034C71.8673 3.12456 71.8027 3.11402 71.8027 3.11402L71.8304 3.18355C71.8281 3.18355 71.7681 3.20251 71.6596 3.20251C71.6596 3.20251 71.5903 3.20462 71.5372 3.18987C71.4864 3.17512 71.4957 3.15405 71.4957 3.15405L71.7496 3.09927L71.7842 3.04239L71.7219 2.99182L71.4841 2.94336L71.6711 2.87383L71.2625 2.73899C71.2648 2.7411 71.2717 2.87805 71.3017 2.93493C71.2925 2.94336 71.2856 2.94968 71.2787 2.956C71.2648 2.96864 71.2348 3.00657 71.2325 3.01078C71.2025 3.05081 71.1609 3.14141 71.1563 3.14563C71.1517 3.14984 71.1148 3.20041 71.1101 3.20883C71.0871 3.25308 71.064 3.28468 71.0409 3.31839C71.0363 3.32471 70.9786 3.40056 70.9763 3.40056C70.9024 3.48905 70.8377 3.57122 70.7777 3.65761C70.72 3.74399 70.6715 3.82827 70.6369 3.91676C70.6115 3.97997 70.6115 4.03053 70.6184 4.07689V4.07899C70.63 4.16538 70.6623 4.23491 70.6046 4.34236C70.6046 4.34236 70.6046 4.34236 70.6023 4.34236C70.5907 4.35079 70.5769 4.35711 70.563 4.36343C70.5607 4.36554 70.5584 4.36554 70.5561 4.36764C70.5423 4.37607 70.5307 4.38239 70.5169 4.39082C70.5146 4.39293 70.5123 4.39293 70.5123 4.39503C70.4869 4.40978 70.4592 4.42664 70.4338 4.44349C70.4315 4.4456 70.4315 4.4456 70.4291 4.44771C70.4176 4.45613 70.4038 4.46456 70.3922 4.47299L70.3899 4.4751C70.3645 4.49195 70.3391 4.51091 70.3137 4.52988C70.3137 4.52988 70.3114 4.53198 70.3091 4.53198C70.2837 4.55095 70.2606 4.56991 70.2375 4.58887C70.226 4.5973 70.2145 4.60783 70.2029 4.61837L70.2006 4.62047C70.1775 4.63944 70.1568 4.66051 70.136 4.67947C70.1267 4.69 70.1152 4.69843 70.106 4.70897C70.106 4.70897 70.106 4.70897 70.1037 4.70897C70.0852 4.73003 70.0667 4.749 70.0506 4.77007C70.0506 4.77007 70.0506 4.77007 70.0506 4.77217C70.0367 4.78903 70.0252 4.80378 70.0136 4.82063C69.9905 4.85224 69.9721 4.88595 69.9582 4.91966C69.9305 4.98497 69.8959 5.07136 69.8982 5.13035C69.8982 5.15353 69.9144 5.1746 69.9144 5.20199C69.9167 5.27994 69.9074 5.37897 69.889 5.46324C69.8774 5.51592 69.889 5.56859 69.852 5.62758C69.8497 5.6318 69.8451 5.63601 69.8405 5.64023C69.8382 5.64233 69.8359 5.64444 69.8313 5.64655C69.8289 5.64865 69.8266 5.65076 69.8243 5.65287C69.8128 5.6613 69.8036 5.66972 69.8012 5.67394C69.7966 5.67815 69.7966 5.68026 69.7966 5.68026C69.9028 5.65287 69.9882 5.64233 70.0621 5.64233C70.1152 5.64233 70.1591 5.64655 70.2006 5.65498C70.3276 5.67815 70.413 5.71608 70.4245 5.80457C70.4245 5.80457 70.4245 5.80457 70.4222 5.80457C70.4199 5.80457 70.4199 5.80457 70.4176 5.80457C70.4153 5.80457 70.413 5.80457 70.4107 5.80457C70.4107 5.80457 70.4107 5.80457 70.4084 5.80457C70.4061 5.80457 70.4061 5.80457 70.4038 5.80457C70.4015 5.80457 70.3991 5.80457 70.3968 5.80457C70.3968 5.80667 70.3968 5.80878 70.3968 5.80878C70.3945 5.80878 70.3945 5.80878 70.3922 5.80878C70.3945 5.83196 70.413 5.88463 70.4407 5.89306C70.4522 5.87199 70.5261 5.84038 70.5353 5.83196C70.5446 5.82564 70.5515 5.81932 70.5561 5.81089C70.563 5.80246 70.5677 5.79403 70.5723 5.7856C70.5746 5.7835 70.5746 5.77928 70.5769 5.77718C70.5792 5.77718 70.5815 5.77507 70.5838 5.77507C70.5884 5.77507 70.5884 5.77718 70.5884 5.77928C70.5884 5.78139 70.5884 5.7835 70.593 5.7835H70.5954C70.6161 5.76875 70.6323 5.74979 70.6669 5.74136C70.7292 5.67604 70.8493 5.63391 70.9462 5.58334C70.9578 5.58334 70.9716 5.58123 70.9878 5.57913C71.0224 5.53909 71.0663 5.53277 71.1171 5.51592C71.1171 5.51592 71.1217 5.51381 71.1286 5.5096C71.1378 5.50749 71.1494 5.50328 71.1655 5.50328C71.184 5.50328 71.2094 5.50749 71.2325 5.52435C71.2417 5.55595 71.2994 5.53699 71.3294 5.54752C71.3595 5.55806 71.3756 5.58966 71.4033 5.60862C71.4749 5.66551 71.5649 5.70765 71.6296 5.76454C71.6388 5.77296 71.6503 5.7835 71.6596 5.79193C71.6988 5.83196 71.7357 5.87199 71.7911 5.90991C71.8165 5.92466 71.8396 5.94994 71.8604 5.97523C71.8696 5.98787 71.9089 6.00262 71.9412 6.01737C71.9435 6.01947 71.9481 6.02158 71.9504 6.02369C71.9666 6.04054 71.9643 6.03422 71.9804 6.05529L71.9827 6.09954C71.9689 6.12903 71.9574 6.16064 71.9804 6.1796C71.9781 6.19435 71.9758 6.2112 71.9666 6.23227C71.9643 6.23649 71.9597 6.26177 71.9574 6.29759C71.955 6.31023 71.955 6.32076 71.9527 6.33341C71.9504 6.35658 71.9504 6.38187 71.9481 6.40504C71.9481 6.41347 71.9458 6.424 71.9458 6.43243C71.9458 6.46404 71.9458 6.49353 71.9481 6.51671H71.9527C71.9597 6.56517 71.9689 6.61573 71.9851 6.65787C72.0658 6.87278 72.2274 7.03712 72.3706 7.20567C72.5114 7.37001 72.703 7.488 72.9038 7.62074C73.0954 7.74715 73.3078 7.84197 73.571 7.91571C73.7164 7.95574 73.8919 7.98734 74.0904 7.98734C74.2312 7.98734 74.3859 7.9726 74.5475 7.93256C74.6652 7.90517 74.7252 7.87357 74.8152 7.83354C74.8706 7.80615 74.933 7.78297 74.9814 7.75769C75.1269 7.68184 75.2469 7.58913 75.33 7.48589C75.3485 7.46483 75.3646 7.44376 75.3785 7.42058L75.3808 7.41847C75.3877 7.40794 75.3947 7.3953 75.4016 7.38266C75.4016 7.38055 75.4039 7.38055 75.4039 7.37844C75.4108 7.36791 75.4154 7.35527 75.4224 7.34473C75.4224 7.34262 75.4247 7.34052 75.4247 7.33841C75.4293 7.32788 75.4362 7.31523 75.4408 7.3047C75.4408 7.30259 75.4431 7.30049 75.4431 7.29838C75.4478 7.28784 75.4524 7.2752 75.4547 7.26256C75.4547 7.26045 75.457 7.25835 75.457 7.25835C75.4616 7.24571 75.4639 7.23517 75.4662 7.22253C75.4662 7.22042 75.4662 7.22042 75.4662 7.21831C75.4685 7.20567 75.4708 7.19303 75.4731 7.18039C75.4731 7.17828 75.4731 7.17828 75.4731 7.17828C75.4755 7.16564 75.4755 7.153 75.4778 7.13825C75.4893 6.86225 75.2769 6.72529 75.0876 6.61995C74.903 6.51882 74.7137 6.43454 74.5174 6.34815C74.5174 6.34815 74.5174 6.34815 74.5151 6.34815C74.5036 6.34183 74.3582 6.27441 74.125 6.17539C74.0165 6.1185 73.8457 6.05108 73.7118 6.00262C73.7118 6.00262 73.7095 6.00262 73.7095 6.00051C73.7049 5.9984 73.7002 5.9963 73.6956 5.9963C73.6956 5.9963 73.6933 5.9963 73.691 5.99419C73.6864 5.99208 73.6818 5.98998 73.6795 5.98998C73.6772 5.98998 73.6749 5.98787 73.6725 5.98787C73.6679 5.98787 73.6656 5.98576 73.661 5.98366C73.6587 5.98366 73.6564 5.98155 73.6541 5.98155C73.6495 5.97944 73.6471 5.97944 73.6448 5.97734C73.6425 5.97734 73.6402 5.97523 73.6379 5.97523C73.6356 5.97523 73.631 5.97312 73.6287 5.97312C73.6264 5.97312 73.6241 5.97101 73.6218 5.97101C73.6195 5.97101 73.6171 5.96891 73.6125 5.96891C73.6102 5.96891 73.6079 5.9668 73.6056 5.9668C73.6033 5.9668 73.601 5.96469 73.5987 5.96469C73.5964 5.96469 73.5941 5.96259 73.5917 5.96259C73.5894 5.96259 73.5871 5.96259 73.5848 5.96048C73.5825 5.96048 73.5802 5.95837 73.5756 5.95837C73.5733 5.95837 73.5733 5.95837 73.571 5.95627C73.5664 5.95627 73.564 5.95416 73.5594 5.95205C73.5202 5.93098 73.4048 5.89306 73.3447 5.88884C73.3217 5.88252 73.287 5.87831 73.2432 5.85303C73.2247 5.83406 73.2201 5.8151 73.2016 5.79403C73.1139 5.80035 72.9546 5.82985 72.8553 5.83828C72.8507 5.83828 72.8461 5.84038 72.8415 5.84038C72.8369 5.84038 72.8346 5.84038 72.83 5.84249C72.8276 5.84249 72.8276 5.84249 72.8253 5.84249C72.823 5.84249 72.8207 5.84249 72.8184 5.8446C72.8161 5.8446 72.8138 5.8446 72.8138 5.84671C72.8115 5.84671 72.8092 5.84671 72.8069 5.84881C72.8046 5.84881 72.8023 5.84881 72.8023 5.85092C72.7999 5.85092 72.7976 5.85092 72.793 5.85303C72.7907 5.85303 72.7884 5.85303 72.7861 5.85513C72.7838 5.85513 72.7815 5.85724 72.7792 5.85724C72.7769 5.85724 72.7745 5.85724 72.7722 5.85935C72.7699 5.85935 72.7676 5.86145 72.7653 5.86145C72.763 5.86145 72.7607 5.86356 72.7584 5.86356C72.7561 5.86356 72.7538 5.86567 72.7515 5.86567C72.7492 5.86567 72.7468 5.86777 72.7445 5.86777C72.7422 5.86777 72.7399 5.86988 72.7353 5.86988C72.733 5.86988 72.7307 5.87199 72.7284 5.87199C72.7261 5.87199 72.7238 5.8741 72.7191 5.8741C72.7168 5.8741 72.7145 5.8762 72.7122 5.8762C72.7076 5.8762 72.703 5.87831 72.7007 5.88042C72.6984 5.88042 72.6938 5.88252 72.6914 5.88463C72.6891 5.88463 72.6868 5.88674 72.6845 5.88674C72.6822 5.88674 72.6799 5.88884 72.6776 5.88884C72.6753 5.88884 72.673 5.89095 72.6707 5.89095C72.6684 5.89095 72.666 5.89306 72.6637 5.89306C72.6614 5.89306 72.6591 5.89516 72.6568 5.89516C72.6545 5.89727 72.6522 5.89727 72.6499 5.89727C72.6476 5.89727 72.6453 5.89938 72.643 5.89938C72.6407 5.89938 72.6383 5.90149 72.636 5.90149C72.6337 5.90149 72.6314 5.90359 72.6291 5.90359C72.6268 5.9057 72.6245 5.9057 72.6222 5.9057C72.6199 5.9057 72.6176 5.90781 72.6153 5.90781C72.613 5.90991 72.6106 5.90991 72.6083 5.90991C72.606 5.90991 72.6037 5.91202 72.6014 5.91202C72.5991 5.91413 72.5968 5.91413 72.5945 5.91413C72.5922 5.91413 72.5899 5.91623 72.5876 5.91834C72.5853 5.91834 72.5829 5.92045 72.5806 5.92045C72.5783 5.92255 72.5737 5.92255 72.5714 5.92466C72.5691 5.92466 72.5691 5.92466 72.5668 5.92677C72.5622 5.92888 72.5599 5.93098 72.5552 5.93098H72.5529C72.5483 5.93309 72.546 5.93309 72.5437 5.9352H72.5414C72.5391 5.9373 72.5368 5.9373 72.5322 5.93941C72.5299 5.93941 72.5299 5.94152 72.5299 5.94152C72.5275 5.94362 72.5252 5.94362 72.5229 5.94573C72.5206 5.94573 72.5206 5.94784 72.5183 5.94784C72.516 5.94784 72.5137 5.94994 72.5114 5.94994L72.5091 5.95205C72.5068 5.95416 72.5045 5.95416 72.5022 5.95627C72.5022 5.95627 72.5022 5.95627 72.4998 5.95627C72.4975 5.95627 72.4952 5.95837 72.4929 5.95837C72.486 5.96048 72.4791 5.96469 72.4768 5.96469C72.516 5.9352 72.6614 5.82564 72.7746 5.80457C72.8069 5.79825 72.8161 5.79403 72.8115 5.79193C72.8138 5.79193 72.8138 5.79193 72.8138 5.78982C72.8138 5.78982 72.8161 5.78982 72.8161 5.78771C72.8161 5.78771 72.8161 5.78771 72.8138 5.78771H72.8115C72.8115 5.78771 72.8092 5.78771 72.8069 5.78771C72.7999 5.78771 72.793 5.78771 72.7815 5.78771C72.7769 5.78771 72.7746 5.78771 72.7699 5.78771C72.7676 5.78771 72.7676 5.78771 72.7653 5.78771C72.763 5.78771 72.7607 5.78771 72.7584 5.78771C72.7561 5.78771 72.7538 5.78771 72.7515 5.78771C72.7468 5.78771 72.7422 5.78982 72.7376 5.78982C72.6707 5.79825 72.5783 5.81932 72.4998 5.86567C72.4583 5.88884 72.4375 5.89727 72.426 5.89938H72.4237H72.4214C72.4214 5.89938 72.4214 5.89938 72.4214 5.89727V5.89516C72.4214 5.89306 72.4214 5.89306 72.4237 5.89095C72.4237 5.88884 72.426 5.88674 72.4283 5.88463C72.4467 5.85935 72.4837 5.82564 72.4837 5.82564C72.4837 5.82564 72.6545 5.70343 72.8253 5.67394C72.9685 5.64655 73.0216 5.58545 73.0331 5.56859C73.0377 5.56227 73.04 5.56016 73.04 5.56016C73.04 5.56016 72.9846 5.55595 72.9408 5.55595L72.823 5.56227C72.7769 5.56648 72.7261 5.57702 72.6961 5.58755C72.6914 5.58966 72.5552 5.63812 72.5552 5.64023C72.4652 5.67183 72.3636 5.70343 72.3129 5.72029C72.3129 5.72029 72.2852 5.72872 72.2805 5.73082C72.3036 5.70976 72.3937 5.63391 72.5899 5.54752C72.7746 5.46535 72.8323 5.44639 72.8738 5.44218C72.9038 5.43796 72.9269 5.44639 72.9269 5.44639L72.9292 5.41268C72.9292 5.41268 72.8992 5.36422 72.9384 5.31576C72.9685 5.27784 72.9823 5.26519 73.0239 5.2357C73.0977 5.18302 73.2432 5.14089 73.3586 5.09664C73.4417 5.06504 73.5271 5.03343 73.6079 5.00393C73.6956 4.97233 73.7833 4.94705 73.8618 4.91544C73.9496 4.87963 74.0211 4.8417 74.095 4.81642C74.1943 4.75953 74.282 4.74057 74.3628 4.73214C74.4759 4.72582 74.716 4.71529 74.8776 4.69843C74.9399 4.69211 75.0461 4.67736 75.0461 4.67736C75.0461 4.67736 75.2285 4.63944 75.2885 4.64154C75.3462 4.64154 75.3808 4.65419 75.4501 4.6584C75.5216 4.66261 75.5978 4.66051 75.644 4.67947C75.7409 4.7195 75.7963 4.71529 75.8748 4.76164C75.951 4.80588 76.0733 4.87331 76.1957 4.90491C76.7105 5.03343 77.0937 5.01447 77.6062 5.02079C77.6131 5.02079 77.62 5.02079 77.6293 5.02079C77.8001 5.02079 78.0379 4.99972 78.2364 4.97865C78.4788 4.95126 78.7258 4.91544 79.0236 4.83538C79.4299 4.72371 79.6884 4.56991 79.8385 4.37396C79.8385 4.37396 79.9493 4.25176 79.9931 4.02843C80.0393 3.75031 79.8546 3.626 79.6584 3.54594Z" fill="white"/>
<path d="M71.2323 2.16381C71.2785 2.32604 71.3108 2.36818 71.3547 2.42086C71.3985 2.47353 71.4724 2.55149 71.6201 2.60627C71.7725 2.66105 71.8625 2.66526 72.0518 2.66526C72.068 2.66526 72.1095 2.66105 72.1095 2.66105C72.1095 2.66105 72.0357 2.63366 71.9156 2.59784C71.8256 2.57255 71.7679 2.54516 71.7471 2.53463L72.1003 2.5262C72.1003 2.5262 71.8648 2.49671 71.7725 2.46089C71.7586 2.45457 71.724 2.43982 71.7032 2.42928C71.7679 2.4335 71.9849 2.44825 71.9849 2.44825C71.9849 2.44825 71.9526 2.36186 71.9502 2.34079C72.0033 2.35133 72.0541 2.35554 72.1026 2.35554C72.2088 2.35554 72.3058 2.33447 72.3935 2.3113C72.6982 2.23545 72.8321 2.08796 72.9983 1.8878C73.1853 1.69818 73.363 1.47063 73.4669 1.27258C73.4946 1.21991 73.52 1.16934 73.5408 1.11456C73.6147 0.922831 73.6585 0.724779 73.6585 0.579401C73.6562 0.446665 73.6239 0.351853 73.5454 0.2444C73.4785 0.151695 73.4023 0.0842737 73.2522 0.0358143C73.1899 0.0147451 73.0583 0.00421043 73.0214 0.0021035C72.8759 -3.42773e-06 72.6705 0.0358143 72.6543 0.0400282C72.315 0.117984 72.038 0.280218 71.8625 0.452986C71.8187 0.495124 71.7817 0.537263 71.7517 0.581508C71.7217 0.623647 71.6917 0.665785 71.6663 0.710031C71.574 0.863837 71.4724 1.0661 71.4101 1.2178C71.3778 1.29576 71.3247 1.45167 71.3247 1.45167C71.3223 1.45167 71.29 1.56966 71.2854 1.58019C71.2323 1.7656 71.2069 1.87516 71.2208 2.02265C71.2185 2.06689 71.2208 2.11957 71.2323 2.16381Z" fill="white"/>
<path d="M70.1498 6.15012C70.166 6.1122 70.2168 6.06795 70.2353 6.02792C70.2145 6.0216 70.2214 5.97735 70.2306 5.95839C70.1498 5.90783 70.0414 5.8699 69.9282 5.85515C69.8405 5.84462 69.7505 5.84673 69.6697 5.87201C69.6558 5.87833 69.6281 5.88886 69.5958 5.90361C69.6443 5.89518 69.7297 5.88676 69.8082 5.89518C69.8151 5.89518 69.8197 5.89518 69.8244 5.89729C70.039 5.92257 70.0806 6.04267 70.0806 6.04267C70.0806 6.04267 69.9167 5.98789 69.8013 5.97525C69.792 5.97525 69.7851 5.97314 69.7782 5.97314C69.6628 5.96471 69.4989 5.99421 69.4989 5.99421L69.2911 6.0511C69.2911 6.0511 69.5612 6.0216 69.7066 6.04056C69.7274 6.04478 69.7482 6.04688 69.762 6.0511C69.8798 6.09113 69.9652 6.18173 69.9652 6.18173C69.9652 6.18173 69.8774 6.12063 69.7089 6.09956C69.6835 6.09745 69.6581 6.09534 69.6281 6.09324C69.455 6.08691 69.2934 6.12273 69.1872 6.15644H69.1826C69.0487 6.19226 68.9448 6.24493 68.8594 6.30814C68.8502 6.31446 68.834 6.32921 68.834 6.32921C68.7094 6.42613 68.6286 6.5399 68.5593 6.64314C68.4231 6.84751 68.3354 7.10035 68.3377 7.29629C68.3377 7.40164 68.3446 7.51119 68.3769 7.60601C68.4393 7.78088 68.5339 7.98947 68.924 8C69.3927 8.01264 69.6327 7.81249 69.7666 7.53648C69.8313 7.40164 69.8751 7.28154 69.9305 7.15512C69.9305 7.15512 69.9836 7.04767 70.009 6.98868C70.0321 6.93811 70.0575 6.88965 70.076 6.84541C70.1268 6.7211 70.1868 6.58836 70.1914 6.48091C70.196 6.45773 70.196 6.43666 70.196 6.41981C70.1891 6.39031 70.166 6.30603 70.1337 6.28286C70.1245 6.25547 70.1429 6.15855 70.1498 6.15012Z" fill="white"/>
<path d="M77.7769 1.7972C77.77 1.79088 77.7654 1.78456 77.7607 1.78035C77.7931 1.75506 77.8254 1.72978 77.8554 1.7045C77.8692 1.71714 77.8623 1.71082 77.8762 1.72346C77.8831 1.72978 77.8831 1.73189 77.8946 1.73189C77.8969 1.73189 77.8969 1.73189 77.8992 1.73189C77.8623 1.75085 77.8231 1.77192 77.7769 1.7972Z" fill="#074989"/>
<path d="M77.9684 1.68763C77.943 1.69184 77.9222 1.69395 77.9153 1.69395C77.9061 1.68342 77.9061 1.68342 77.8945 1.67288C77.913 1.65813 77.9453 1.63496 77.9638 1.62021C77.9753 1.63074 77.9915 1.64549 78.0076 1.66024C77.9961 1.66867 77.9822 1.6792 77.9684 1.68763Z" fill="#074989"/>
<path d="M78.114 1.58441C78.0978 1.56545 78.0839 1.54649 78.0747 1.53595C78.1001 1.51699 78.1232 1.50013 78.1486 1.48117C78.1578 1.49171 78.1555 1.4896 78.167 1.50013C78.1693 1.50435 78.1855 1.50856 78.1855 1.50856C78.1878 1.50856 78.1994 1.50856 78.2132 1.50645C78.1855 1.53174 78.1509 1.55913 78.114 1.58441Z" fill="#074989"/>
<path d="M78.257 1.47064C78.2362 1.47275 78.2108 1.47486 78.2039 1.47486L78.1831 1.45589C78.1946 1.44747 78.2247 1.4264 78.2339 1.41797C78.2431 1.4285 78.2593 1.44325 78.2708 1.45589C78.2685 1.46221 78.2616 1.46643 78.257 1.47064Z" fill="#074989"/>
<path d="M78.3771 1.35266C78.3701 1.36108 78.3609 1.37372 78.347 1.38847C78.3378 1.37583 78.3263 1.3653 78.3193 1.35687C78.3424 1.34001 78.3632 1.32526 78.384 1.31052C78.3886 1.31473 78.3909 1.31894 78.3955 1.32316C78.3909 1.33369 78.384 1.34212 78.3771 1.35266Z" fill="#074989"/>
<path d="M78.4601 0.901762C78.3931 0.897549 78.3354 0.912297 78.3123 0.916511C78.2915 0.920725 78.2731 0.929152 78.2731 0.941794C78.2731 0.960756 78.3123 0.950222 78.3308 0.952329C78.3631 0.952329 78.4231 0.956542 78.4762 0.986039C78.4808 1.04082 78.4762 1.09349 78.4647 1.14617C78.3169 0.986039 78.1092 1.05557 78.0653 1.07032C78.0422 1.07453 78.0237 1.08506 78.0261 1.09981C78.0284 1.11878 78.0676 1.10192 78.0861 1.10192C78.1438 1.09771 78.3008 1.10613 78.3516 1.22623C78.2985 1.26205 78.2384 1.30419 78.2177 1.31893C78.0468 1.1567 77.8183 1.23887 77.7675 1.25783C77.7421 1.26415 77.719 1.2768 77.7236 1.29365C77.7283 1.31472 77.7721 1.29365 77.7929 1.29365C77.8575 1.28733 78.0261 1.28944 78.093 1.40953C78.033 1.45378 77.966 1.50224 77.9406 1.51909C77.7398 1.35264 77.4882 1.46431 77.4328 1.48749C77.4074 1.49592 77.3843 1.51066 77.3866 1.52752C77.3912 1.54859 77.4397 1.52331 77.4628 1.5212C77.5344 1.50645 77.7306 1.49381 77.8044 1.62233C77.7213 1.68554 77.6244 1.75928 77.6105 1.76982H77.6082C77.3866 1.60969 77.1258 1.74032 77.0657 1.76771C77.038 1.77824 77.015 1.7951 77.0196 1.80985C77.0265 1.83092 77.075 1.80142 77.1004 1.79931C77.1765 1.78035 77.382 1.75507 77.4674 1.88148C77.4166 1.92151 77.3451 1.96997 77.2758 2.02475C77.2712 2.01843 77.2689 2.01843 77.262 2.01422C76.9688 1.86884 76.6825 2.05004 76.6202 2.08796C76.6087 2.09428 76.5971 2.1006 76.5879 2.10903C76.5509 2.10482 76.5163 2.1006 76.4817 2.09639C77.1211 1.60126 77.7652 1.16724 78.407 0.798523C78.4323 0.832234 78.4485 0.870159 78.4601 0.901762Z" fill="#074989"/>
<path d="M78.13 0.678423C78.1347 0.682636 78.1462 0.688957 78.167 0.68053C78.1808 0.672102 78.1831 0.663674 78.1831 0.655246C78.1831 0.648926 78.1808 0.640498 78.1785 0.634177C78.1739 0.623642 78.1693 0.613108 78.1647 0.60468C78.1693 0.602573 78.1762 0.598359 78.1808 0.596252C78.2155 0.606787 78.2455 0.623642 78.2893 0.646819C78.2986 0.651033 78.3055 0.657353 78.3147 0.665781C78.3124 0.669995 78.3124 0.676316 78.3124 0.68053C78.3147 0.695278 78.317 0.70792 78.3216 0.718454C78.324 0.722668 78.324 0.724775 78.3263 0.726882C78.2778 0.752165 78.2316 0.781662 78.1855 0.806945C78.1762 0.794303 78.1647 0.777448 78.1485 0.76902C78.1393 0.764807 78.1324 0.760593 78.1208 0.766914C78.107 0.773234 78.107 0.781662 78.1047 0.79009C78.1023 0.809052 78.1093 0.836442 78.1116 0.851191C78.0539 0.887008 77.9938 0.920719 77.9361 0.956537C77.9246 0.943895 77.913 0.92704 77.8946 0.916505C77.8877 0.912291 77.8807 0.910184 77.8669 0.914398C77.853 0.920719 77.853 0.929147 77.8507 0.937574C77.8484 0.958644 77.8576 0.988141 77.8623 1.00289C77.7884 1.04713 77.7145 1.09349 77.6383 1.14195C77.6383 1.14195 77.6383 1.14195 77.6383 1.13984H77.636C77.6222 1.13773 77.6037 1.11456 77.5852 1.10402C77.5806 1.09981 77.5691 1.09981 77.5622 1.10191C77.5506 1.10824 77.5437 1.11877 77.5391 1.1272C77.5368 1.13563 77.5391 1.14405 77.5414 1.15037C77.546 1.16512 77.5552 1.17776 77.5645 1.19041C77.4767 1.24729 77.389 1.30418 77.3013 1.36317C77.2759 1.35685 77.2482 1.35053 77.2344 1.33789C77.2344 1.33789 77.2067 1.32314 77.1951 1.32736C77.179 1.33578 77.1743 1.34632 77.172 1.35475C77.172 1.36107 77.1766 1.38214 77.179 1.38424C77.1882 1.39899 77.1997 1.41374 77.2136 1.42638C77.0912 1.50855 76.9689 1.59494 76.8465 1.68132C76.8165 1.67289 76.7819 1.65393 76.7473 1.64972C76.7427 1.64761 76.7357 1.64761 76.7288 1.65182C76.7173 1.65604 76.7103 1.66446 76.7103 1.67289C76.708 1.68343 76.708 1.68764 76.708 1.69396C76.708 1.69607 76.708 1.69607 76.708 1.69817C76.708 1.7045 76.7126 1.7066 76.7126 1.70871C76.7196 1.72135 76.7357 1.74031 76.745 1.75295C76.618 1.84566 76.4772 1.95522 76.341 2.06267C76.2348 2.03318 76.1448 1.99314 76.0894 1.93836C76.1817 1.87094 76.274 1.80352 76.3664 1.73821C76.371 1.75085 76.3756 1.7677 76.3802 1.78034C76.3825 1.78245 76.3825 1.78667 76.3895 1.79088C76.3941 1.79509 76.401 1.79931 76.4102 1.79931C76.4149 1.79931 76.4195 1.79931 76.4241 1.7972C76.4333 1.79299 76.4402 1.78667 76.4426 1.78034C76.4472 1.76981 76.4495 1.76349 76.4495 1.75717C76.4518 1.72978 76.4541 1.70028 76.4587 1.67289C76.5903 1.57808 76.7242 1.48748 76.8558 1.39899C76.8558 1.4011 76.8558 1.4011 76.8558 1.40321C76.8581 1.41585 76.8627 1.4306 76.8673 1.44113C76.8696 1.44324 76.8719 1.44745 76.8765 1.45166C76.8812 1.45588 76.8881 1.45799 76.895 1.46009C76.8996 1.46009 76.9066 1.46009 76.9135 1.45799C76.925 1.45377 76.932 1.44324 76.932 1.4327C76.9412 1.40321 76.9412 1.36739 76.9458 1.34C77.0428 1.27679 77.1374 1.21358 77.2344 1.15459C77.239 1.16723 77.2436 1.18408 77.2505 1.19673C77.2528 1.19883 77.2621 1.21147 77.2713 1.21358C77.2736 1.21358 77.2805 1.22201 77.2944 1.21569C77.3152 1.20515 77.3152 1.17144 77.3152 1.17144C77.3152 1.17144 77.3175 1.12298 77.3198 1.09981C77.4006 1.04924 77.4814 1.00078 77.5622 0.952323C77.5691 0.967071 77.576 0.98182 77.5899 0.992355C77.5945 0.994462 77.5991 0.998675 77.6014 0.998675C77.6106 1.00078 77.6176 0.998675 77.6245 0.996568C77.636 0.990248 77.6453 0.979713 77.643 0.969178C77.643 0.952323 77.643 0.924933 77.6383 0.905971C77.7076 0.865939 77.7792 0.8238 77.8484 0.783769C77.86 0.798517 77.8761 0.819587 77.8969 0.825907C77.9038 0.828014 77.9107 0.828014 77.92 0.823801C77.9315 0.819587 77.9408 0.806945 77.9408 0.798517C77.9408 0.787983 77.9384 0.779555 77.9361 0.76902C77.9338 0.758486 77.9292 0.750058 77.9246 0.74163C77.98 0.710026 78.0377 0.678423 78.0931 0.648926C78.1047 0.655246 78.1139 0.667888 78.13 0.678423Z" fill="#074989"/>
<path d="M75.9969 1.74666C76.0593 1.68345 76.2393 1.50647 76.2832 1.27892C76.3501 1.22414 76.4217 1.17357 76.4933 1.12722L76.5025 1.1209L76.5094 1.11458C76.5487 1.08719 76.5995 1.04926 76.6618 1.00923C76.6479 1.12301 76.5902 1.24099 76.5533 1.29999C76.5348 1.32948 76.4679 1.39269 76.491 1.40323C76.5094 1.40955 76.5464 1.37794 76.5764 1.34423C76.6272 1.28524 76.7703 1.1209 76.798 0.922848C76.8742 0.878602 76.955 0.83225 77.0334 0.798539C77.0242 0.893351 76.985 0.986055 76.9596 1.03873C76.9434 1.06823 76.8857 1.12933 76.9111 1.13775C76.9296 1.14407 76.9619 1.11247 76.9896 1.07876C77.0265 1.0303 77.1212 0.901778 77.1535 0.747973C77.225 0.718476 77.2989 0.688979 77.3751 0.663696C77.3659 0.724797 77.3474 0.779577 77.3335 0.815394C77.322 0.844891 77.2712 0.905992 77.2966 0.910206C77.3151 0.91442 77.3451 0.884923 77.3659 0.851212C77.3913 0.813288 77.442 0.733224 77.4721 0.632092C77.5459 0.606809 77.6175 0.594167 77.6544 0.589953C77.6544 0.589953 77.6452 0.61945 77.6406 0.629985C77.629 0.659482 77.5806 0.718476 77.6036 0.724797C77.6221 0.729011 77.6521 0.699514 77.6729 0.665803C77.6844 0.64684 77.7052 0.615237 77.726 0.573098C77.7375 0.570991 77.7468 0.568884 77.7514 0.566777C77.7883 0.560457 77.8299 0.55835 77.876 0.55835H77.8783C77.8783 0.566777 77.8807 0.573098 77.8876 0.575205C77.8968 0.577312 77.9084 0.570991 77.9199 0.560457C77.9476 0.562563 77.9776 0.56467 78.0099 0.568884C77.3428 0.922848 76.671 1.34423 75.9992 1.83093C75.9877 1.80986 75.9785 1.7909 75.9692 1.76983C75.9831 1.7614 75.99 1.75508 75.9969 1.74666Z" fill="#074989"/>
<path d="M75.0643 6.88544C75.0966 6.90651 75.122 6.92547 75.1451 6.94443C75.1082 6.936 75.0736 6.92547 75.0366 6.91493C75.0459 6.9044 75.0551 6.89597 75.0643 6.88544Z" fill="#074989"/>
<path d="M74.9673 6.82857C74.9788 6.83489 74.9881 6.83911 74.9996 6.84753C74.9835 6.86439 74.9673 6.87914 74.9558 6.89178C74.9327 6.88335 74.8888 6.87282 74.8657 6.8665C74.8726 6.86018 74.8911 6.84121 74.8957 6.837C74.9119 6.83279 74.935 6.82857 74.9558 6.82646C74.9604 6.82436 74.9627 6.82646 74.9673 6.82857Z" fill="#074989"/>
<path d="M74.8241 6.75272C74.8542 6.76746 74.8842 6.78432 74.9142 6.79907C74.9072 6.80118 74.9026 6.80118 74.8957 6.80328C74.8934 6.80328 74.8888 6.80539 74.8842 6.8075C74.8749 6.8096 74.868 6.81592 74.8611 6.82225C74.8518 6.83067 74.8403 6.84121 74.8311 6.84964C74.8057 6.84121 74.7803 6.83278 74.7549 6.82225C74.7757 6.79907 74.7987 6.77589 74.8241 6.75272Z" fill="#074989"/>
<path d="M74.7479 6.71689C74.7248 6.74218 74.6925 6.77378 74.6717 6.79274C74.6533 6.78432 74.614 6.77167 74.5933 6.76325C74.621 6.73586 74.6256 6.73164 74.644 6.72532C74.6602 6.72321 74.6948 6.71479 74.7271 6.70847C74.7364 6.71057 74.7433 6.71479 74.7479 6.71689Z" fill="#074989"/>
<path d="M74.5657 6.63263C74.605 6.64948 74.6442 6.66845 74.6835 6.6853C74.6696 6.68952 74.6558 6.69162 74.6419 6.69373C74.6373 6.69373 74.6327 6.69584 74.6281 6.69794C74.6211 6.70005 74.6119 6.70637 74.605 6.71059C74.5911 6.72323 74.5796 6.73587 74.5657 6.7464C74.5357 6.73376 74.5057 6.72112 74.478 6.70637C74.508 6.6832 74.538 6.65791 74.5657 6.63263Z" fill="#074989"/>
<path d="M74.4849 6.59678C74.4572 6.62207 74.418 6.65367 74.3995 6.67052C74.3764 6.65788 74.3372 6.63681 74.3164 6.62417C74.3256 6.61574 74.3395 6.6031 74.3603 6.59257C74.3787 6.59046 74.4087 6.58414 74.4434 6.57782C74.4572 6.58414 74.4711 6.59046 74.4849 6.59678Z" fill="#074989"/>
<path d="M74.2701 6.50198C74.3116 6.52095 74.3532 6.5378 74.3901 6.55466C74.3832 6.55676 74.3763 6.55676 74.3716 6.55887C74.367 6.55887 74.3624 6.56098 74.3555 6.56308C74.3486 6.56519 74.3324 6.57362 74.3278 6.57783C74.3139 6.59047 74.3047 6.59679 74.2885 6.60944C74.2585 6.59258 74.2331 6.57573 74.2031 6.55676C74.217 6.54834 74.2447 6.52516 74.2701 6.50198Z" fill="#074989"/>
<path d="M74.1432 6.4472C74.157 6.45353 74.1755 6.46195 74.1917 6.46827C74.1617 6.48934 74.1293 6.51041 74.1224 6.51673C74.1016 6.49777 74.0832 6.48724 74.0647 6.46827C74.067 6.46827 74.1016 6.45774 74.1432 6.4472Z" fill="#074989"/>
<path d="M73.9747 6.36713C74.0001 6.37977 74.0232 6.3903 74.0417 6.40084L74.0532 6.40716L74.0671 6.41348C74.0671 6.41348 74.074 6.41559 74.0832 6.4198C74.0694 6.42401 74.0602 6.42612 74.0578 6.42823C74.0486 6.43244 74.0417 6.43665 74.0348 6.44298C74.0163 6.45772 74.0532 6.42823 74.0325 6.44298C74.0117 6.42612 73.9794 6.39452 73.9517 6.36923C73.9609 6.36923 73.9678 6.36923 73.9747 6.36713Z" fill="#074989"/>
<path d="M73.4508 6.47881C73.4647 6.47459 73.4808 6.47038 73.4947 6.46617C73.5709 6.4451 73.6424 6.42403 73.6817 6.41349C73.6909 6.42192 73.7047 6.4156 73.7186 6.40506C73.7348 6.40296 73.7486 6.39874 73.7648 6.39664C73.7786 6.41981 73.804 6.45352 73.8063 6.45563L73.834 6.48091C73.8594 6.5062 73.8871 6.52937 73.9148 6.55044L73.9402 6.5694C73.7555 6.67686 73.5732 6.6895 73.5085 6.68739C73.4831 6.6895 73.4554 6.67264 73.43 6.69161C73.4093 6.70636 73.4208 6.71689 73.4439 6.7211C73.4854 6.73375 73.6586 6.79906 74.0233 6.62629C74.0418 6.63893 74.0603 6.65158 74.0764 6.66211L74.1133 6.68318C74.1341 6.69582 74.1572 6.70846 74.1803 6.7211L74.2011 6.73375C74.0325 6.83698 73.8479 6.86648 73.7786 6.8728C73.7509 6.87702 73.714 6.86648 73.6909 6.88544C73.6724 6.9023 73.6909 6.90862 73.7163 6.91073C73.7648 6.91705 73.9679 6.95076 74.2957 6.7822C74.3165 6.79063 74.335 6.80117 74.358 6.8117L74.4019 6.83277C74.4227 6.8412 74.4435 6.84963 74.4688 6.86016H74.4712C74.328 6.95287 74.1595 6.99711 74.0926 7.00975C74.0626 7.01818 74.0141 7.01397 73.9979 7.03504C73.9841 7.04978 74.0072 7.054 74.0372 7.05189C74.0903 7.05189 74.3003 7.05189 74.575 6.89809C74.5981 6.90651 74.6212 6.91494 74.642 6.92126L74.6928 6.93812C74.7089 6.94444 74.7251 6.94865 74.7436 6.95497L74.7482 6.95708C74.6235 7.04136 74.4758 7.09192 74.4111 7.10878C74.3811 7.11931 74.3257 7.11931 74.3142 7.14038C74.3026 7.15724 74.3303 7.15724 74.3627 7.15092C74.4158 7.1446 74.6212 7.12563 74.8521 6.98658C74.8705 6.99079 74.8913 6.99711 74.9098 7.00132L74.9675 7.01607C74.9836 7.02029 75.0021 7.02661 75.0183 7.03082L75.0506 7.03925C74.9352 7.12353 74.792 7.17831 74.7274 7.19938C74.6974 7.20991 74.6397 7.21623 74.6281 7.23519C74.6212 7.24994 74.6489 7.24994 74.6835 7.24362C74.7389 7.23519 74.9444 7.20359 75.1614 7.06453C75.1752 7.06875 75.1891 7.07085 75.2052 7.07507L75.2445 7.0835C75.2468 7.10246 75.2491 7.11931 75.2468 7.14038C75.2468 7.15513 75.2445 7.16988 75.2399 7.18673C75.1775 7.22887 75.1175 7.26048 75.0783 7.27733C75.0506 7.29208 74.9859 7.30683 74.9859 7.32579C74.9836 7.34054 75.016 7.33422 75.0506 7.32158C75.0783 7.31315 75.1383 7.29629 75.2122 7.26469C75.1891 7.30894 75.1568 7.35529 75.1129 7.39743C74.3003 7.27101 73.5339 6.9634 73.2454 6.5989C73.3031 6.55044 73.3723 6.51041 73.4508 6.47881Z" fill="#074989"/>
<path d="M73.0559 6.78432C73.0629 6.78432 73.0675 6.78221 73.0721 6.7801C73.0998 6.77168 73.1252 6.76325 73.1529 6.75482C73.1598 6.76114 73.1644 6.76746 73.1714 6.77378C73.2337 6.83699 73.3076 6.89599 73.3907 6.95077C73.3768 6.95919 73.3583 6.96762 73.3468 6.97816C73.3445 6.98026 73.3376 6.98658 73.333 6.9908C73.3283 6.99501 73.326 6.99923 73.3237 7.00344V7.00555C73.3237 7.01397 73.326 7.02029 73.3468 7.01608C73.3791 7.00976 73.4207 6.99501 73.4507 6.98658C73.5222 7.03083 73.603 7.07297 73.6908 7.11089C73.6746 7.11932 73.6561 7.13196 73.6423 7.14039C73.64 7.1425 73.6331 7.14882 73.6284 7.15303C73.6261 7.15724 73.6261 7.15935 73.6238 7.16146C73.6238 7.16357 73.6238 7.16357 73.6238 7.16357C73.6238 7.16567 73.6192 7.17199 73.6284 7.17621C73.6354 7.17831 73.6446 7.17831 73.6561 7.1741C73.6585 7.1741 73.6608 7.1741 73.6631 7.17199C73.6654 7.17199 73.6654 7.16989 73.6677 7.16989L73.67 7.16778H73.6746L73.6815 7.16567C73.6815 7.16567 73.6838 7.16567 73.6838 7.16357C73.6931 7.15935 73.7023 7.15724 73.7115 7.15303C73.7277 7.14671 73.7439 7.1425 73.7623 7.13828C73.8385 7.16989 73.9216 7.20149 74.007 7.23099C73.9909 7.24152 73.9724 7.25627 73.9632 7.27102C73.9632 7.27313 73.9609 7.27523 73.9609 7.27734C73.9609 7.27945 73.9586 7.28155 73.9586 7.28366C73.9609 7.29209 73.9678 7.30052 73.9955 7.29419C73.9978 7.29419 74.0001 7.29209 74.0024 7.29209C74.0232 7.28366 74.0555 7.27313 74.0809 7.25838C74.1594 7.28366 74.2402 7.30684 74.3256 7.33001C74.3141 7.34265 74.2956 7.35951 74.291 7.37426C74.2887 7.37847 74.2887 7.38058 74.2887 7.38269C74.291 7.39111 74.3025 7.39743 74.3279 7.39111C74.3302 7.39111 74.3348 7.38901 74.3371 7.38901C74.3648 7.37847 74.3879 7.36162 74.4041 7.34898C74.4733 7.36794 74.5472 7.38479 74.6211 7.39954C74.6118 7.41218 74.6003 7.42904 74.5934 7.44168C74.5911 7.44589 74.5888 7.45853 74.6072 7.46275C74.6165 7.46486 74.628 7.46275 74.6372 7.46064C74.6396 7.46064 74.6419 7.45854 74.6465 7.45854C74.6742 7.44589 74.6926 7.43115 74.7065 7.4185C74.7919 7.43536 74.8819 7.45432 74.972 7.46907C74.9674 7.4775 74.9581 7.49225 74.9535 7.50699C74.9535 7.51121 74.9512 7.51542 74.9535 7.51964C74.9281 7.53438 74.9027 7.54913 74.875 7.56388C74.8496 7.57652 74.8242 7.58706 74.7942 7.5997C74.7896 7.60181 74.7827 7.60391 74.7781 7.60602C74.7619 7.60391 74.748 7.5997 74.7342 7.59759C74.7457 7.58706 74.7688 7.5681 74.7734 7.55335C74.7758 7.54913 74.7734 7.54492 74.7711 7.54281C74.7642 7.53438 74.7457 7.53438 74.7273 7.5386C74.695 7.54913 74.6603 7.5681 74.6419 7.58074C74.5726 7.5681 74.5057 7.55335 74.4387 7.5386C74.4503 7.52596 74.4687 7.51121 74.4756 7.49435C74.4756 7.49225 74.4756 7.49225 74.4756 7.49225C74.478 7.48593 74.4756 7.47961 74.4687 7.4775C74.4618 7.47539 74.4503 7.4775 74.441 7.4796C74.4087 7.48803 74.3718 7.5091 74.3533 7.51964C74.2725 7.50067 74.1963 7.48171 74.1225 7.46275C74.1363 7.45011 74.1548 7.43325 74.1617 7.4164C74.1617 7.4164 74.1617 7.4164 74.164 7.41429C74.1663 7.40586 74.1663 7.40165 74.1594 7.39954C74.1525 7.39743 74.1432 7.39954 74.1317 7.40165C74.1017 7.41218 74.0647 7.42904 74.044 7.44168C73.9539 7.4164 73.8662 7.39111 73.7831 7.36162C73.7854 7.36162 73.7854 7.35951 73.7854 7.3574L73.7877 7.3553C73.7877 7.35319 73.7877 7.35108 73.79 7.34898C73.7946 7.33633 73.8131 7.31948 73.8224 7.30473C73.8224 7.30473 73.8223 7.30262 73.8247 7.30262C73.8293 7.28998 73.8108 7.28787 73.79 7.29209C73.7877 7.29209 73.7854 7.29419 73.7831 7.29419C73.7485 7.30473 73.7277 7.32158 73.7115 7.33633C73.6192 7.30473 73.5315 7.27102 73.4507 7.23309C73.4553 7.22256 73.4576 7.20781 73.4645 7.19517C73.4692 7.18674 73.4738 7.17831 73.4784 7.1741L73.483 7.16989H73.4807C73.4807 7.16778 73.4807 7.16778 73.4807 7.16778C73.483 7.16567 73.483 7.16357 73.4853 7.16146C73.4853 7.15935 73.4876 7.15724 73.4876 7.15724C73.4922 7.1446 73.4738 7.1446 73.4576 7.14671H73.4553C73.453 7.14671 73.4507 7.14882 73.4484 7.14882C73.4438 7.15092 73.4415 7.15092 73.4368 7.15303C73.423 7.15724 73.4161 7.16357 73.4114 7.16567C73.3976 7.17621 73.3814 7.18885 73.3676 7.20149C73.2637 7.15303 73.1714 7.09825 73.0883 7.04136C73.0883 7.04136 73.0883 7.04136 73.0883 7.03926C73.0975 7.01819 73.1183 6.9929 73.1298 6.96973C73.1321 6.96341 73.1344 6.95919 73.1367 6.95498C73.1414 6.94444 73.1367 6.94023 73.1206 6.94023C73.1136 6.94234 73.109 6.94234 73.1044 6.94444C73.0998 6.94444 73.0975 6.94655 73.0952 6.94866H73.0929C73.0813 6.95287 73.0721 6.9613 73.0721 6.9613C73.0582 6.96973 73.0421 6.98237 73.0259 6.99501C73.0005 6.97184 72.9867 6.92759 72.9844 6.87702C73.0052 6.85174 73.0305 6.81803 73.0559 6.78432Z" fill="#074989"/>
<path d="M72.8897 7.06451C73.229 7.35948 73.8407 7.55543 74.6141 7.68395C74.5795 7.6987 74.5448 7.70923 74.4963 7.72187C74.4756 7.72609 74.4548 7.7303 74.434 7.73452C74.4202 7.71134 74.404 7.69448 74.3925 7.68606C74.3809 7.67552 74.3602 7.66709 74.3417 7.67763C74.3186 7.68816 74.3394 7.71977 74.3463 7.73241C74.3486 7.73662 74.3486 7.74294 74.3509 7.74926C74.2747 7.7598 74.2009 7.76612 74.1247 7.76823C74.1432 7.67552 74.097 7.61653 74.0739 7.59757C74.0577 7.58492 74.0347 7.5765 74.0139 7.58914C73.9862 7.60389 74.0208 7.63338 74.0254 7.64813C74.0324 7.6692 74.0323 7.71345 74.0162 7.76823C73.9354 7.76401 73.8523 7.75348 73.7715 7.73662C73.8154 7.61442 73.7507 7.53014 73.723 7.50908C73.7068 7.49643 73.6792 7.48801 73.6561 7.50065C73.6261 7.5175 73.6676 7.53647 73.6745 7.55121C73.6838 7.5765 73.6999 7.63549 73.6653 7.71134C73.6607 7.71134 73.6584 7.70923 73.6538 7.70923C73.566 7.68395 73.4852 7.65656 73.4091 7.62706C73.476 7.49643 73.4021 7.41637 73.379 7.39319C73.3629 7.37845 73.3398 7.37002 73.3144 7.38266C73.2821 7.39952 73.3236 7.42058 73.326 7.43533C73.3329 7.46062 73.3375 7.5175 73.3075 7.58492C73.2221 7.547 73.1436 7.50486 73.0697 7.4564C73.1505 7.31735 73.0766 7.24782 73.0536 7.22253C73.0397 7.20778 73.0166 7.19936 72.9889 7.212C72.9566 7.22885 72.9958 7.24782 73.0005 7.26467C73.0074 7.28996 73.0074 7.33841 72.9797 7.3953C72.9312 7.3637 72.8827 7.33209 72.8389 7.29838C72.8412 7.23096 72.855 7.1509 72.8897 7.06451Z" fill="#074989"/>
<path d="M79.2566 4.51514C79.2428 4.50039 79.222 4.48986 79.2035 4.5025C79.192 4.51093 79.1943 4.52567 79.1989 4.54042C79.1412 4.5636 79.0789 4.58467 79.0073 4.60574C78.9865 4.54885 78.9427 4.51725 78.9242 4.50461C78.9057 4.48986 78.8803 4.48354 78.8619 4.49828C78.8365 4.51725 78.8826 4.53621 78.8896 4.55096C78.8988 4.56781 78.9103 4.5952 78.915 4.63102C78.848 4.64998 78.7811 4.66473 78.7164 4.67737C78.7095 4.55728 78.6172 4.50671 78.5849 4.48775C78.5618 4.47511 78.5318 4.46879 78.5133 4.48564C78.4879 4.50461 78.541 4.52146 78.5525 4.53621C78.5756 4.5636 78.6033 4.62259 78.5987 4.69844C78.5041 4.7153 78.4094 4.73005 78.3101 4.74269C78.3194 4.57203 78.1924 4.52146 78.1462 4.50039C78.1185 4.48775 78.0816 4.48143 78.0585 4.50039C78.0308 4.52357 78.0931 4.53832 78.107 4.55517C78.1347 4.58467 78.1647 4.66263 78.1601 4.75744C78.0054 4.77429 77.8669 4.78483 77.7561 4.79115C77.7492 4.60363 77.5714 4.55939 77.5114 4.54464C77.4768 4.5341 77.4329 4.5341 77.4098 4.55517C77.3798 4.58046 77.4583 4.58888 77.4791 4.60363C77.5206 4.63313 77.5807 4.69844 77.5876 4.79536C77.5206 4.79536 77.456 4.79325 77.3937 4.79325C77.3844 4.79325 77.3729 4.79325 77.3637 4.79325C77.3106 4.77851 77.2621 4.75533 77.2159 4.72583C77.1213 4.66263 77.0728 4.58678 77.0566 4.50671C77.9431 4.41401 78.728 4.39715 79.3859 4.45193C79.3443 4.47511 79.3028 4.49618 79.2566 4.51514Z" fill="#074989"/>
<path d="M79.6421 4.23914C79.6398 4.24125 79.6352 4.24336 79.6329 4.24547C79.6075 4.26443 79.5705 4.30025 79.5544 4.3171C79.4944 4.31078 79.4343 4.30446 79.372 4.30025C79.3882 4.27707 79.4043 4.25179 79.4113 4.22861C79.4136 4.21808 79.4182 4.21175 79.4089 4.20754C79.3974 4.20543 79.3836 4.21386 79.3766 4.22018C79.3489 4.23914 79.312 4.27707 79.2935 4.29603C79.215 4.29182 79.1319 4.2876 79.0511 4.28339C79.0511 4.28339 79.0511 4.28339 79.0511 4.28128V4.27918C79.0511 4.27918 79.0511 4.27918 79.0511 4.27707C79.0488 4.26653 79.0719 4.23072 79.0788 4.20543C79.0811 4.19701 79.0788 4.19068 79.0719 4.18858C79.0604 4.18647 79.0465 4.19069 79.0327 4.19701C79.0211 4.20543 79.0119 4.21386 79.005 4.22229C78.9865 4.24125 78.975 4.26021 78.9611 4.27707C78.8618 4.27496 78.7603 4.27286 78.6564 4.27286C78.6564 4.24968 78.6518 4.2244 78.6656 4.20122C78.6656 4.19701 78.6702 4.19279 78.6725 4.19069C78.6702 4.19069 78.6702 4.19069 78.6679 4.19069C78.6679 4.18858 78.6679 4.18647 78.6702 4.18436C78.6749 4.17594 78.6725 4.16962 78.6633 4.16751C78.6495 4.1654 78.6333 4.17383 78.6218 4.18015C78.6148 4.18647 78.6079 4.18858 78.6056 4.1949C78.6033 4.19701 78.601 4.19911 78.5987 4.20122C78.5941 4.20754 78.5894 4.20965 78.5871 4.21386C78.5733 4.23493 78.5594 4.25811 78.5502 4.27707C78.4025 4.27918 78.2524 4.28339 78.0954 4.29182C78.0931 4.26654 78.1 4.2265 78.0908 4.20122C78.0908 4.19701 78.0885 4.19279 78.0793 4.19069C78.0677 4.18858 78.0539 4.1949 78.0446 4.19911C78.0331 4.20754 78.0262 4.21175 78.0216 4.21808C78.0193 4.22018 78.0169 4.22229 78.0169 4.2244C78.01 4.23072 78.0077 4.23282 78.0077 4.23704C77.9962 4.25179 77.9823 4.27918 77.9708 4.29814C77.7399 4.31289 77.4975 4.33185 77.2482 4.35924C77.2482 4.34871 77.2482 4.33396 77.2482 4.3171C77.2459 4.29814 77.2459 4.28128 77.2298 4.27496C77.2274 4.27286 77.2251 4.27286 77.2205 4.27075C77.209 4.26864 77.1951 4.27496 77.1859 4.27918C77.1859 4.27918 77.1859 4.27918 77.1836 4.27918C77.1744 4.2855 77.1651 4.29182 77.1582 4.30025C77.1582 4.30025 77.1582 4.30025 77.1582 4.30235C77.1513 4.30867 77.149 4.31289 77.149 4.31499C77.1374 4.33185 77.1259 4.35503 77.1213 4.37188C77.0982 4.37399 77.0751 4.3782 77.052 4.38031C77.0635 4.29814 77.1005 4.21386 77.1443 4.13801C77.1443 4.1359 77.1467 4.1338 77.1467 4.13169C77.3729 4.10219 77.5968 4.07902 77.8092 4.06216C77.7953 4.07691 77.7792 4.09587 77.7699 4.10851C77.7676 4.11062 77.7653 4.11694 77.763 4.12116C77.7607 4.12748 77.7584 4.1359 77.7607 4.14223C77.763 4.14644 77.7676 4.14644 77.7722 4.14855C77.7815 4.15065 77.793 4.14644 77.7999 4.14223C77.8138 4.13801 77.8207 4.12958 77.83 4.12326C77.8623 4.09798 77.8946 4.0727 77.9292 4.04952C78.1047 4.03688 78.2755 4.02634 78.4394 4.02002C78.4371 4.02213 78.4371 4.02213 78.4348 4.02424C78.4209 4.03899 78.4071 4.05584 78.3978 4.06848C78.3955 4.0727 78.3909 4.07691 78.3886 4.08534C78.3863 4.09166 78.384 4.09798 78.3863 4.1043C78.3886 4.10851 78.3909 4.11062 78.3955 4.11273C78.4071 4.11484 78.4232 4.10851 78.4325 4.10009C78.4717 4.07691 78.5133 4.04109 78.5479 4.01792C78.6656 4.0137 78.781 4.0137 78.8919 4.0137C78.878 4.03056 78.8595 4.05163 78.848 4.06638C78.8457 4.07059 78.8411 4.07691 78.8388 4.08534C78.8364 4.08955 78.8365 4.09587 78.8365 4.09798C78.8365 4.10009 78.8341 4.11062 78.8457 4.11273C78.8457 4.11273 78.848 4.11273 78.8503 4.11484C78.8665 4.11484 78.878 4.10641 78.8895 4.09798C78.8942 4.09587 78.8965 4.09166 78.8988 4.08955C78.9011 4.08955 78.9011 4.08955 78.9011 4.08745C78.9011 4.08745 78.9011 4.08745 78.9034 4.08745C78.9034 4.08745 78.9034 4.08534 78.9057 4.08534C78.908 4.08323 78.908 4.08112 78.9103 4.08112C78.9103 4.08112 78.9103 4.08112 78.9126 4.08112C78.938 4.05795 78.968 4.03688 78.998 4.01581C79.0904 4.01792 79.1804 4.02002 79.2681 4.02424C79.2543 4.0432 79.2358 4.06638 79.2266 4.08534C79.2243 4.08955 79.2243 4.09587 79.2243 4.10009C79.2243 4.10641 79.2289 4.11062 79.2358 4.11273C79.245 4.11694 79.2635 4.11062 79.2751 4.09798C79.2981 4.07902 79.3305 4.05163 79.3559 4.02634C79.432 4.03267 79.5059 4.03688 79.5775 4.0432C79.5613 4.06848 79.5382 4.10009 79.5359 4.12537C79.5382 4.13169 79.5405 4.1359 79.5451 4.13801C79.5544 4.14223 79.5728 4.1359 79.5844 4.12326C79.5959 4.11273 79.6098 4.10219 79.619 4.08955C79.6306 4.07691 79.6421 4.06216 79.6536 4.04952C79.679 4.05163 79.7021 4.05584 79.7275 4.05795C79.7114 4.12326 79.686 4.18015 79.6421 4.23914Z" fill="#074989"/>
<path d="M77.248 3.99683C77.3288 3.90413 77.4281 3.81775 77.5204 3.73347C77.562 3.70819 77.6036 3.67869 77.6451 3.64708C77.7813 3.63234 77.9152 3.62391 78.0445 3.61969C77.9152 3.70819 77.779 3.77771 77.7097 3.8051C77.6705 3.82196 77.5851 3.83882 77.5782 3.85988C77.5735 3.87674 77.6174 3.87042 77.6636 3.85778C77.7421 3.8346 77.966 3.77561 78.2038 3.61337C78.213 3.61337 78.2245 3.61337 78.2338 3.61337C78.2776 3.61337 78.3192 3.61127 78.3607 3.61127C78.46 3.61127 78.5616 3.61337 78.6608 3.61759C78.5569 3.6829 78.4531 3.73136 78.393 3.75665C78.3561 3.77139 78.2799 3.78404 78.2753 3.8051C78.2707 3.82196 78.3099 3.81775 78.3515 3.80721C78.4161 3.78825 78.5893 3.744 78.7832 3.62391C78.8478 3.62812 78.9125 3.63234 78.9771 3.64076C79.0094 3.64498 79.0417 3.64708 79.0717 3.6513C78.9979 3.69344 78.9309 3.72504 78.8894 3.744C78.857 3.75665 78.7855 3.76929 78.7809 3.79036C78.7763 3.8051 78.8132 3.803 78.8524 3.79246C78.9032 3.77771 79.0302 3.74611 79.1756 3.66605C79.2587 3.67869 79.3349 3.69344 79.4018 3.71029C79.3741 3.72504 79.3511 3.73558 79.3326 3.744C79.3003 3.75875 79.231 3.77139 79.2287 3.79246C79.2264 3.80721 79.261 3.803 79.298 3.79246C79.3303 3.78193 79.3926 3.76297 79.4688 3.72926C79.5011 3.73768 79.5311 3.74822 79.5588 3.76086C79.5796 3.76929 79.6004 3.77771 79.6165 3.78614C79.5911 3.79668 79.5704 3.80721 79.5681 3.81775C79.5681 3.83249 79.605 3.82617 79.6419 3.81143C79.6465 3.80932 79.6512 3.80932 79.6558 3.80721C79.7204 3.84514 79.7458 3.88095 79.7527 3.92099C79.0533 3.85146 78.2107 3.87674 77.248 3.99683Z" fill="#074989"/>
<path d="M73.139 0.24231C73.1598 0.244416 73.1829 0.24863 73.2222 0.261272C73.2776 0.280234 73.303 0.305517 73.3307 0.347656C73.2729 0.408757 73.2337 0.457216 73.2129 0.484606C73.1852 0.522531 73.1714 0.556242 73.2037 0.552028C73.2452 0.547814 73.2822 0.478285 73.3168 0.448788C73.3283 0.438254 73.3468 0.421398 73.363 0.404543C73.3907 0.455109 73.4068 0.499355 73.4115 0.545707C73.2337 0.684764 73.1483 0.798538 73.1113 0.846997C73.0836 0.882815 73.0698 0.918633 73.1021 0.914419C73.1437 0.910205 73.1806 0.842784 73.2129 0.81118C73.2522 0.773255 73.3214 0.714261 73.4091 0.651053C73.4022 0.718475 73.3861 0.794324 73.363 0.876494C73.0744 1.05769 72.9498 1.21992 72.9036 1.27892C72.8782 1.31474 72.862 1.34845 72.8943 1.34423C72.9382 1.34213 72.9728 1.2747 73.0075 1.24521C73.0652 1.19253 73.176 1.10194 73.3214 1.00923C73.3168 1.01977 73.3145 1.02819 73.3122 1.03662C73.296 1.08087 73.2729 1.123 73.2475 1.17146C73.2198 1.22414 73.1852 1.28102 73.1437 1.34002C73.0352 1.40744 72.9521 1.47275 72.8897 1.52964C72.8482 1.51279 72.802 1.49172 72.7512 1.47275C72.9982 1.02819 73.1252 0.613129 73.139 0.24231Z" fill="#074989"/>
<path d="M72.5756 1.0029C72.5549 1.0029 72.5433 1.0029 72.5133 1.00501C72.5087 1.00501 72.4902 1.00711 72.4879 1.00711C72.5179 0.922837 72.5433 0.842774 72.5641 0.762711C72.5987 0.747962 72.6472 0.731107 72.6795 0.703717C72.6864 0.699503 72.6911 0.693182 72.6934 0.688968C72.7003 0.678434 72.7026 0.665792 72.6772 0.665792C72.6726 0.665792 72.668 0.665792 72.6611 0.667899C72.6357 0.672113 72.6056 0.680541 72.5803 0.686861C72.5941 0.623654 72.6033 0.560446 72.6103 0.499345C72.638 0.484596 72.668 0.471955 72.698 0.455099C72.7072 0.448779 72.7211 0.440351 72.728 0.429816C72.7303 0.425602 72.7326 0.421389 72.7326 0.419282C72.7326 0.408747 72.7234 0.404533 72.7095 0.404533C72.7072 0.404533 72.7026 0.404533 72.7003 0.40664C72.6749 0.410854 72.6426 0.421389 72.6172 0.429816C72.6195 0.381357 72.6195 0.335005 72.6195 0.286545C72.6518 0.278118 72.6864 0.265476 72.7188 0.257048C72.7557 0.248621 72.7903 0.2423 72.825 0.238086C72.8919 0.229658 72.9473 0.235979 72.9473 0.235979C72.9473 0.286545 72.945 0.339218 72.9404 0.393999C72.9127 0.404533 72.8734 0.419282 72.8411 0.440351C72.8296 0.448779 72.8203 0.455099 72.8157 0.46142C72.8088 0.471955 72.8203 0.478276 72.8319 0.478276C72.8434 0.480383 72.8596 0.478276 72.8781 0.476169C72.8988 0.474062 72.9196 0.469848 72.9335 0.467741C72.9242 0.535163 72.9127 0.602584 72.8965 0.672113C72.8665 0.684754 72.825 0.699503 72.7926 0.720572C72.7788 0.729 72.7695 0.735321 72.7649 0.743748C72.758 0.754283 72.7672 0.758497 72.7811 0.760604C72.7926 0.760604 72.8088 0.760604 72.825 0.758497C72.8457 0.75639 72.8642 0.752176 72.8781 0.750069C72.855 0.83856 72.825 0.929158 72.7926 1.01976C72.788 1.02186 72.7857 1.02186 72.7834 1.02397L72.7811 1.02608L72.7788 1.02818C72.7557 1.04715 72.7072 1.064 72.668 1.08718C72.6564 1.0935 72.6472 1.09982 72.6449 1.10614C72.638 1.11667 72.6403 1.1251 72.6472 1.12932C72.6564 1.13142 72.6657 1.13353 72.6749 1.13142C72.7003 1.12721 72.7303 1.11878 72.7557 1.11035C72.7118 1.21781 72.6864 1.27891 72.6264 1.39268C72.6195 1.40954 72.6103 1.42218 72.6033 1.43693C72.541 1.41796 72.4741 1.40322 72.4048 1.39268C72.414 1.38847 72.4256 1.38425 72.4325 1.37793C72.4487 1.3674 72.4602 1.35265 72.4602 1.35265C72.4648 1.34212 72.4625 1.33579 72.4464 1.33369C72.4441 1.33369 72.4279 1.33158 72.4256 1.33158C72.4002 1.33158 72.3794 1.32526 72.3586 1.31894C72.4094 1.21991 72.4164 1.19252 72.4556 1.09561C72.4833 1.08718 72.5156 1.07875 72.5479 1.064C72.5572 1.05979 72.5641 1.05557 72.571 1.04925C72.5803 1.04293 72.5849 1.03661 72.5895 1.03029C72.5941 1.01554 72.5964 1.0029 72.5756 1.0029Z" fill="#074989"/>
<path d="M71.6502 1.28733C71.6549 1.27891 71.6595 1.26627 71.6618 1.25784C71.8442 1.2473 71.9988 1.2768 72.0265 1.3063C72.0427 1.31683 72.0381 1.35476 72.0773 1.34211C72.1073 1.33158 72.1142 1.31262 72.1073 1.29576C72.1027 1.25784 72.0542 1.14196 71.7103 1.15249C71.7357 1.09771 71.7657 1.04082 71.7957 0.983937C71.9804 0.962868 72.1166 0.979723 72.1535 0.998686C72.1743 1.00711 72.1835 1.04082 72.2227 1.02397C72.2527 1.01133 72.2528 0.992365 72.2389 0.977616C72.2204 0.950226 72.135 0.865949 71.8488 0.884912C71.8626 0.859628 71.8765 0.834345 71.8903 0.811169C71.9111 0.775351 71.9342 0.741641 71.9573 0.710037C72.0773 0.691074 72.1743 0.697395 72.2158 0.703716C72.2435 0.705823 72.2735 0.726892 72.3035 0.70793C72.3289 0.693181 72.3174 0.68054 72.2943 0.672112C72.2689 0.65947 72.1904 0.619439 72.0334 0.62576C72.0381 0.619439 72.0427 0.615225 72.0473 0.608904C72.1189 0.539376 72.2089 0.476168 72.3082 0.421388C72.3474 0.396105 72.3982 0.375035 72.4167 0.366608C72.4051 0.663684 72.3197 1.00501 72.1489 1.35897C71.9919 1.34844 71.8488 1.35054 71.7541 1.35897C71.7033 1.36318 71.6595 1.3695 71.6179 1.37372C71.6295 1.34211 71.6387 1.31472 71.6502 1.28733Z" fill="#074989"/>
<path d="M68.9215 6.56731C68.9515 6.55677 68.9839 6.54413 69.0185 6.53571C69.0093 6.54835 69.0023 6.55888 68.9931 6.56731C68.9562 6.60313 68.8869 6.66001 68.7969 6.72112C68.8315 6.66844 68.8731 6.61577 68.9215 6.56731Z" fill="#074989"/>
<path d="M68.8153 7.76614C68.7738 7.75771 68.7437 7.74507 68.7183 7.72611C68.7322 7.70925 68.7391 7.69661 68.746 7.68819C68.7599 7.66922 68.7668 7.64815 68.746 7.65026C68.723 7.65237 68.7068 7.68186 68.6906 7.70083C68.6653 7.67344 68.6468 7.63973 68.6306 7.59969C68.6883 7.54702 68.7183 7.50278 68.7345 7.48171C68.7507 7.45853 68.7576 7.43535 68.7345 7.43746C68.7045 7.43957 68.6837 7.48381 68.6629 7.50278C68.6491 7.51331 68.6329 7.52806 68.6122 7.54492C68.6122 7.54281 68.6098 7.5407 68.6098 7.53649C68.6006 7.5091 68.5937 7.47539 68.5891 7.43957C68.6999 7.35318 68.7507 7.28155 68.7714 7.24995C68.7899 7.22256 68.7968 7.19727 68.7691 7.19938C68.7322 7.20149 68.7114 7.25205 68.686 7.27523C68.6629 7.2963 68.6283 7.32579 68.5821 7.36161C68.5798 7.34054 68.5798 7.31947 68.5798 7.30051C68.5798 7.27734 68.5821 7.25416 68.5845 7.22888C68.7714 7.10246 68.8476 6.9929 68.8776 6.94865C68.8984 6.91916 68.9053 6.88966 68.8753 6.89177C68.8361 6.89387 68.8107 6.95076 68.783 6.97815C68.7484 7.00976 68.686 7.06032 68.6052 7.11721C68.626 7.03925 68.6583 6.95919 68.6976 6.88123C68.9561 6.72953 69.0508 6.59048 69.0854 6.5378C69.09 6.52938 69.0946 6.52095 69.0992 6.51252C69.12 6.5062 69.1408 6.50199 69.1616 6.49777C69.1293 6.54623 69.0992 6.59469 69.0715 6.64104C68.8153 7.06664 68.7368 7.448 68.8153 7.76614Z" fill="#074989"/>
<path d="M69.1177 7.14881C69.1177 7.14881 69.1315 7.14881 69.1338 7.14881C69.1477 7.14881 69.1639 7.15092 69.18 7.15303C69.1662 7.21202 69.1546 7.27101 69.1477 7.3279C69.1315 7.33422 69.1108 7.33844 69.0923 7.34897C69.0877 7.35318 69.0831 7.35529 69.0784 7.3574C69.0738 7.36161 69.0715 7.36372 69.0692 7.36793C69.0646 7.37425 69.0623 7.38479 69.0854 7.38479C69.0946 7.38479 69.1108 7.38479 69.1246 7.38268C69.1315 7.38268 69.1362 7.38057 69.1431 7.38057C69.1408 7.42903 69.1408 7.47539 69.1431 7.52174C69.1223 7.53017 69.0923 7.54281 69.0715 7.55756C69.0692 7.55966 69.0669 7.56177 69.0646 7.56598C69.06 7.5723 69.06 7.58495 69.0831 7.58284C69.0854 7.58284 69.0854 7.58284 69.0877 7.58284C69.1085 7.58284 69.1269 7.57652 69.1454 7.5723C69.15 7.60812 69.1569 7.64394 69.1639 7.67765C69.1477 7.68608 69.1292 7.69451 69.1131 7.70293C69.1085 7.70504 69.0992 7.71136 69.0969 7.71768C69.0946 7.7219 69.0946 7.724 69.0946 7.72611C69.0969 7.73454 69.1061 7.73664 69.12 7.73454C69.12 7.73454 69.12 7.73454 69.1223 7.73454C69.1431 7.73243 69.1639 7.72611 69.18 7.7219C69.1823 7.73032 69.1846 7.73875 69.1869 7.74718C69.1223 7.76403 69.0507 7.77246 68.9676 7.77457C68.9653 7.76403 68.9607 7.7535 68.9584 7.74296C68.9769 7.73664 69 7.72822 69.0184 7.71557C69.0254 7.71136 69.03 7.70715 69.0323 7.70293C69.0369 7.69451 69.0323 7.69029 69.023 7.69029C69.0138 7.68818 69.0069 7.68818 68.9977 7.69029C68.9815 7.69029 68.9607 7.69451 68.9492 7.69661C68.9399 7.65869 68.9353 7.62076 68.933 7.58284C68.9515 7.57441 68.9769 7.56598 68.9953 7.55334C69.0023 7.54913 69.0092 7.54491 69.0115 7.53859C69.0161 7.53227 69.0092 7.52806 69.0023 7.52595C68.9953 7.52384 68.9861 7.52595 68.9769 7.52595C68.9607 7.52806 68.9422 7.53017 68.9284 7.53227C68.9261 7.48381 68.9284 7.43114 68.933 7.37847L68.9399 7.37425C68.9515 7.36372 68.9815 7.35318 69.0069 7.33844C69.0161 7.33422 69.0184 7.33001 69.0207 7.32579C69.0253 7.31737 69.023 7.31105 69.0115 7.30894C69.0046 7.30683 69 7.30683 68.993 7.30683C68.9746 7.30894 68.9561 7.31526 68.9399 7.31947C68.9492 7.25627 68.963 7.19306 68.9815 7.12774C69.0069 7.10878 69.0369 7.0856 69.0577 7.07928L69.0692 7.07086C69.0715 7.06875 69.0738 7.06875 69.0784 7.06664C69.0877 7.06243 69.0923 7.05821 69.0946 7.05189C69.0992 7.04347 69.0946 7.03925 69.09 7.03504C69.09 7.03504 69.0784 7.03293 69.0738 7.03504C69.0715 7.03504 69.0531 7.03925 69.0507 7.03925C69.0369 7.04347 69.0207 7.04768 69.0046 7.054C69.0346 6.9634 69.0761 6.86859 69.1269 6.76957C69.1592 6.7485 69.1962 6.74218 69.2308 6.71689C69.2377 6.71268 69.2447 6.70847 69.247 6.70214C69.2493 6.69793 69.2493 6.69372 69.2446 6.6895C69.2377 6.68529 69.2054 6.6895 69.2054 6.6895C69.1939 6.69161 69.1731 6.69793 69.1569 6.70214C69.1685 6.68318 69.1939 6.64526 69.2031 6.6263C69.2216 6.59258 69.2446 6.55887 69.2654 6.52516C69.2654 6.52516 69.4732 6.47038 69.487 6.4746C69.4593 6.52095 69.4293 6.56519 69.4039 6.61155C69.367 6.67475 69.3347 6.73796 69.3047 6.79906C69.2931 6.80117 69.277 6.80328 69.2631 6.80749C69.2608 6.80749 69.2516 6.8096 69.2446 6.81381C69.2377 6.81803 69.2308 6.82224 69.2239 6.82645C69.2193 6.83067 69.2146 6.83488 69.2123 6.83909C69.2077 6.84331 69.2077 6.84963 69.2169 6.85174C69.2308 6.86227 69.2585 6.86227 69.2723 6.86648C69.24 6.94233 69.2123 7.01608 69.1939 7.08771C69.18 7.08982 69.1639 7.09403 69.15 7.09825C69.1454 7.09825 69.1362 7.10246 69.1292 7.10667C69.1246 7.10878 69.1177 7.11299 69.1154 7.1151C69.1154 7.11721 69.1061 7.12142 69.1015 7.12774C69.1015 7.12985 69.1015 7.12985 69.1015 7.13196C69.0992 7.14249 69.1015 7.14881 69.1177 7.14881Z" fill="#074989"/>
<path d="M69.8818 6.65368L69.8795 6.66C69.7133 6.68318 69.6556 6.60101 69.6417 6.5673C69.6348 6.55676 69.644 6.52726 69.6209 6.53359C69.6025 6.53991 69.5955 6.55465 69.5955 6.5673C69.5909 6.60101 69.5655 6.74849 69.831 6.75481C69.8195 6.7822 69.8079 6.80749 69.7987 6.82645L69.7802 6.87069C69.771 6.88966 69.7641 6.90862 69.7571 6.92758V6.92969C69.7548 6.93601 69.7502 6.94233 69.7479 6.95076C69.5794 6.98868 69.5101 6.91494 69.494 6.88544C69.487 6.87702 69.4917 6.85173 69.4709 6.85805C69.4547 6.86227 69.4501 6.87491 69.4524 6.88755C69.4524 6.91494 69.4432 7.04557 69.6971 7.03925C69.6994 7.03925 69.7017 7.03925 69.7063 7.03714C69.6971 7.05821 69.6902 7.07296 69.6879 7.07507C69.6694 7.1151 69.6533 7.15513 69.6371 7.19306C69.5078 7.21412 69.4339 7.16356 69.4109 7.14038C69.3993 7.13406 69.3993 7.11088 69.3785 7.11721C69.3624 7.12353 69.3624 7.13406 69.367 7.1446C69.3739 7.16777 69.4016 7.2689 69.6071 7.26469C69.5909 7.30262 69.5748 7.34054 69.5586 7.37847C69.4686 7.38479 69.4039 7.3574 69.3808 7.34265C69.3693 7.33633 69.3624 7.31736 69.3416 7.32579C69.3278 7.33211 69.3278 7.34265 69.337 7.35107C69.3485 7.36793 69.3878 7.43114 69.5309 7.43746C69.5309 7.43957 69.5286 7.44167 69.5286 7.44378C69.5101 7.4796 69.4917 7.51331 69.4709 7.54281C69.4316 7.53859 69.4039 7.53227 69.3901 7.52595C69.3762 7.52384 69.3647 7.50699 69.3462 7.51542C69.3324 7.52174 69.337 7.53016 69.3462 7.53649C69.3555 7.54491 69.3809 7.5702 69.4409 7.58284C69.4039 7.62708 69.3601 7.66501 69.3116 7.69451C69.2123 7.38057 69.3024 7.00132 69.5378 6.59679C69.5609 6.55465 69.5863 6.51462 69.614 6.47248C69.6186 6.46406 69.6232 6.45984 69.6279 6.45352C69.7179 6.46827 69.8287 6.51462 69.9095 6.57362C69.9003 6.60311 69.891 6.6305 69.8818 6.65368Z" fill="#074989"/>
</g>
<defs>
<clipPath id="clip0">
<rect width="80" height="8" fill="white"/>
</clipPath>
</defs>
</svg>
