<?xml version="1.0" encoding="utf-8"?>
<!-- Generator: Adobe Illustrator 17.0.0, SVG Export Plug-In . SVG Version: 6.00 Build 0)  -->
<!DOCTYPE svg PUBLIC "-//W3C//DTD SVG 1.1//EN" "http://www.w3.org/Graphics/SVG/1.1/DTD/svg11.dtd">
<svg version="1.1" id="Слой_1" xmlns="http://www.w3.org/2000/svg" xmlns:xlink="http://www.w3.org/1999/xlink" x="0px" y="0px"
	 width="689.957px" height="325.666px" viewBox="0 0 689.957 325.666" enable-background="new 0 0 689.957 325.666"
	 xml:space="preserve">
<g>
	<defs>
		<rect id="SVGID_1_" width="689.957" height="325.666"/>
	</defs>
	<clipPath id="SVGID_2_">
		<use xlink:href="#SVGID_1_"  overflow="visible"/>
	</clipPath>
	<path clip-path="url(#SVGID_2_)" fill="#C10033" d="M312.047,61.565c-27.387,0-43.115,11.774-43.115,32.306
		c0,20.309,15.728,32.075,43.115,32.075c27.401,0,43.062-11.766,43.062-32.075C355.109,73.339,339.448,61.565,312.047,61.565
		 M312.047,111.045c-14.974,0-22.557-5.75-22.557-17.174c0-11.57,7.583-17.368,22.557-17.368c14.977,0,22.612,5.798,22.612,17.368
		C334.659,105.295,327.024,111.045,312.047,111.045"/>
	<path clip-path="url(#SVGID_2_)" fill="#C10033" d="M360.731,63.131v13.727h25.964v42.647c0,4.051,6.186,5.535,11.441,5.535
		c5.244,0,11.452-1.404,11.452-5.535V76.858h25.93V63.131H360.731"/>
	<path clip-path="url(#SVGID_2_)" fill="#C10033" d="M573.666,110.189c-6.357,0-10.719-1.073-13.103-3.032
		c-3.083-2.64-3.438-6.528-3.516-9.51V67.566c0-4.018-5.895-5.325-10.937-5.325c-5.084,0-11.012,1.307-11.012,5.266v29.145
		c0,11.128,3.564,18.917,10.678,23.179c8.785,5.104,24.747,4.918,40.085,4.714h19.144l0.042-2.783v-11.573H573.666"/>
	<path clip-path="url(#SVGID_2_)" fill="#C10033" d="M219.03,105.621c0,10.87,9.144,18.266,24.639,19.537V59.657h34.775V44.515
		h-90.68v15.142h31.266V105.621"/>
	<path clip-path="url(#SVGID_2_)" fill="#C10033" d="M526.213,124.577l-0.535-2.488c-5.102-25.177-33.717-53.954-39.657-58.212
		c-1.91-1.302-3.954-1.636-6.607-1.7c-2.705,0.064-4.815,0.398-6.703,1.7c-5.902,4.258-34.555,33.035-39.588,58.212l-0.584,2.488
		h20.271l0.362-1.797c0.846-3.562,2.143-7.427,3.92-11.415h44.542c1.762,3.988,3.114,7.853,3.868,11.415l0.437,1.797H526.213
		 M464.248,98.438c4.26-6.485,9.418-12.796,15.166-18.416c5.678,5.62,10.79,11.931,15.082,18.416H464.248z"/>
	<path clip-path="url(#SVGID_2_)" fill="#DD9719" d="M144.735,88.204c-0.105-0.34-0.232-0.655-0.363-0.979
		c-11.317,12.908-39.086,21.264-64.076,19.408c-14.726-1.108-41.992-8.71-55.747-17.138c14.526,13.921,31.545,24.504,50.797,30.217
		c22.883,6.802,47.293,6.335,61.049-0.825C146.479,112.077,148.764,99.933,144.735,88.204"/>
	<path clip-path="url(#SVGID_2_)" fill="#184690" d="M113.258,6.978c45.062,26.589,18.249,110.293-17.598,137.167
		c-33.374,25.029-68.856,13.495-76.547-9.566c6.735,9.993,20.065,13.621,31.907,9.645c32.931-13.194,49.894-72.844,52.09-93.567
		c1.463-17.836-0.87-29.805-7.057-37.351c-7.09-7.494-17.965-11.125-33.859-6.137C73.141-1.813,96.557-2.882,113.258,6.978"/>
	<path clip-path="url(#SVGID_2_)" fill="#C10033" d="M138.473,117.701c0.158-0.105,0.363-0.228,0.545-0.348
		c0.017-0.016,0.055-0.04,0.084-0.058c0.926-0.612,1.843-1.29,2.695-2.069c0.391-0.371,0.791-0.741,1.176-1.155
		c17.537-17.787,21.256-67.235-21.922-90.666C105.672,15.068,69.93,3.39,34.285,21.398c-11.791,5.948-23.953,18.32-30.503,35.124
		c4.834-7.976,13.197-13.387,29.675-15.709c16.446-2.069,39.099,0.478,61.272,8.306c14.303,5.269,25.875,11.775,34.9,19.151
		c7.457,6.399,12.26,12.482,14.742,18.955c0.131,0.324,0.258,0.638,0.364,0.978c4.029,11.729,1.744,23.873-8.34,30.683
		c-0.012,0.01,0.014-0.009,0,0c0.465-0.249,0.928-0.498,1.437-0.798c0.079-0.039,0.127-0.08,0.202-0.121
		C138.164,117.884,138.315,117.8,138.473,117.701"/>
	<path clip-path="url(#SVGID_2_)" fill="#DD9719" d="M9.357,84.979c0.823,1.315,2.692,3.545,3.925,4.953
		c8.66-20.347,56.086-33.587,70.064-33.41c-31.42-10.116-62.22-5.286-74.608,5.453C4.245,66.984,2.836,74.499,9.357,84.979"/>
	<path clip-path="url(#SVGID_2_)" fill="#6795CA" d="M101.844,131.153c-25.248-1.414-62.037-11.143-88.082-40.665
		c-0.143-0.178-0.305-0.348-0.481-0.556c-1.232-1.408-3.101-3.638-3.924-4.953c-6.521-10.48-5.113-17.994-0.619-23.004H8.733
		c-0.803,0.726-1.803,1.66-2.936,3.127c-6.685,8.623-7.488,22.615-2.928,37.455c9.932,32.216,53.346,51.591,88.6,46.274
		c22.518-3.394,36.621-16.072,42.486-21.241C121.199,131.21,111.783,131.708,101.844,131.153"/>
	<path clip-path="url(#SVGID_2_)" fill="#C2002F" d="M193.151,206.299L193.151,206.299c-9.437,26.93-2.78,40.467,4.477,47.079
		c6.541,5.904,15.508,8.535,29.099,8.535c6.081,0,10.208-0.436,14.772-1.698c0.043,0.098,5.272,7.682,5.272,7.682h43.067
		c0,0-15.935-23.279-18.655-27.281c0.351-0.399,1.035-1.194,1.035-1.194l0.457-0.58l-0.071,0.09l4.669-7.031l0.078-0.133
		c3.341-5.662,5.423-10.207,7.936-17.394c3.273-9.303,4.857-17.182,4.857-24.065c0-7.123-1.752-13.213-5.224-18.103
		c-5.842-8.248-15.987-12.424-30.143-12.424C225.563,159.782,203.672,176.299,193.151,206.299 M224.583,225.937
		c0-2.263,0.525-5.966,2.559-11.788c3.577-10.191,10.254-22.344,21.732-22.344c2.293,0,3.639,0.468,3.971,0.926
		c0.829,1.176,1.477,6.017-2.002,15.935c-6.67,19.032-15.643,21.227-21.819,21.227c-2.687,0-3.734-0.607-3.885-0.83
		C225.128,229.049,224.583,228.245,224.583,225.937"/>
	<path clip-path="url(#SVGID_2_)" fill="#C2002F" d="M372.042,171.227h-23.448l-17.873,50.947
		c-2.657,7.567-5.905,9.873-13.933,9.873c-1.564,0-2.551-0.215-3.029-0.381c-0.007-0.037-0.016-0.046-0.016-0.084
		c0-0.619,0.147-1.76,0.737-3.466l19.963-56.889h-33.372l-18.895,53.848c-4.565,13.028-1.503,21.42,1.869,26.179
		c3.636,5.127,11.386,11.228,27.655,11.228c25.752,0,41.787-10.06,49.05-30.775l21.21-60.48H372.042z"/>
	<path clip-path="url(#SVGID_2_)" fill="#C2002F" d="M416.844,261.186h36.355l-13.117-89.959h-29.357l-71.872,89.959h40.316
		c0,0,6.427-7.668,14.23-17.006h21.94C416.162,253.565,416.844,261.186,416.844,261.186"/>
	<path clip-path="url(#SVGID_2_)" fill="#C2002F" d="M477.088,171.227h-6.365l-31.49,89.959h34.418c0,0,6.935-19.785,9.403-26.859
		c1.725,7.492,6.179,26.859,6.179,26.859h36.027c0,0-6.113-24.868-7.958-32.415c9.535-4.729,17.106-13.171,20.763-23.637
		c1.383-3.957,2.082-7.869,2.082-11.614c0-5.302-1.434-10.119-4.128-13.963c-3.771-5.289-9.843-8.33-16.669-8.33H477.088z
		 M501.002,202.161c-1.244,1.09-2.744,1.922-3.723,1.922h-3.636c0.289-0.817,0.353-0.959,0.676-1.922H501.002z"/>
	<path clip-path="url(#SVGID_2_)" fill="#C2002F" d="M614.288,171.227h-67.385l-25.29,30.934h30.652
		c-4.645,13.244-20.667,59.025-20.667,59.025h33.336c0,0,17.892-51.059,20.667-59.025h18.221l25.274-30.934H614.288z"/>
	<path clip-path="url(#SVGID_2_)" fill="#C2002F" d="M680.06,171.227h-64.081l-25.279,30.934h35.571
		c-15.806,12.72-40.208,32.382-40.208,32.382l-9.328,26.643h81.906l10.833-30.938H641.49c15.542-12.125,38.284-29.917,38.284-29.917
		l10.183-29.104H680.06z"/>
	<path clip-path="url(#SVGID_2_)" fill="#C2002F" d="M193.151,206.299L193.151,206.299c-9.437,26.93-2.78,40.467,4.477,47.079
		c6.541,5.904,15.508,8.535,29.099,8.535c6.081,0,10.208-0.436,14.772-1.698c0.043,0.098,5.272,7.682,5.272,7.682h43.067
		c0,0-15.935-23.279-18.655-27.281c0.351-0.399,1.035-1.194,1.035-1.194l0.457-0.58l-0.071,0.09l4.669-7.031l0.078-0.133
		c3.341-5.662,5.423-10.207,7.936-17.394c3.273-9.303,4.857-17.182,4.857-24.065c0-7.123-1.752-13.213-5.224-18.103
		c-5.842-8.248-15.987-12.424-30.143-12.424C225.563,159.782,203.672,176.299,193.151,206.299 M224.583,225.937
		c0-2.263,0.525-5.966,2.559-11.788c3.577-10.191,10.254-22.344,21.732-22.344c2.293,0,3.639,0.468,3.971,0.926
		c0.829,1.176,1.477,6.017-2.002,15.935c-6.67,19.032-15.643,21.227-21.819,21.227c-2.687,0-3.734-0.607-3.885-0.83
		C225.128,229.049,224.583,228.245,224.583,225.937"/>
	<path clip-path="url(#SVGID_2_)" fill="#C2002F" d="M372.042,171.227h-23.448l-17.873,50.947
		c-2.657,7.567-5.905,9.873-13.933,9.873c-1.564,0-2.551-0.215-3.029-0.381c-0.007-0.037-0.016-0.046-0.016-0.084
		c0-0.619,0.147-1.76,0.737-3.466l19.963-56.889h-33.372l-18.895,53.848c-4.565,13.028-1.503,21.42,1.869,26.179
		c3.636,5.127,11.386,11.228,27.655,11.228c25.752,0,41.787-10.06,49.05-30.775l21.21-60.48H372.042z"/>
	<path clip-path="url(#SVGID_2_)" fill="#C2002F" d="M416.844,261.186h36.355l-13.117-89.959h-29.357l-71.872,89.959h40.316
		c0,0,6.427-7.668,14.23-17.006h21.94C416.162,253.565,416.844,261.186,416.844,261.186"/>
	<path clip-path="url(#SVGID_2_)" fill="#C2002F" d="M477.088,171.227h-6.365l-31.49,89.959h34.418c0,0,6.935-19.785,9.403-26.859
		c1.725,7.492,6.179,26.859,6.179,26.859h36.027c0,0-6.113-24.868-7.958-32.415c9.535-4.729,17.106-13.171,20.763-23.637
		c1.383-3.957,2.082-7.869,2.082-11.614c0-5.302-1.434-10.119-4.128-13.963c-3.771-5.289-9.843-8.33-16.669-8.33H477.088z
		 M501.002,202.161c-1.244,1.09-2.744,1.922-3.723,1.922h-3.636c0.289-0.817,0.353-0.959,0.676-1.922H501.002z"/>
	<path clip-path="url(#SVGID_2_)" fill="#C2002F" d="M614.288,171.227h-67.385l-25.29,30.934h30.652
		c-4.645,13.244-20.667,59.025-20.667,59.025h33.336c0,0,17.892-51.059,20.667-59.025h18.221l25.274-30.934H614.288z"/>
	<path clip-path="url(#SVGID_2_)" fill="#C2002F" d="M680.06,171.227h-64.081l-25.279,30.934h35.571
		c-15.806,12.72-40.208,32.382-40.208,32.382l-9.328,26.643h81.906l10.833-30.938H641.49c15.542-12.125,38.284-29.917,38.284-29.917
		l10.183-29.104H680.06z"/>
	<path clip-path="url(#SVGID_2_)" fill="#C2002F" d="M198.998,205.109L198.998,205.109c-6.465,18.448-5.572,32.132,2.576,39.572
		c5.13,4.633,12.643,6.696,24.369,6.696c8.041,0,11.883-0.802,18.279-3.227c0.217,0.437,6.038,9.214,6.038,9.214h25.524
		c0,0-12.835-18.72-14.237-20.781c1.982-2.078,3.066-3.414,4.41-5.078l0.253-0.324c0.087-0.1,4.326-6.508,4.326-6.508
		c3.117-5.277,4.964-9.336,7.345-16.129c2.967-8.473,4.463-15.69,4.463-21.736c0-5.694-1.321-10.354-3.948-14.061
		c-4.447-6.267-12.648-9.441-24.39-9.441C227.611,163.306,208.604,177.753,198.998,205.109 M218.624,229.632
		c-2.774-3.932-2.403-11.303,1.107-21.313c4.338-12.341,12.765-27.052,28.356-27.052c4.612,0,7.874,1.322,9.712,3.894
		c2.949,4.155,2.551,11.872-1.115,22.319c-6.11,17.445-15.416,25.923-28.436,25.923
		C223.644,233.403,220.416,232.142,218.624,229.632"/>
	<path clip-path="url(#SVGID_2_)" fill="#C2002F" d="M368.519,174.739h-15.732l-16.212,46.246
		c-3.633,10.358-9.579,14.584-20.573,14.584c-3.004,0-6.969-0.566-8.871-3.248c-1.982-2.789-1.129-6.994-0.054-10.043l16.663-47.539
		h-18.487l-17.229,49.146c-2.823,8.069-2.487,14.918,0.973,19.795c3.834,5.409,11.416,8.274,21.924,8.274
		c22.702,0,36.175-8.285,42.421-26.078l17.927-51.137H368.519z"/>
	<path clip-path="url(#SVGID_2_)" fill="#C2002F" d="M476.308,174.739h-1.377l-26.584,75.924h19.549c0,0,8.848-25.301,9.686-27.676
		h10.107c0.619,2.708,6.35,27.676,6.35,27.676h21.476c0,0-6.49-26.436-7.262-29.598c10.198-3.039,18.696-11.162,22.411-21.756
		c1.129-3.239,1.689-6.388,1.689-9.298c0-3.803-0.967-7.203-2.861-9.892c-2.463-3.474-6.34-5.38-10.928-5.38H476.308z
		 M502.032,191.622c3.251,0,5.61,0.785,6.616,2.201c0.414,0.589,0.614,1.302,0.614,2.141c0,0.76-0.163,1.604-0.5,2.549
		c-1.651,4.754-7.504,9.088-12.254,9.088h-13.541c1.271-3.633,4.912-14.018,5.591-15.979H502.032z"/>
	<path clip-path="url(#SVGID_2_)" fill="#C2002F" d="M609.396,174.739h-59.949l-13.796,16.883h25.731
		c-1.654,4.748-20.656,59.041-20.656,59.041h18.441c0,0,19.799-56.541,20.678-59.041h19.856l13.806-16.883H609.396z"/>
	<path clip-path="url(#SVGID_2_)" fill="#C2002F" d="M676.533,174.739h-58.012l-13.801,16.883h40.691
		c-7.388,5.953-54.163,43.627-54.163,43.627l-5.399,15.414h67.03l5.926-16.889h-38.504c7.58-5.941,52.741-41.213,52.741-41.213
		l6.231-17.822H676.533z"/>
	<path clip-path="url(#SVGID_2_)" fill="#C2002F" d="M422.496,250.663h21.807l-11.078-75.922h-19.9l-60.647,75.922h22.425
		c0,0,6.378-7.608,14.232-17h31.646C421.823,243.064,422.496,250.663,422.496,250.663 M402.141,218.345
		c7.353-8.791,13.846-16.551,15.814-18.904c0.254,2.853,0.924,10.429,1.672,18.904H402.141z"/>
	<path clip-path="url(#SVGID_2_)" d="M193.151,206.299L193.151,206.299c-9.437,26.93-2.78,40.467,4.477,47.079
		c6.541,5.904,15.508,8.535,29.099,8.535c6.081,0,10.208-0.436,14.772-1.698c0.043,0.098,5.272,7.682,5.272,7.682h43.067
		c0,0-15.935-23.279-18.655-27.281c0.351-0.399,1.035-1.194,1.035-1.194l0.457-0.58l-0.071,0.09l4.669-7.031l0.078-0.133
		c3.341-5.662,5.423-10.207,7.936-17.394c3.273-9.303,4.857-17.182,4.857-24.065c0-7.123-1.752-13.213-5.224-18.103
		c-5.842-8.248-15.987-12.424-30.143-12.424C225.563,159.782,203.672,176.299,193.151,206.299 M224.583,225.937
		c0-2.263,0.525-5.966,2.559-11.788c3.577-10.191,10.254-22.344,21.732-22.344c2.293,0,3.639,0.468,3.971,0.926
		c0.829,1.176,1.477,6.017-2.002,15.935c-6.67,19.032-15.643,21.227-21.819,21.227c-2.687,0-3.734-0.607-3.885-0.83
		C225.128,229.049,224.583,228.245,224.583,225.937"/>
	<path clip-path="url(#SVGID_2_)" d="M372.042,171.227h-23.448l-17.873,50.947c-2.657,7.567-5.905,9.873-13.933,9.873
		c-1.564,0-2.551-0.215-3.029-0.381c-0.007-0.037-0.016-0.046-0.016-0.084c0-0.619,0.147-1.76,0.737-3.466l19.963-56.889h-33.372
		l-18.895,53.848c-4.565,13.028-1.503,21.42,1.869,26.179c3.636,5.127,11.386,11.228,27.655,11.228
		c25.752,0,41.787-10.06,49.05-30.775l21.21-60.48H372.042z"/>
	<path clip-path="url(#SVGID_2_)" d="M416.844,261.186h36.355l-13.117-89.959h-29.357l-71.872,89.959h40.316
		c0,0,6.427-7.668,14.23-17.006h21.94C416.162,253.565,416.844,261.186,416.844,261.186"/>
	<path clip-path="url(#SVGID_2_)" d="M477.088,171.227h-6.365l-31.49,89.959h34.418c0,0,6.935-19.785,9.403-26.859
		c1.725,7.492,6.179,26.859,6.179,26.859h36.027c0,0-6.113-24.868-7.958-32.415c9.535-4.729,17.106-13.171,20.763-23.637
		c1.383-3.957,2.082-7.869,2.082-11.614c0-5.302-1.434-10.119-4.128-13.963c-3.771-5.289-9.843-8.33-16.669-8.33H477.088z
		 M501.002,202.161c-1.244,1.09-2.744,1.922-3.723,1.922h-3.636c0.289-0.817,0.353-0.959,0.676-1.922H501.002z"/>
	<path clip-path="url(#SVGID_2_)" d="M614.288,171.227h-67.385l-25.29,30.934h30.652c-4.645,13.244-20.667,59.025-20.667,59.025
		h33.336c0,0,17.892-51.059,20.667-59.025h18.221l25.274-30.934H614.288z"/>
	<path clip-path="url(#SVGID_2_)" d="M680.06,171.227h-64.081l-25.279,30.934h35.571c-15.806,12.72-40.208,32.382-40.208,32.382
		l-9.328,26.643h81.906l10.833-30.938H641.49c15.542-12.125,38.284-29.917,38.284-29.917l10.183-29.104H680.06z"/>
	<path clip-path="url(#SVGID_2_)" d="M193.151,206.299L193.151,206.299c-9.437,26.93-2.78,40.467,4.477,47.079
		c6.541,5.904,15.508,8.535,29.099,8.535c6.081,0,10.208-0.436,14.772-1.698c0.043,0.098,5.272,7.682,5.272,7.682h43.067
		c0,0-15.935-23.279-18.655-27.281c0.351-0.399,1.035-1.194,1.035-1.194l0.457-0.58l-0.071,0.09l4.669-7.031l0.078-0.133
		c3.341-5.662,5.423-10.207,7.936-17.394c3.273-9.303,4.857-17.182,4.857-24.065c0-7.123-1.752-13.213-5.224-18.103
		c-5.842-8.248-15.987-12.424-30.143-12.424C225.563,159.782,203.672,176.299,193.151,206.299 M224.583,225.937
		c0-2.263,0.525-5.966,2.559-11.788c3.577-10.191,10.254-22.344,21.732-22.344c2.293,0,3.639,0.468,3.971,0.926
		c0.829,1.176,1.477,6.017-2.002,15.935c-6.67,19.032-15.643,21.227-21.819,21.227c-2.687,0-3.734-0.607-3.885-0.83
		C225.128,229.049,224.583,228.245,224.583,225.937"/>
	<path clip-path="url(#SVGID_2_)" d="M372.042,171.227h-23.448l-17.873,50.947c-2.657,7.567-5.905,9.873-13.933,9.873
		c-1.564,0-2.551-0.215-3.029-0.381c-0.007-0.037-0.016-0.046-0.016-0.084c0-0.619,0.147-1.76,0.737-3.466l19.963-56.889h-33.372
		l-18.895,53.848c-4.565,13.028-1.503,21.42,1.869,26.179c3.636,5.127,11.386,11.228,27.655,11.228
		c25.752,0,41.787-10.06,49.05-30.775l21.21-60.48H372.042z"/>
	<path clip-path="url(#SVGID_2_)" d="M416.844,261.186h36.355l-13.117-89.959h-29.357l-71.872,89.959h40.316
		c0,0,6.427-7.668,14.23-17.006h21.94C416.162,253.565,416.844,261.186,416.844,261.186"/>
	<path clip-path="url(#SVGID_2_)" d="M477.088,171.227h-6.365l-31.49,89.959h34.418c0,0,6.935-19.785,9.403-26.859
		c1.725,7.492,6.179,26.859,6.179,26.859h36.027c0,0-6.113-24.868-7.958-32.415c9.535-4.729,17.106-13.171,20.763-23.637
		c1.383-3.957,2.082-7.869,2.082-11.614c0-5.302-1.434-10.119-4.128-13.963c-3.771-5.289-9.843-8.33-16.669-8.33H477.088z
		 M501.002,202.161c-1.244,1.09-2.744,1.922-3.723,1.922h-3.636c0.289-0.817,0.353-0.959,0.676-1.922H501.002z"/>
	<path clip-path="url(#SVGID_2_)" d="M614.288,171.227h-67.385l-25.29,30.934h30.652c-4.645,13.244-20.667,59.025-20.667,59.025
		h33.336c0,0,17.892-51.059,20.667-59.025h18.221l25.274-30.934H614.288z"/>
	<path clip-path="url(#SVGID_2_)" d="M680.06,171.227h-64.081l-25.279,30.934h35.571c-15.806,12.72-40.208,32.382-40.208,32.382
		l-9.328,26.643h81.906l10.833-30.938H641.49c15.542-12.125,38.284-29.917,38.284-29.917l10.183-29.104H680.06z"/>
	<path clip-path="url(#SVGID_2_)" fill="#FFFFFF" d="M198.998,205.109L198.998,205.109c-6.465,18.448-5.572,32.132,2.576,39.572
		c5.13,4.633,12.643,6.696,24.369,6.696c8.041,0,11.883-0.802,18.279-3.227c0.217,0.437,6.038,9.214,6.038,9.214h25.524
		c0,0-12.835-18.72-14.237-20.781c1.982-2.078,3.066-3.414,4.41-5.078l0.253-0.324c0.087-0.1,4.326-6.508,4.326-6.508
		c3.117-5.277,4.964-9.336,7.345-16.129c2.967-8.473,4.463-15.69,4.463-21.736c0-5.694-1.321-10.354-3.948-14.061
		c-4.447-6.267-12.648-9.441-24.39-9.441C227.611,163.306,208.604,177.753,198.998,205.109 M218.624,229.632
		c-2.774-3.932-2.403-11.303,1.107-21.313c4.338-12.341,12.765-27.052,28.356-27.052c4.612,0,7.874,1.322,9.712,3.894
		c2.949,4.155,2.551,11.872-1.115,22.319c-6.11,17.445-15.416,25.923-28.436,25.923
		C223.644,233.403,220.416,232.142,218.624,229.632"/>
	<path clip-path="url(#SVGID_2_)" fill="#FFFFFF" d="M368.519,174.739h-15.732l-16.212,46.246
		c-3.633,10.358-9.579,14.584-20.573,14.584c-3.004,0-6.969-0.566-8.871-3.248c-1.982-2.789-1.129-6.994-0.054-10.043l16.663-47.539
		h-18.487l-17.229,49.146c-2.823,8.069-2.487,14.918,0.973,19.795c3.834,5.409,11.416,8.274,21.924,8.274
		c22.702,0,36.175-8.285,42.421-26.078l17.927-51.137H368.519z"/>
	<path clip-path="url(#SVGID_2_)" fill="#FFFFFF" d="M476.308,174.739h-1.377l-26.584,75.924h19.549c0,0,8.848-25.301,9.686-27.676
		h10.107c0.619,2.708,6.35,27.676,6.35,27.676h21.476c0,0-6.49-26.436-7.262-29.598c10.198-3.039,18.696-11.162,22.411-21.756
		c1.129-3.239,1.689-6.388,1.689-9.298c0-3.803-0.967-7.203-2.861-9.892c-2.463-3.474-6.34-5.38-10.928-5.38H476.308z
		 M502.032,191.622c3.251,0,5.61,0.785,6.616,2.201c0.414,0.589,0.614,1.302,0.614,2.141c0,0.76-0.163,1.604-0.5,2.549
		c-1.651,4.754-7.504,9.088-12.254,9.088h-13.541c1.271-3.633,4.912-14.018,5.591-15.979H502.032z"/>
	<path clip-path="url(#SVGID_2_)" fill="#FFFFFF" d="M609.396,174.739h-59.949l-13.796,16.883h25.731
		c-1.654,4.748-20.656,59.041-20.656,59.041h18.441c0,0,19.799-56.541,20.678-59.041h19.856l13.806-16.883H609.396z"/>
	<path clip-path="url(#SVGID_2_)" fill="#FFFFFF" d="M676.533,174.739h-58.012l-13.801,16.883h40.691
		c-7.388,5.953-54.163,43.627-54.163,43.627l-5.399,15.414h67.03l5.926-16.889h-38.504c7.58-5.941,52.741-41.213,52.741-41.213
		l6.231-17.822H676.533z"/>
	<path clip-path="url(#SVGID_2_)" fill="#FFFFFF" d="M422.496,250.663h21.807l-11.078-75.922h-19.9l-60.647,75.922h22.425
		c0,0,6.378-7.608,14.232-17h31.646C421.823,243.064,422.496,250.663,422.496,250.663 M402.141,218.345
		c7.353-8.791,13.846-16.551,15.814-18.904c0.254,2.853,0.924,10.429,1.672,18.904H402.141z"/>
	<polygon clip-path="url(#SVGID_2_)" points="207.048,290.449 207.521,317.487 207.615,317.487 219.433,290.449 229.784,290.449 
		222.505,324.767 215.84,324.767 221.938,296.075 221.89,296.075 209.364,324.767 202.321,324.767 202.179,296.075 202.085,296.075 
		195.987,324.767 189.322,324.767 196.602,290.449 	"/>
	<path clip-path="url(#SVGID_2_)" d="M230.933,313.044c0-10.305,6.476-23.493,20.893-23.493c3.971,0,13.236,1.513,13.236,12.622
		c0,12.1-7.753,23.493-20.894,23.493C240.198,325.666,230.933,324.152,230.933,313.044 M257.782,303.496
		c0-6.192-3.971-7.895-7.232-7.895c-7.563,0-12.337,8.037-12.337,16.12c0,6.192,3.97,7.894,7.232,7.894
		C253.953,319.615,257.782,310.303,257.782,303.496"/>
	<polygon clip-path="url(#SVGID_2_)" points="280.083,324.767 272.945,324.767 278.996,296.357 268.644,296.357 269.873,290.449 
		297.715,290.449 296.486,296.357 286.134,296.357 	"/>
	<path clip-path="url(#SVGID_2_)" d="M295.396,313.044c0-10.305,6.476-23.493,20.893-23.493c3.971,0,13.236,1.513,13.236,12.622
		c0,12.1-7.752,23.493-20.893,23.493C304.661,325.666,295.396,324.152,295.396,313.044 M322.245,303.496
		c0-6.192-3.97-7.895-7.232-7.895c-7.563,0-12.337,8.037-12.337,16.12c0,6.192,3.97,7.894,7.232,7.894
		C318.417,319.615,322.245,310.303,322.245,303.496"/>
	<path clip-path="url(#SVGID_2_)" d="M337.968,324.768h-7.139l7.28-34.318h15.694c5.577,0,8.602,2.931,8.602,7.893
		c0,3.026-2.363,14.04-13.566,14.04h-8.225L337.968,324.768z M341.843,306.475h6.665c5.483,0,6.665-4.397,6.665-6.761
		c0-2.315-1.701-3.356-5.435-3.356h-5.72L341.843,306.475z"/>
	<polygon clip-path="url(#SVGID_2_)" points="373.517,303.449 386.893,303.449 389.635,290.449 396.773,290.449 389.494,324.767 
		382.356,324.767 385.618,309.357 372.24,309.357 368.978,324.767 361.841,324.767 369.12,290.449 376.258,290.449 	"/>
	<path clip-path="url(#SVGID_2_)" d="M408.141,303.449h8.934c5.719,0,9.69,3.025,9.69,8.271c0,8.273-6.853,13.047-14.323,13.047
		h-15.977l7.279-34.318h7.138L408.141,303.449z M404.832,318.858h8.083c3.781,0,6.616-2.695,6.616-6.051
		c0-2.315-1.796-3.45-4.584-3.45h-8.083L404.832,318.858z M437.401,324.767h-7.139l7.281-34.318h7.136L437.401,324.767z"/>
	<polygon clip-path="url(#SVGID_2_)" points="477.041,290.449 475.811,296.357 457.613,296.357 456.101,303.449 472.786,303.449 
		471.51,309.357 454.824,309.357 452.792,318.858 471.747,318.858 470.518,324.767 444.425,324.767 451.704,290.449 	"/>
	<polygon clip-path="url(#SVGID_2_)" points="508.387,290.449 508.859,317.487 508.953,317.487 520.771,290.449 531.122,290.449 
		523.844,324.767 517.179,324.767 523.277,296.075 523.229,296.075 510.702,324.767 503.659,324.767 503.517,296.075 
		503.423,296.075 497.325,324.767 490.66,324.767 497.939,290.449 	"/>
	<path clip-path="url(#SVGID_2_)" d="M555.592,290.449l4.775,34.318h-7.752l-0.709-7.091h-12.621l-3.924,7.091h-7.516l19.476-34.318
		H555.592z M542.404,311.767h9.171l-1.797-13.565h-0.094L542.404,311.767z"/>
	<path clip-path="url(#SVGID_2_)" d="M590.08,301.699c-0.142-2.079-0.426-6.098-6.334-6.098c-7.658,0-11.676,9.029-11.676,16.119
		c0,4.444,1.843,7.895,6.572,7.895c3.969,0,7.278-2.411,9.027-6.618h7.139c-3.026,7.469-8.982,12.669-17.585,12.669
		c-7.563,0-12.433-4.255-12.433-12.48c0-6.523,4.019-23.635,20.185-23.635c9.312,0,12.338,5.815,12.338,10.683
		c0,0.521-0.048,1.134-0.095,1.465H590.08z"/>
	<path clip-path="url(#SVGID_2_)" d="M631.657,290.449l-7.278,34.318h-7.139l6.051-28.41H613.6l-3.12,14.654
		c-1.889,8.887-5.294,14.655-12.053,14.655c-1.607,0-3.073-0.143-4.253-0.521l1.18-5.483c0.378,0.141,1.135,0.284,2.08,0.284
		c3.215,0,4.492-2.27,6.05-9.69l4.208-19.807H631.657z"/>
	<path clip-path="url(#SVGID_2_)" d="M656.099,290.449l4.775,34.318h-7.752l-0.709-7.091h-12.621l-3.924,7.091h-7.516l19.475-34.318
		H656.099z M642.911,311.767h9.171l-1.797-13.565h-0.095L642.911,311.767z"/>
</g>
</svg>
