<?xml version="1.0" encoding="utf-8"?>
<!-- Generator: Adobe Illustrator 19.2.1, SVG Export Plug-In . SVG Version: 6.00 Build 0)  -->
<svg version="1.1" id="Layer_1" xmlns="http://www.w3.org/2000/svg" xmlns:xlink="http://www.w3.org/1999/xlink" x="0px" y="0px"
	 viewBox="0 0 24.3 40" style="enable-background:new 0 0 24.3 40;" xml:space="preserve">
<style type="text/css">
	.st0{fill:#D21E1E;}
</style>
<g>
	<g>
		<path class="st0" d="M0,6.1l0,32.4C0,39.3,0.7,40,1.5,40h21.4c0.8,0,1.5-0.7,1.5-1.5V9.7l0,0V5V2.9c0,0,0.2-2.9-2.9-2.9l-4.7,0
			l0,0c0,0-1.4,0-2.9,1.8l-2.8,2.8h-1c0-0.7-0.5-1.3-1.2-1.4V0.7c0-0.2-0.1-0.3-0.3-0.3H2.9c-0.2,0-0.3,0.1-0.3,0.3v2.6
			C1.9,3.4,1.4,4,1.4,4.7h0C0.7,4.7,0,5.3,0,6.1z M21.8,2.7l0,0.2v0V5v2.1h-9.2V6.7l3.2-3.2l0.1-0.1l0.1-0.1
			c0.5-0.6,0.9-0.8,1.1-0.8h4.5C21.6,2.6,21.7,2.6,21.8,2.7C21.8,2.7,21.8,2.7,21.8,2.7z M4.1,11.8h16.2v23.5H4.1V11.8z"/>
	</g>
</g>
</svg>
