<?xml version="1.0" encoding="utf-8"?>
<!-- Generator: Adobe Illustrator 19.2.1, SVG Export Plug-In . SVG Version: 6.00 Build 0)  -->
<svg version="1.1" id="Layer_1" xmlns="http://www.w3.org/2000/svg" xmlns:xlink="http://www.w3.org/1999/xlink" x="0px" y="0px"
	 viewBox="0 0 24.9 40" style="enable-background:new 0 0 24.9 40;" xml:space="preserve">
<style type="text/css">
	.st0{fill:#D21E1E;}
</style>
<g>
	<path class="st0" d="M9.9,14.9c0-1.2,0.6-2.4,1.5-3.1c1.6-1.3,2.7-3.2,2.7-5.5c0-2.7-1.5-5.1-3.8-6.2c-0.1-0.1-0.3,0-0.3,0.2v4.2
		c0,1.2-1,2.2-2.2,2.2H5.9c-1.2,0-2.2-1-2.2-2.2v-4c0-0.2-0.2-0.3-0.3-0.2C1.3,1.5,0,3.8,0,6.3c0,2.1,0.9,4,2.4,5.3
		c0.9,0.8,1.4,1.8,1.4,3v22.3c0,1.7,1.3,3.1,3.1,3.1s3.1-1.3,3.1-3.1V14.9z M7.8,36.5c0,0.5-0.4,0.9-0.9,0.9S6,37,6,36.5V13.9
		C6,13.4,6.4,13,6.9,13s0.9,0.4,0.9,0.9V36.5z M19.5,25.4V10.8l-2.7-2.7l2.7-8h2.7l2.7,8l-2.7,2.7l0,14.6h2.7V36c0,2.2-1.8,4-4,4
		s-4-1.8-4-4V25.4H19.5z"/>
</g>
</svg>
