<?xml version="1.0" encoding="utf-8"?>
<!-- Generator: Adobe Illustrator 17.0.0, SVG Export Plug-In . SVG Version: 6.00 Build 0)  -->
<!DOCTYPE svg PUBLIC "-//W3C//DTD SVG 1.1//EN" "http://www.w3.org/Graphics/SVG/1.1/DTD/svg11.dtd">
<svg version="1.1" id="Layer_1" xmlns="http://www.w3.org/2000/svg" xmlns:xlink="http://www.w3.org/1999/xlink" x="0px" y="0px"
	 width="142.5px" height="33.833px" viewBox="0 0 142.5 33.833" enable-background="new 0 0 142.5 33.833" xml:space="preserve">
<g>
	<path fill="#FFFFFF" stroke="#000000" d="M46.186,32.297l-1.813-6.677h-8.581l-1.853,6.677h-5.076l8.419-31.202h5.68l8.258,31.202
		H46.186z M40.143,8.585l-2.981,12.113h6.163L40.143,8.585z"/>
	<path fill="#FFFFFF" stroke="#000000" d="M69.55,32.297L64.233,19.97H59.52v12.327h-4.955V1.095h12.166
		c4.552,0,7.331,3.938,7.331,8.988c0,3.895-1.49,7.105-5.116,8.86l6.405,13.354H69.55z M65.925,6.017H59.52v9.031h6.485
		c1.491,0,2.941-2.14,2.941-4.194C68.946,8.799,68.342,6.017,65.925,6.017z"/>
	<path stroke="#000000" d="M80.468,16.932c0,4.965,1.53,13.183,7.492,13.183c4.432,0,6.324-5.351,6.929-9.245h3.183
		c-0.443,3.338-1.531,6.763-3.545,9.202c-1.048,1.327-3.706,3.21-6.728,3.21c-7.896,0-10.514-9.63-10.514-16.35
		c0-7.02,2.618-16.35,10.514-16.35c3.021,0,5.68,1.926,6.728,3.21c1.57,1.926,2.497,4.409,3.101,6.934h-3.223
		c-0.967-3.253-2.779-6.977-6.445-6.977C81.998,3.749,80.468,11.966,80.468,16.932z"/>
	<path stroke="#000000" d="M108.868,1.095h3.786l8.46,31.202h-3.465l-2.497-9.587h-9.064l-2.658,9.587h-3.303L108.868,1.095z
		 M110.761,5.974l-3.948,13.654h7.493L110.761,5.974z"/>
	<path stroke="#000000" d="M141.98,10.083c0,6.549-3.947,8.988-6.324,8.988h-7.936v13.226h-3.102V1.095h10.07
		C138.033,1.095,141.98,2.807,141.98,10.083z M138.838,10.126c0-4.366-2.86-5.906-4.189-5.906h-6.929v11.728h7.896
		C136.179,15.947,138.838,14.449,138.838,10.126z"/>
</g>
<path fill="#D38225" stroke="#000000" stroke-linecap="round" stroke-linejoin="round" d="M13.422,7.767
	c1.661-0.007,3.973,7.942,3.973,7.942s8.179-0.189,8.781,1.323c0.601,1.513-6.326,6.233-6.326,6.233s2.68,7.594,1.455,8.762
	c-1.226,1.166-7.882-4.092-7.882-4.092s-6.64,4.969-7.883,4.092c-1.243-0.877,1.456-8.762,1.456-8.762s-6.891-4.566-6.327-6.233
	c0.563-1.667,8.781-1.323,8.781-1.323S11.761,7.774,13.422,7.767z"/>
</svg>
