<?xml version="1.0" encoding="utf-8"?>
<!-- Generator: Adobe Illustrator 17.0.0, SVG Export Plug-In . SVG Version: 6.00 Build 0)  -->
<!DOCTYPE svg PUBLIC "-//W3C//DTD SVG 1.1//EN" "http://www.w3.org/Graphics/SVG/1.1/DTD/svg11.dtd">
<svg version="1.1" id="Режим_изоляции"
	 xmlns="http://www.w3.org/2000/svg" xmlns:xlink="http://www.w3.org/1999/xlink" x="0px" y="0px" width="35px" height="35px"
	 viewBox="0 0 35 35" enable-background="new 0 0 35 35" xml:space="preserve">
<g id="Слой_1">
	<rect fill="#CCCCCC" width="35" height="35"/>
	<g>
		<path fill="#EEEEEE" d="M27.493,21.453c-0.732-0.064-4.646-1.368-6.206-2.037c0,1.878-4.105,4.646-4.105,4.646
			s-4.074-2.769-4.074-4.646c-1.559,0.668-5.474,1.973-6.206,2.037c-0.859,0.064-1.082,0.318-1.496,1.05
			c-0.446,0.732-0.859,0.242-1.018,2.565c2.016,3.276,6.906,6.536,12.825,6.536c5.62,0,10.534-2.729,13.398-7.336
			c-0.159-2.323-1.178-1.034-1.623-1.766C28.575,21.771,28.352,21.548,27.493,21.453z"/>
		<path fill="#EEEEEE" d="M12.153,11.256c0.032,0.382,0.095,1.432,0.191,2.291c0.064,0.859,0.573,0.732,0.668,0.636
			c0,1.178,0.955,2.323,0.955,2.323c0.446,0.7,2.005,1.655,3.246,1.655c-2.291,0-3.246-0.923-3.246-0.923c0,0.636,0,1.559,0,1.782
			c0,1.719,3.246,3.628,3.246,3.628s3.246-1.941,3.246-3.628c0-0.509,0-2.546,0-2.546s0.955-1.178,0.955-2.323
			c0.095,0.095,0.605,0.223,0.668-0.636c0.064-0.859,0.159-1.909,0.191-2.291s-0.477-0.318-0.509-0.095c0-0.318-0.032-0.446,0-0.477
			s0.318-0.35,0.318-0.636c0-0.286,0.159-0.477,0.159-1.018c0-0.541,0-1.909,0-2.291c0-0.35-0.35-0.159-0.35-0.35
			s-0.223-1.05-1.368-1.05c0.318-0.255,0.509-1.05,0.446-1.4c-0.095,0.255-0.573,0.414-0.827,0.414c-0.573,0-0.987-0.159-1.4-0.318
			c0.032-0.127,0-0.318-0.127-0.605c-0.827,0.382-1.273-0.286-3.087,0.286c-0.032,0-0.095,0.032-0.127,0.032h-0.032l0,0
			c-0.382,0.127-0.668,0.318-0.891,0.509c-0.064-0.064-0.191-0.095-0.382-0.127c-0.191,0.764-0.923,0.987-1.241,1.559l0,0
			c-0.255,0.255-0.318,0.573-0.318,0.7c0,0.191-0.35-0.032-0.35,0.35c0,0.35,0,1.75,0,2.291c0,0.541,0.159,0.732,0.159,1.018
			s0.286,0.605,0.318,0.636s0,0.159,0,0.477C12.663,10.937,12.153,10.842,12.153,11.256z"/>
	</g>
</g>
</svg>
