<svg xmlns="http://www.w3.org/2000/svg" viewBox="0 0 582.47 194.51">
    <defs>
        <style>
            .cls-1{fill:#60bf6c;}
            .cls-1,.cls-2,.cls-3{fill-rule:evenodd;}
            .cls-2{fill:#fff;}
            .cls-3{fill:#101112;}
        </style>
    </defs>
    <g id="Layer_2">
        <g id="Logotype">
            <g id="Shape">
                <path class="cls-1"
                      d="M43.76,0h107A43.77,43.77,0,0,1,194.5,43.77v107a43.77,43.77,0,0,1-43.76,43.77h-107A43.77,43.77,0,0,1,0,150.75v-107A43.71,43.71,0,0,1,43.76,0Z"/>
            </g>
            <g id="Logo">
                <path class="cls-2"
                      d="M41.33,97.26S58.11,85.93,67.64,72.8A116,116,0,0,0,82,44.84h57A70.82,70.82,0,0,1,127.4,72.75c-9.32,12.83-22.1,23.95-22.78,24.53.68.59,13.45,11.71,22.78,24.53a70.82,70.82,0,0,1,11.67,27.91H82a116,116,0,0,0-14.39-28c-9.53-13.13-26.31-24.46-26.31-24.46"/>
            </g>
            <g id="Type">
                <path class="cls-3"
                      d="M515.17,44.93h13.71V150H515.17ZM582.47,150H564.13l-34.67-35.35,30.78-33.89h16.24l-29.56,33.89Zm-78.14,0H443.73l36.37-56.41H445.24V80.82h59.08l-36.66,56.41h36.66ZM418.64,99.16c-4.47-4.33-10.07-6.47-16.87-6.47-6.56,0-12,2.14-16.19,6.47s-6.32,9.82-6.32,16.49,2.14,12,6.47,16.19,9.87,6.27,16.63,6.27,12.21-2.14,16.53-6.37,6.42-9.68,6.42-16.29A21.89,21.89,0,0,0,418.64,99.16Zm9.92,41.67c-7.05,6.61-15.95,9.87-26.7,9.87-10.36,0-19.06-3.36-26-10.07a33.47,33.47,0,0,1-10.45-25.09q0-15.17,10.55-25.34t26.5-10.11q15.83,0,26.26,10.21c7,6.81,10.45,15.32,10.45,25.63C439.16,126,435.66,134.23,428.56,140.84ZM353,150H339.26V80.82H353Zm-1.12-84.56a7.94,7.94,0,0,1-5.79,2.43,7.64,7.64,0,0,1-5.54-2.43,7.87,7.87,0,0,1,0-11.28,7.64,7.64,0,0,1,5.54-2.43,8,8,0,0,1,5.79,2.33,7.63,7.63,0,0,1,2.38,5.74A7.54,7.54,0,0,1,351.86,65.45Zm-88-20.52h13.71V150H263.89ZM331.19,150H312.81l-34.62-35.35L309,80.77h16.24l-29.56,33.89Z"/>
            </g>
        </g>
    </g>
</svg>