<svg width="57" height="40" viewBox="0 0 57 40" fill="none" xmlns="http://www.w3.org/2000/svg">
<path d="M3.86983 7.63005L7.90852 7.85977C5.08197 11.05 3.353 15.2378 3.32031 19.8349C3.28574 24.7017 5.15897 29.1372 8.24019 32.4323L3.7887 32.1791C1.37112 28.6649 -0.031657 24.4004 0.000542488 19.8114C0.0324985 15.2801 1.45907 11.0849 3.86983 7.63005ZM52.1873 7.68045L48.1542 7.90993C50.9771 11.096 52.7037 15.2783 52.736 19.869C52.7706 24.7296 50.8998 29.1591 47.8226 32.4497L52.2685 32.1968C54.6829 28.6872 56.0837 24.4281 56.0515 19.8455C56.0197 15.3202 54.5953 11.1311 52.1873 7.68045ZM28.0264 0C16.9806 0 8.02636 8.95413 8.02636 20C8.02636 31.0459 16.9805 40 28.0264 40C39.0722 40 48.0264 31.0459 48.0264 20C48.0264 8.95413 39.0722 0 28.0264 0ZM28.0264 36.9616C18.6586 36.9616 11.0648 29.3678 11.0648 20C11.0648 10.6322 18.6586 3.03844 28.0264 3.03844C37.3941 3.03844 44.9879 10.6322 44.9879 20C44.9879 29.3678 37.3939 36.9616 28.0264 36.9616Z" fill="#00B200"/>
<path d="M35.3979 12.6021C33.2617 10.4659 29.7861 10.466 27.6499 12.6021C26.1908 14.0612 25.684 16.2115 26.3158 18.1624L20.1459 24.3323C20.0525 24.4257 20 24.5521 20 24.6844V27.502C20 27.7772 20.2228 28 20.498 28H23.3156C23.4479 28 23.5744 27.9475 23.6677 27.8541L24.372 27.1493C24.4795 27.0418 24.532 26.8911 24.5145 26.7398L24.4269 25.983L25.4756 25.8842C25.7139 25.8619 25.9021 25.6736 25.9245 25.4353L26.0233 24.3867L26.7801 24.4747C26.9206 24.4937 27.0622 24.4465 27.1687 24.3521C27.2747 24.2573 27.3355 24.1221 27.3355 23.9801V23.0527H28.246C28.3783 23.0527 28.5047 23.0002 28.5981 22.9068L29.8753 21.6465C31.8257 22.2788 33.9388 21.8101 35.3979 20.35C37.534 18.2139 37.534 14.7383 35.3979 12.6021ZM33.9889 16.124C33.4062 16.7066 32.4588 16.7066 31.8761 16.124C31.2934 15.5413 31.2934 14.5938 31.8761 14.0111C32.4588 13.4285 33.4062 13.4285 33.9889 14.0111C34.5716 14.5938 34.5716 15.5413 33.9889 16.124Z" fill="#00B200"/>
</svg>
