<svg width="57" height="40" viewBox="0 0 57 40" fill="none" xmlns="http://www.w3.org/2000/svg">
<path d="M3.86983 7.63005L7.90852 7.85977C5.08197 11.05 3.353 15.2378 3.32031 19.8349C3.28574 24.7017 5.15897 29.1372 8.24019 32.4323L3.7887 32.1791C1.37112 28.6649 -0.031657 24.4004 0.000542488 19.8114C0.0324985 15.2801 1.45907 11.0849 3.86983 7.63005ZM52.1873 7.68045L48.1542 7.90993C50.9771 11.096 52.7037 15.2783 52.736 19.869C52.7706 24.7296 50.8998 29.1591 47.8226 32.4497L52.2685 32.1968C54.6829 28.6872 56.0837 24.4281 56.0515 19.8455C56.0197 15.3202 54.5953 11.1311 52.1873 7.68045ZM28.0264 0C16.9806 0 8.02636 8.95413 8.02636 20C8.02636 31.0459 16.9805 40 28.0264 40C39.0722 40 48.0264 31.0459 48.0264 20C48.0264 8.95413 39.0722 0 28.0264 0ZM28.0264 36.9616C18.6586 36.9616 11.0648 29.3678 11.0648 20C11.0648 10.6322 18.6586 3.03844 28.0264 3.03844C37.3941 3.03844 44.9879 10.6322 44.9879 20C44.9879 29.3678 37.3939 36.9616 28.0264 36.9616Z" fill="#888888"/>
<path d="M26.5091 26.6476L26 18.4552V9H30V18.4552L29.4909 26.6476H26.5091ZM29.9273 28.2343V31.6667H26.0727V28.2343H29.9273Z" fill="#888888"/>
</svg>
