<?xml version="1.0" encoding="utf-8"?>
<!-- Generator: Adobe Illustrator 17.0.0, SVG Export Plug-In . SVG Version: 6.00 Build 0)  -->
<!DOCTYPE svg PUBLIC "-//W3C//DTD SVG 1.1//EN" "http://www.w3.org/Graphics/SVG/1.1/DTD/svg11.dtd">
<svg version="1.1" id="Layer_1" xmlns="http://www.w3.org/2000/svg" xmlns:xlink="http://www.w3.org/1999/xlink" x="0px" y="0px"
	 width="109.594px" height="39.604px" viewBox="0 0 109.594 39.604" enable-background="new 0 0 109.594 39.604"
	 xml:space="preserve">
<path fill="none" stroke="#000000" d="M32.42,34.613l-6.028-11.204c-0.025-0.046-0.075-0.099-0.14-0.153l-0.01-0.049
	c-0.373-0.81-1.496-1.282-2.542-1.08l-9.051,2.306L8.705,13.551c-0.235-0.428-0.961-0.538-1.621-0.243l-2.883,1.283
	C3.54,14.885,3.194,15.47,3.428,15.9l6.54,11.882c0.19,0.347,0.92,0.937,1.542,0.998c0.401,0.092,0.821,0.107,1.198,0.028
	l10.505-2.751l5.561,10.179c0.226,0.413,0.777,0.582,1.234,0.379l1.994-0.887C32.458,35.525,32.646,35.025,32.42,34.613z"/>
<path fill="#FFFFFF" d="M93.197,20.34c0.329-0.116,0.479-0.481,0.338-0.817l-4.154-9.852c-0.142-0.336-0.521-0.514-0.849-0.397
	l-1.431,0.505c-0.326,0.116-0.476,0.482-0.336,0.818l4.154,9.851c0.143,0.335,0.522,0.514,0.85,0.398"/>
<path fill="none" stroke="#000000" d="M93.197,20.34c0.329-0.116,0.479-0.481,0.338-0.817l-4.154-9.852
	c-0.142-0.336-0.521-0.514-0.849-0.397l-1.431,0.505c-0.326,0.116-0.476,0.482-0.336,0.818l4.154,9.851
	c0.143,0.335,0.522,0.514,0.85,0.398L93.197,20.34z"/>
<path fill="#FFFFFF" d="M78.806,34.613l5.939-11.204c0.024-0.046,0.075-0.099,0.137-0.153l0.011-0.049
	c0.368-0.81,1.474-1.282,2.505-1.08l8.918,2.306l2.951-5.49l-8.897-2.477c-0.375-0.105-0.597-0.439-0.495-0.747l0.446-1.342
	c0.1-0.309,0.488-0.473,0.863-0.368l9.34,2.6l1.645-3.058c0.232-0.428,0.948-0.538,1.598-0.243l2.842,1.283
	c0.649,0.294,0.989,0.879,0.761,1.309l-6.445,11.882c-0.186,0.347-0.903,0.937-1.517,0.998c-0.396,0.092-0.812,0.107-1.181,0.028
	l-10.351-2.751l-5.476,10.179c-0.224,0.413-0.769,0.582-1.217,0.379l-1.962-0.887C78.771,35.525,78.584,35.025,78.806,34.613"/>
<path fill="none" stroke="#000000" d="M78.806,34.613l5.939-11.204c0.024-0.046,0.075-0.099,0.137-0.153l0.011-0.049
	c0.368-0.81,1.474-1.282,2.505-1.08l8.918,2.306l2.951-5.49l-8.897-2.477c-0.375-0.105-0.597-0.439-0.495-0.747l0.446-1.342
	c0.1-0.309,0.488-0.473,0.863-0.368l9.34,2.6l1.645-3.058c0.232-0.428,0.948-0.538,1.598-0.243l2.842,1.283
	c0.649,0.294,0.989,0.879,0.761,1.309l-6.445,11.882c-0.186,0.347-0.903,0.937-1.517,0.998c-0.396,0.092-0.812,0.107-1.181,0.028
	l-10.351-2.751l-5.476,10.179c-0.224,0.413-0.769,0.582-1.217,0.379l-1.962-0.887C78.771,35.525,78.584,35.025,78.806,34.613z"/>
<path fill="#FFFFFF" d="M101.085,8.696c0,2.027,1.795,3.67,4.005,3.67c2.213,0,4.006-1.642,4.006-3.67
	c0-2.026-1.793-3.669-4.006-3.669C102.88,5.027,101.085,6.67,101.085,8.696"/>
<ellipse fill="none" stroke="#000000" cx="105.09" cy="8.696" rx="4.005" ry="3.67"/>
<path fill="#FFFFFF" d="M73.724,20.37c-0.104-0.983-0.21-1.693-0.894-2.786c-0.684-1.093-2.259-1.421-2.259-1.421
	s-2.681-7.047-3.207-8.412c-0.526-1.367-2.155-2.131-3.682-2.131H48.386c-2.051,0-3.366,1.475-3.891,2.84
	c-0.526,1.366-2.84,7.703-2.84,7.703s-0.788,0-1.996,1.148c-1.21,1.147-1.21,2.731-1.21,2.731v10.326h2.785c0,0-0.052,1.256,0,3.223
	c0.054,1.967,1.787,2.787,2.682,2.787c0.894,0,2.734-0.875,2.734-2.842v-3.223h18.927c0,0,0.053,2.349,0.053,3.278
	c0,0.929,0.682,2.841,2.628,2.732c1.944-0.109,2.734-1.475,2.734-2.842c0-1.365,0.052-3.277,0.052-3.277l2.68,0.055
	C73.724,30.259,73.83,21.354,73.724,20.37 M44.021,24.25c-1.363,0-2.471-1.15-2.471-2.567c0-1.418,1.107-2.568,2.471-2.568
	c1.366,0,2.472,1.15,2.472,2.568C46.493,23.1,45.388,24.25,44.021,24.25 M44.706,16.108c0,0,2.102-6.063,2.259-6.446
	c0.16-0.382,0.738-1.257,1.367-1.257c0.631,0,14.51,0.055,15.351,0c0.842-0.054,1.578,1.148,1.578,1.148l2.314,6.555H44.706z
	 M68.204,24.25c-1.363,0-2.471-1.15-2.471-2.567c0-1.418,1.107-2.568,2.471-2.568c1.365,0,2.473,1.15,2.473,2.568
	C70.677,23.1,69.569,24.25,68.204,24.25"/>
<path fill="#FFFFFF" d="M73.724,20.37c-0.104-0.983-0.21-1.693-0.894-2.786c-0.684-1.093-2.259-1.421-2.259-1.421
	s-2.681-7.047-3.207-8.412c-0.526-1.367-2.155-2.131-3.682-2.131H48.386c-2.051,0-3.366,1.475-3.891,2.84
	c-0.526,1.366-2.84,7.703-2.84,7.703s-0.788,0-1.996,1.148c-1.21,1.147-1.21,2.731-1.21,2.731v10.326h2.785c0,0-0.052,1.256,0,3.223
	c0.054,1.967,1.787,2.787,2.682,2.787c0.894,0,2.734-0.875,2.734-2.842v-3.223h18.927c0,0,0.053,2.349,0.053,3.278
	c0,0.929,0.682,2.841,2.628,2.732c1.944-0.109,2.734-1.475,2.734-2.842c0-1.365,0.052-3.277,0.052-3.277l2.68,0.055
	C73.724,30.259,73.83,21.354,73.724,20.37 M44.021,24.25c-1.363,0-2.471-1.15-2.471-2.567c0-1.418,1.107-2.568,2.471-2.568
	c1.366,0,2.472,1.15,2.472,2.568C46.493,23.1,45.388,24.25,44.021,24.25 M44.706,16.108c0,0,2.102-6.063,2.259-6.446
	c0.16-0.382,0.738-1.257,1.367-1.257c0.631,0,14.51,0.055,15.351,0c0.842-0.054,1.578,1.148,1.578,1.148l2.314,6.555H44.706z
	 M68.204,24.25c-1.363,0-2.471-1.15-2.471-2.567c0-1.418,1.107-2.568,2.471-2.568c1.365,0,2.473,1.15,2.473,2.568
	C70.677,23.1,69.569,24.25,68.204,24.25"/>
<ellipse fill="none" stroke="#000000" cx="68.204" cy="21.682" rx="2.471" ry="2.568"/>
<path fill="none" stroke="#000000" d="M44.706,16.108c0,0,2.102-6.063,2.259-6.446c0.16-0.382,0.738-1.257,1.367-1.257
	c0.631,0,14.51,0.055,15.351,0c0.842-0.054,1.578,1.148,1.578,1.148l2.314,6.555H44.706z"/>
<ellipse fill="none" stroke="#000000" cx="44.021" cy="21.682" rx="2.471" ry="2.568"/>
<path fill="none" stroke="#000000" d="M73.724,20.37c-0.104-0.983-0.21-1.693-0.894-2.786c-0.684-1.093-2.259-1.421-2.259-1.421
	s-2.681-7.047-3.207-8.412c-0.526-1.367-2.155-2.131-3.682-2.131H48.386c-2.051,0-3.366,1.475-3.891,2.84
	c-0.526,1.366-2.84,7.703-2.84,7.703s-0.788,0-1.996,1.148c-1.21,1.147-1.21,2.731-1.21,2.731v10.326h2.785c0,0-0.052,1.256,0,3.223
	c0.054,1.967,1.787,2.787,2.682,2.787c0.894,0,2.734-0.875,2.734-2.842v-3.223h18.927c0,0,0.053,2.349,0.053,3.278
	c0,0.929,0.683,2.841,2.628,2.732c1.944-0.109,2.734-1.475,2.734-2.842c0-1.365,0.052-3.277,0.052-3.277l2.68,0.055
	C73.724,30.259,73.83,21.354,73.724,20.37z"/>
<polyline fill="#DF0024" points="65.265,2.274 62.429,1.295 56.296,16.509 50.056,0.795 47.265,1.774 54.693,20.483 47.63,38.003 
	50.464,38.982 56.294,24.519 61.837,38.482 64.63,37.503 57.898,20.545 "/>
<polyline fill="#DF0024" points="65.265,2.274 62.429,1.295 56.296,16.509 50.056,0.795 47.265,1.774 54.693,20.483 47.63,38.003 
	50.464,38.982 56.294,24.519 61.837,38.482 64.63,37.503 57.898,20.545 "/>
<polygon fill="none" stroke="#000000" points="65.265,2.274 62.429,1.295 56.296,16.509 50.056,0.795 47.265,1.774 54.693,20.483 
	47.63,38.003 50.464,38.982 56.294,24.519 61.837,38.482 64.63,37.503 57.898,20.545 "/>
<polyline fill="#DF0024" points="103.765,2.274 100.929,1.295 94.796,16.509 88.556,0.795 85.765,1.774 93.193,20.483 86.13,38.003 
	88.964,38.982 94.794,24.519 100.337,38.482 103.13,37.503 96.398,20.545 "/>
<polyline fill="#DF0024" points="103.765,2.274 100.929,1.295 94.796,16.509 88.556,0.795 85.765,1.774 93.193,20.483 86.13,38.003 
	88.964,38.982 94.794,24.519 100.337,38.482 103.13,37.503 96.398,20.545 "/>
<polygon fill="none" stroke="#000000" points="103.765,2.274 100.929,1.295 94.796,16.509 88.556,0.795 85.765,1.774 93.193,20.483 
	86.13,38.003 88.964,38.982 94.794,24.519 100.337,38.482 103.13,37.503 96.398,20.545 "/>
<ellipse fill="none" stroke="#000000" cx="4.688" cy="9.046" rx="4.005" ry="3.67"/>
<g>
	<polyline fill="#DF0024" points="26.265,2.188 23.429,1.209 17.296,16.423 11.056,0.709 8.265,1.688 15.693,20.397 8.63,37.917 
		11.464,38.896 17.294,24.433 22.837,38.396 25.63,37.417 18.898,20.459 	"/>
	<polygon fill="none" stroke="#000000" points="26.265,2.188 23.429,1.209 17.296,16.423 11.056,0.709 8.265,1.688 15.693,20.397 
		8.63,37.917 11.464,38.896 17.294,24.433 22.837,38.396 25.63,37.417 18.898,20.459 	"/>
</g>
</svg>
