<svg width="23" height="20" viewBox="0 0 23 20" fill="none" xmlns="http://www.w3.org/2000/svg">
<path d="M7.37772 13.3334H19.4222C19.7205 13.3334 19.9821 13.1362 20.0629 12.8497L22.7297 3.51629C22.787 3.31508 22.7477 3.09893 22.6215 2.93175C22.4951 2.76508 22.2986 2.66665 22.0889 2.66665H5.83867L5.36211 0.522218C5.2944 0.216838 5.02357 0 4.71107 0H0.666661C0.298262 0 0 0.298262 0 0.666661C0 1.03523 0.298262 1.33332 0.666661 1.33332H4.17601L6.58345 12.1666C5.87513 12.4746 5.37773 13.1796 5.37773 14.0001C5.37773 15.1028 6.27495 16 7.37772 16H19.4222C19.7908 16 20.0889 15.702 20.0889 15.3334C20.0889 14.965 19.7908 14.6667 19.4222 14.6667H7.37772C7.01053 14.6667 6.71106 14.3679 6.71106 14.0001C6.71106 13.6322 7.01053 13.3334 7.37772 13.3334Z" fill="#840000"/>
<path d="M6.71105 18C6.71105 19.103 7.60827 20 8.71121 20C9.81398 20 10.7112 19.103 10.7112 18C10.7112 16.8972 9.81398 16 8.71121 16C7.60827 16 6.71105 16.8972 6.71105 18Z" fill="#840000"/>
<path d="M16.0889 18C16.0889 19.103 16.9861 20 18.0889 20C19.1918 20 20.0889 19.103 20.0889 18C20.0889 16.8972 19.1918 16 18.0889 16C16.9861 16 16.0889 16.8972 16.0889 18Z" fill="#840000"/>
</svg>
