<?xml version="1.0" encoding="utf-8"?>
<!-- Generator: Adobe Illustrator 17.0.0, SVG Export Plug-In . SVG Version: 6.00 Build 0)  -->
<!DOCTYPE svg PUBLIC "-//W3C//DTD SVG 1.1//EN" "http://www.w3.org/Graphics/SVG/1.1/DTD/svg11.dtd">
<svg version="1.1" id="Слой_1" xmlns="http://www.w3.org/2000/svg" xmlns:xlink="http://www.w3.org/1999/xlink" x="0px" y="0px"
	 width="112.695px" height="25px" viewBox="0 0 112.695 25" enable-background="new 0 0 112.695 25" xml:space="preserve">
<g>
	<path fill="#FFFFFF" d="M-1.667-2.167v28.5H114.5v-28.5H-1.667z M20.134,15.955c1.005,2.949,2.264,7.476,1.008,8.671
		C20.963,24.797,20.639,25,20.115,25c-1.813,0-5.598-2.755-7.086-3.895c-1.532,1.116-5.443,3.833-7.172,3.833
		c-0.324,0-0.603-0.081-0.831-0.241c-1.064-0.753-0.753-3.689,0.925-8.732c-2.666-1.811-6.487-4.775-5.888-6.543
		C0.247,8.877,0.679,7.6,7.592,7.6c0.421,0,0.785,0.006,1.065,0.012C9.743,4.015,11.335,0.008,13.038,0h0.006
		c1.707,0,3.3,4.019,4.385,7.621C17.507,7.62,17.59,7.62,17.68,7.62c7.624,0,8.115,1.237,8.326,1.764
		C26.639,10.977,23.276,13.771,20.134,15.955z M49.005,15.955c1.005,2.949,2.263,7.476,1.007,8.671
		C49.833,24.797,49.509,25,48.985,25c-1.812,0-5.596-2.755-7.085-3.895c-1.532,1.116-5.443,3.833-7.172,3.833
		c-0.325,0-0.604-0.081-0.83-0.241c-1.066-0.753-0.754-3.689,0.923-8.732c-2.666-1.811-6.485-4.775-5.888-6.543
		c0.184-0.545,0.616-1.822,7.53-1.822c0.42,0,0.785,0.006,1.064,0.012C38.613,4.015,40.206,0.008,41.909,0h0.006
		c1.706,0,3.299,4.019,4.385,7.621c0.077-0.001,0.16-0.001,0.25-0.001c7.624,0,8.115,1.237,8.325,1.764
		C55.509,10.976,52.146,13.77,49.005,15.955z M77.876,15.955c1.004,2.949,2.263,7.476,1.007,8.671C78.704,24.797,78.38,25,77.856,25
		c-1.812,0-5.598-2.756-7.086-3.895c-1.533,1.116-5.443,3.833-7.171,3.833c-0.325,0-0.605-0.081-0.831-0.241
		c-1.066-0.753-0.754-3.689,0.923-8.732c-2.665-1.811-6.484-4.775-5.887-6.543C57.988,8.877,58.42,7.6,65.332,7.6
		c0.421,0,0.786,0.006,1.065,0.012C67.484,4.015,69.076,0.008,70.779,0h0.005c1.708,0,3.301,4.019,4.386,7.621
		c0.078,0,0.161-0.001,0.25-0.001c7.624,0,8.116,1.237,8.326,1.764C84.38,10.976,81.017,13.77,77.876,15.955z M106.746,15.955
		c1.005,2.949,2.265,7.476,1.008,8.671c-0.179,0.171-0.503,0.374-1.027,0.374c-1.813,0-5.598-2.755-7.086-3.895
		c-1.533,1.116-5.443,3.833-7.171,3.833c-0.326,0-0.605-0.081-0.831-0.241c-1.065-0.753-0.754-3.689,0.924-8.732
		c-2.666-1.811-6.487-4.775-5.888-6.543c0.184-0.545,0.616-1.822,7.53-1.822c0.421,0,0.784,0.006,1.064,0.012
		C96.355,4.015,97.947,0.008,99.651,0h0.005c1.707,0,3.301,4.019,4.386,7.621c0.077,0,0.161-0.001,0.25-0.001
		c7.624,0,8.116,1.237,8.326,1.764C113.251,10.977,109.888,13.771,106.746,15.955z"/>
</g>
<g>
	<path d="M99.656,0.769c1.596,0,3.813,7.628,3.813,7.628s0.315-0.007,0.823-0.007c2.03,0,7.147,0.117,7.611,1.278
		c0.578,1.453-6.076,5.987-6.076,5.987s2.574,7.294,1.397,8.413c-0.117,0.112-0.287,0.163-0.497,0.163
		c-1.894,0-7.073-4.091-7.073-4.091s-5.385,4.028-7.184,4.028c-0.159,0-0.29-0.031-0.387-0.1c-1.194-0.842,1.397-8.413,1.397-8.413
		s-6.618-4.386-6.076-5.987c0.383-1.133,4.459-1.298,6.801-1.298c0.963,0,1.633,0.027,1.633,0.027s2.22-7.621,3.816-7.628H99.656
		 M99.656,0h-0.005c-1.704,0.008-3.296,4.015-4.382,7.612C94.989,7.606,94.626,7.6,94.205,7.6c-6.914,0-7.346,1.277-7.53,1.822
		c-0.599,1.768,3.222,4.732,5.888,6.543c-1.678,5.043-1.989,7.979-0.924,8.732c0.226,0.16,0.505,0.241,0.831,0.241
		c1.728,0,5.638-2.717,7.171-3.833c1.488,1.14,5.273,3.895,7.086,3.895c0.524,0,0.848-0.203,1.027-0.374
		c1.257-1.195-0.003-5.722-1.008-8.671c3.142-2.184,6.505-4.978,5.872-6.571c-0.21-0.527-0.702-1.764-8.326-1.764
		c-0.089,0-0.173,0.001-0.25,0.001C102.957,4.019,101.363,0,99.656,0"/>
	<path d="M70.784,0.769c1.596,0,3.813,7.628,3.813,7.628S74.912,8.39,75.42,8.39c2.03,0,7.148,0.117,7.611,1.278
		c0.578,1.453-6.075,5.987-6.075,5.987s2.573,7.294,1.397,8.413c-0.117,0.112-0.287,0.163-0.497,0.163
		c-1.893,0-7.074-4.091-7.074-4.091s-5.384,4.028-7.183,4.028c-0.16,0-0.29-0.031-0.387-0.1c-1.194-0.842,1.397-8.413,1.397-8.413
		s-6.617-4.386-6.076-5.987c0.383-1.133,4.457-1.298,6.799-1.298c0.964,0,1.634,0.027,1.634,0.027s2.222-7.621,3.816-7.628H70.784
		 M70.784,0h-0.005c-1.703,0.008-3.295,4.015-4.382,7.612C66.118,7.606,65.753,7.6,65.332,7.6c-6.912,0-7.344,1.277-7.528,1.822
		c-0.597,1.768,3.222,4.732,5.887,6.543c-1.677,5.043-1.989,7.979-0.923,8.732c0.226,0.16,0.506,0.241,0.831,0.241
		c1.728,0,5.638-2.717,7.171-3.833C72.258,22.244,76.044,25,77.856,25c0.524,0,0.848-0.203,1.027-0.374
		c1.256-1.195-0.003-5.722-1.007-8.671c3.141-2.185,6.504-4.979,5.87-6.571c-0.21-0.527-0.702-1.764-8.326-1.764
		c-0.089,0-0.172,0.001-0.25,0.001C74.085,4.019,72.492,0,70.784,0"/>
	<path d="M41.915,0.769c1.594,0,3.813,7.628,3.813,7.628S46.042,8.39,46.55,8.39c2.031,0,7.148,0.117,7.61,1.278
		c0.579,1.453-6.074,5.987-6.074,5.987s2.572,7.294,1.396,8.413c-0.117,0.112-0.287,0.163-0.497,0.163
		c-1.893,0-7.072-4.091-7.072-4.091s-5.384,4.028-7.185,4.028c-0.158,0-0.29-0.031-0.387-0.1c-1.193-0.842,1.398-8.413,1.398-8.413
		s-6.618-4.386-6.077-5.987c0.383-1.133,4.458-1.298,6.801-1.298c0.963,0,1.633,0.027,1.633,0.027s2.221-7.621,3.817-7.628H41.915
		 M41.915,0h-0.006c-1.703,0.008-3.296,4.015-4.382,7.612C37.248,7.606,36.883,7.6,36.463,7.6c-6.914,0-7.346,1.277-7.53,1.822
		c-0.597,1.768,3.222,4.732,5.888,6.543c-1.677,5.043-1.989,7.979-0.923,8.732c0.226,0.16,0.505,0.241,0.83,0.241
		c1.729,0,5.64-2.717,7.172-3.833C43.389,22.245,47.173,25,48.985,25c0.524,0,0.848-0.203,1.027-0.374
		c1.256-1.195-0.002-5.722-1.007-8.671c3.141-2.185,6.504-4.979,5.87-6.571c-0.21-0.527-0.701-1.764-8.325-1.764
		c-0.09,0-0.173,0-0.25,0.001C45.214,4.019,43.621,0,41.915,0"/>
	<path d="M13.044,0.769c1.596,0,3.813,7.628,3.813,7.628S17.172,8.39,17.68,8.39c2.03,0,7.148,0.117,7.611,1.278
		c0.578,1.453-6.076,5.987-6.076,5.987s2.574,7.294,1.397,8.413c-0.117,0.112-0.287,0.163-0.497,0.163
		c-1.894,0-7.074-4.091-7.074-4.091s-5.383,4.028-7.184,4.028c-0.159,0-0.29-0.031-0.387-0.1c-1.193-0.842,1.398-8.413,1.398-8.413
		S0.25,11.269,0.792,9.668C1.175,8.535,5.25,8.37,7.592,8.37c0.964,0,1.634,0.027,1.634,0.027s2.22-7.621,3.815-7.628H13.044
		 M13.044,0h-0.006c-1.703,0.008-3.295,4.015-4.381,7.612C8.377,7.606,8.013,7.6,7.592,7.6c-6.913,0-7.345,1.277-7.529,1.822
		c-0.599,1.768,3.222,4.732,5.888,6.543c-1.678,5.043-1.989,7.979-0.925,8.732c0.228,0.16,0.507,0.241,0.831,0.241
		c1.729,0,5.64-2.717,7.172-3.833C14.517,22.245,18.302,25,20.115,25c0.524,0,0.848-0.203,1.027-0.374
		c1.256-1.195-0.003-5.722-1.008-8.671c3.142-2.184,6.505-4.978,5.872-6.571C25.795,8.857,25.304,7.62,17.68,7.62
		c-0.09,0-0.173,0-0.251,0.001C16.344,4.019,14.751,0,13.044,0"/>
</g>
</svg>
