<svg width="220" height="40" viewBox="0 0 220 40" fill="none" xmlns="http://www.w3.org/2000/svg">
<g clip-path="url(#clip0)">
<path d="M100.155 14.8398H94.8912V34.1639H100.155V14.8398Z" fill="black"/>
<path d="M87.4372 14.8392L82.2863 28.8991L77.1354 14.8392H71.8762L78.9595 34.1634H80.3587H84.2118H85.6131L92.6948 14.8392H87.4372Z" fill="black"/>
<path d="M118.728 19.0972V14.8393H112.428V9.50879H107.17V14.8393H103.01V19.0972H107.17V27.4102C107.17 31.6999 109.313 34.5609 114.768 34.5609C116.879 34.5609 118.728 33.7896 118.728 33.7896L118.091 29.6139C118.091 29.6139 117.055 29.9222 115.782 29.9222C114.222 29.9222 112.428 29.2509 112.428 27.0843V19.0972H118.728Z" fill="black"/>
<path d="M67.9603 34.164H73.5591L63.1881 5.8587H62.3491H60.4279H59.129L48.7581 34.164H54.358L56.3361 28.7636H65.9763L67.9603 34.164ZM57.8972 24.4981L61.1618 15.6015L64.421 24.4981H57.8972Z" fill="black"/>
<path d="M130.79 14.3444C125.091 14.3444 120.467 18.8815 120.467 24.4691C120.467 30.0604 125.091 34.5943 130.79 34.5943C136.487 34.5943 141.116 30.0599 141.116 24.4691C141.116 18.8815 136.487 14.3444 130.79 14.3444ZM130.79 29.7452C127.861 29.7452 125.484 27.4145 125.484 24.5412C125.484 21.6661 127.861 19.3344 130.79 19.3344C133.725 19.3344 136.098 21.6661 136.098 24.5412C136.098 27.414 133.725 29.7452 130.79 29.7452Z" fill="black"/>
<path d="M100.917 9.17907C100.917 11.0574 99.3978 12.5774 97.5276 12.5774C95.6514 12.5774 94.1348 11.0574 94.1348 9.17907C94.1348 7.304 95.6514 5.7807 97.5276 5.7807C99.3978 5.7807 100.917 7.304 100.917 9.17907Z" fill="black"/>
<path d="M17.7231 8.88321C17.7231 13.7904 13.7573 17.7696 8.86287 17.7696C3.96844 17.7696 0 13.7904 0 8.88321C0 3.97822 3.96844 0 8.86287 0C13.7573 0 17.7231 3.97822 17.7231 8.88321Z" fill="#55ADE7"/>
<path d="M39.898 29.1922C39.898 35.1617 35.0695 40.0005 29.115 40.0005C23.1632 40.0005 18.3395 35.1622 18.3395 29.1922C18.3395 23.2222 23.1632 18.3828 29.115 18.3828C35.0695 18.3828 39.898 23.2222 39.898 29.1922Z" fill="#9FC762"/>
<path d="M36.0567 8.88322C36.0567 12.7259 32.9488 15.8429 29.115 15.8429C25.2861 15.8429 22.1787 12.7259 22.1787 8.88322C22.1787 5.04216 25.2861 1.9278 29.115 1.9278C32.9488 1.9278 36.0567 5.04216 36.0567 8.88322Z" fill="#D96C6C"/>
<path d="M13.8834 29.1922C13.8834 31.972 11.6344 34.2215 8.86288 34.2215C6.09136 34.2215 3.84238 31.972 3.84238 29.1922C3.84238 26.4124 6.09136 24.163 8.86288 24.163C11.6344 24.163 13.8834 26.4124 13.8834 29.1922Z" fill="#8072B0"/>
<path d="M167.444 34.1521H165.039C164.773 34.1521 164.554 34.0832 164.381 33.946C164.208 33.8083 164.083 33.6378 164.003 33.4334L162.408 29.197H154.158L152.563 33.4334C152.492 33.6109 152.368 33.7755 152.191 33.9261C152.013 34.0773 151.796 34.1526 151.539 34.1526H149.121L156.709 14.9699H159.857L167.444 34.1521ZM161.571 26.9589L158.927 19.9518C158.83 19.6856 158.723 19.3768 158.609 19.0267C158.493 18.6754 158.382 18.2957 158.276 17.8874C158.179 18.3048 158.075 18.6889 157.963 19.0401C157.853 19.3908 157.745 19.699 157.638 19.9658L155.008 26.9594H161.571V26.9589Z" fill="black"/>
<path d="M175.953 14.9694C177.175 14.9694 178.22 15.0872 179.088 15.3228C179.957 15.5579 180.67 15.893 181.228 16.3287C181.785 16.7633 182.195 17.2936 182.457 17.9203C182.718 18.5464 182.849 19.2499 182.849 20.0315C182.849 20.4849 182.78 20.9217 182.643 21.3439C182.505 21.7656 182.292 22.161 182.005 22.5294C181.717 22.8979 181.356 23.2292 180.922 23.5218C180.488 23.815 179.974 24.0592 179.381 24.255C182.091 24.8321 183.447 26.2753 183.447 28.5844C183.447 29.402 183.294 30.1497 182.988 30.8296C182.682 31.5089 182.24 32.0947 181.66 32.5879C181.079 33.0806 180.364 33.4647 179.513 33.7401C178.663 34.0155 177.693 34.1532 176.604 34.1532H169.588V14.9694H175.953ZM172.697 17.4077V23.4019H175.807C177.136 23.4019 178.128 23.1442 178.783 22.6295C179.438 22.1147 179.766 21.373 179.766 20.4048C179.766 19.3478 179.459 18.5846 178.843 18.1139C178.227 17.6433 177.263 17.4077 175.953 17.4077H172.697V17.4077ZM176.551 31.6886C177.25 31.6886 177.842 31.6063 178.325 31.4417C178.807 31.2776 179.201 31.0533 179.507 30.7693C179.813 30.4848 180.034 30.1497 180.172 29.7635C180.309 29.3773 180.377 28.962 180.377 28.5177C180.377 27.6114 180.069 26.8992 179.454 26.3796C178.838 25.8606 177.866 25.6002 176.537 25.6002H172.697V31.6886H176.551Z" fill="black"/>
<path d="M199.819 17.5674H193.853V34.1521H190.757V17.5674H184.778V14.9694H199.819V17.5674Z" fill="black"/>
<path d="M219.512 24.5611C219.512 25.9822 219.281 27.2919 218.821 28.4904C218.36 29.6893 217.711 30.7215 216.875 31.5875C216.038 32.454 215.032 33.1307 213.859 33.6191C212.685 34.108 211.38 34.3522 209.946 34.3522C208.519 34.3522 207.219 34.108 206.046 33.6191C204.872 33.1307 203.865 32.454 203.023 31.5875C202.182 30.7215 201.53 29.6893 201.07 28.4904C200.609 27.2914 200.379 25.9816 200.379 24.5611C200.379 23.14 200.609 21.8302 201.07 20.6313C201.53 19.4323 202.182 18.398 203.023 17.5271C203.865 16.6574 204.872 15.9775 206.046 15.4891C207.219 15.0007 208.519 14.7565 209.946 14.7565C211.38 14.7565 212.685 15.0007 213.859 15.4891C215.032 15.9775 216.038 16.6574 216.875 17.5271C217.711 18.398 218.36 19.4323 218.821 20.6313C219.281 21.8302 219.512 23.1405 219.512 24.5611ZM216.336 24.5611C216.336 23.4595 216.189 22.4692 215.891 21.5909C215.594 20.7109 215.169 19.9654 214.616 19.3522C214.062 18.7395 213.391 18.2694 212.603 17.9402C211.814 17.6116 210.928 17.4481 209.946 17.4481C208.971 17.4481 208.089 17.6121 207.302 17.9402C206.513 18.2689 205.84 18.7395 205.282 19.3522C204.724 19.9654 204.294 20.7114 203.993 21.5909C203.692 22.4692 203.541 23.46 203.541 24.5611C203.541 25.6713 203.692 26.6658 203.993 27.5453C204.294 28.4242 204.724 29.1686 205.282 29.7764C205.84 30.3848 206.513 30.8506 207.302 31.1749C208.089 31.4993 208.971 31.6612 209.946 31.6612C210.928 31.6612 211.814 31.4993 212.603 31.1749C213.391 30.8511 214.062 30.3848 214.616 29.7764C215.169 29.1686 215.594 28.4242 215.891 27.5453C216.189 26.6664 216.336 25.6713 216.336 24.5611Z" fill="black"/>
</g>
<defs>
<clipPath id="clip0">
<rect width="219.512" height="40" fill="white"/>
</clipPath>
</defs>
</svg>
