<svg width="235" height="221" viewBox="0 0 235 221" fill="none" xmlns="http://www.w3.org/2000/svg">
<g opacity="0.4">
<path d="M8.75684 156.129C8.75684 153.44 15.4655 151.261 23.7411 151.261V272H8.75684V156.129Z" fill="white"/>
<path d="M31.2332 126.918C31.2332 124.229 37.9419 122.049 46.2175 122.049V272H31.2332V126.918Z" fill="white"/>
<path d="M53.7096 97.7069C53.7096 95.0181 60.4183 92.8383 68.6938 92.8383V272H53.7096V97.7069Z" fill="white"/>
<path d="M76.186 68.4957C76.186 65.8069 82.8947 63.6272 91.1702 63.6272V272H76.186V68.4957Z" fill="white"/>
<path d="M211.044 165.866C219.32 165.866 226.028 168.046 226.028 170.735V272H211.044V165.866Z" fill="white"/>
<path d="M188.568 136.655C196.843 136.655 203.552 138.835 203.552 141.524V272H188.568V136.655Z" fill="white"/>
<path d="M166.091 107.444C174.367 107.444 181.076 109.624 181.076 112.312V272H166.091V107.444Z" fill="white"/>
<path d="M143.615 78.2328C151.891 78.2328 158.599 80.4125 158.599 83.1013V272H143.615V78.2328Z" fill="white"/>
<path d="M121.139 49.0216C129.414 49.0216 136.123 51.2013 136.123 53.8901V272H121.139V49.0216Z" fill="white"/>
<path d="M98.6623 39.2845C98.6623 36.5957 105.371 34.416 113.647 34.416V272H98.6623V39.2845Z" fill="white"/>
<g clip-path="url(#clip0)">
<path d="M132.58 14.7767H124.643C122.54 14.7767 120.835 17.1167 120.835 19.2204V42.71C120.835 44.813 122.54 46.5192 124.643 46.5192H132.58C134.683 46.5192 136.389 44.8137 136.389 42.71V19.2204C136.388 17.1167 134.683 14.7767 132.58 14.7767ZM135.721 24.3524V32.2252L133.88 32.4621V29.2185L135.721 24.3524ZM134.755 22.0476C134.069 24.6797 133.257 27.7911 133.257 27.7911H123.965L122.466 22.0476C122.466 22.0476 128.461 20.0107 134.755 22.0476ZM123.365 29.4311V32.4628L121.522 32.2273V24.5643L123.365 29.4311ZM121.522 40.3815V33.3901L123.365 33.6216V39.1532L121.522 40.3815ZM122.573 42.3685L124.07 40.117H133.364L134.862 42.3685H122.573ZM133.88 38.942V33.629L135.721 33.3895V40.171L133.88 38.942Z" fill="white"/>
</g>
<g clip-path="url(#clip1)">
<path d="M222.882 131.348H214.945C212.842 131.348 211.137 133.688 211.137 135.792V159.281C211.137 161.384 212.842 163.09 214.945 163.09H222.882C224.985 163.09 226.691 161.385 226.691 159.281V135.792C226.689 133.688 224.985 131.348 222.882 131.348ZM226.023 140.924V148.797L224.181 149.033V145.79L226.023 140.924ZM225.057 138.619C224.371 141.251 223.559 144.362 223.559 144.362H214.267L212.767 138.619C212.768 138.619 218.763 136.582 225.057 138.619ZM213.666 146.002V149.034L211.824 148.799V141.136L213.666 146.002ZM211.824 156.953V149.961L213.666 150.193V155.724L211.824 156.953ZM212.875 158.94L214.372 156.688H223.666L225.163 158.94H212.875ZM224.181 155.513V150.2L226.023 149.961V156.742L224.181 155.513Z" fill="white"/>
</g>
<g clip-path="url(#clip2)">
<path d="M199.895 102.342H191.959C189.855 102.342 188.15 104.682 188.15 106.786V130.275C188.15 132.378 189.855 134.085 191.959 134.085H199.895C201.998 134.085 203.704 132.379 203.704 130.275V106.786C203.703 104.682 201.998 102.342 199.895 102.342ZM203.037 111.918V119.791L201.195 120.028V116.784L203.037 111.918ZM202.07 109.613C201.385 112.245 200.573 115.356 200.573 115.356H191.281L189.781 109.613C189.782 109.613 195.777 107.576 202.07 109.613ZM190.68 116.997V120.028L188.837 119.793V112.13L190.68 116.997ZM188.837 127.947V120.956L190.68 121.187V126.719L188.837 127.947ZM189.888 129.934L191.385 127.682H200.679L202.177 129.934H189.888ZM201.195 126.507V121.194L203.037 120.955V127.736L201.195 126.507Z" fill="white"/>
</g>
<g clip-path="url(#clip3)">
<path d="M177.457 73.8833H169.52C167.417 73.8833 165.712 76.2232 165.712 78.3269V101.817C165.712 103.92 167.417 105.626 169.52 105.626H177.457C179.56 105.626 181.266 103.92 181.266 101.817V78.3269C181.265 76.2232 179.56 73.8833 177.457 73.8833ZM180.598 83.459V91.3318L178.757 91.5687V88.3251L180.598 83.459ZM179.632 81.1541C178.946 83.7863 178.134 86.8976 178.134 86.8976H168.842L167.343 81.1541C167.343 81.1541 173.338 79.1172 179.632 81.1541ZM168.241 88.5377V91.5694L166.399 91.3338V83.6709L168.241 88.5377ZM166.399 99.4881V92.4967L168.241 92.7282V98.2598L166.399 99.4881ZM167.45 101.475L168.947 99.2235H178.241L179.739 101.475H167.45ZM178.757 98.0485V92.7356L180.598 92.496V99.2775L178.757 98.0485Z" fill="white"/>
</g>
<g clip-path="url(#clip4)">
<path d="M155.019 43.7826H147.083C144.979 43.7826 143.274 46.1225 143.274 48.2262V71.7158C143.274 73.8189 144.979 75.525 147.083 75.525H155.019C157.122 75.525 158.828 73.8195 158.828 71.7158V48.2262C158.827 46.1225 157.122 43.7826 155.019 43.7826ZM158.161 53.3582V61.2311L156.319 61.468V58.2244L158.161 53.3582ZM157.194 51.0534C156.509 53.6856 155.697 56.7969 155.697 56.7969H146.405L144.905 51.0534C144.906 51.0534 150.901 49.0165 157.194 51.0534ZM145.804 58.437V61.4687L143.961 61.2331V53.5702L145.804 58.437ZM143.961 69.3874V62.396L145.804 62.6275V68.1591L143.961 69.3874ZM145.012 71.3743L146.509 69.1228H155.803L157.301 71.3743H145.012ZM156.319 67.9478V62.6349L158.161 62.3953V69.1768L156.319 67.9478Z" fill="white"/>
</g>
<g clip-path="url(#clip5)">
<path d="M87.7028 29.006H79.7665C77.6628 29.006 75.958 31.3459 75.958 33.4496V56.9392C75.958 59.0423 77.6628 60.7484 79.7665 60.7484H87.7028C89.8059 60.7484 91.512 59.0429 91.512 56.9392V33.4496C91.5107 31.3459 89.8059 29.006 87.7028 29.006ZM90.8445 38.5816V46.4545L89.0027 46.6914V43.4477L90.8445 38.5816ZM89.8781 36.2768C89.1924 38.909 88.3804 42.0203 88.3804 42.0203H79.0883L77.5886 36.2768C77.5893 36.2768 83.5845 34.2399 89.8781 36.2768ZM78.4876 43.6603V46.692L76.6451 46.4565V38.7936L78.4876 43.6603ZM76.6451 54.6108V47.6194L78.4876 47.8509V53.3824L76.6451 54.6108ZM77.6959 56.5977L79.1929 54.3462H88.4871L89.9847 56.5977H77.6959ZM89.0027 53.1712V47.8583L90.8445 47.6187V54.4002L89.0027 53.1712Z" fill="white"/>
</g>
<g clip-path="url(#clip6)">
<path d="M42.278 87.5654H34.3417C32.238 87.5654 30.5332 89.9053 30.5332 92.009V115.499C30.5332 117.602 32.238 119.308 34.3417 119.308H42.278C44.381 119.308 46.0872 117.602 46.0872 115.499V92.009C46.0859 89.9053 44.381 87.5654 42.278 87.5654ZM45.4197 97.1411V105.014L43.5779 105.251V102.007L45.4197 97.1411ZM44.4533 94.8363C43.7676 97.4684 42.9556 100.58 42.9556 100.58H33.6634L32.1638 94.8363C32.1645 94.8363 38.1597 92.7994 44.4533 94.8363ZM33.0628 102.22V105.251L31.2203 105.016V97.353L33.0628 102.22ZM31.2203 113.17V106.179L33.0628 106.41V111.942L31.2203 113.17ZM32.2711 115.157L33.7681 112.906H43.0623L44.5599 115.157H32.2711ZM43.5779 111.731V106.418L45.4197 106.178V112.96L43.5779 111.731Z" fill="white"/>
</g>
<g clip-path="url(#clip7)">
<path d="M19.8395 116.571H11.9033C9.79955 116.571 8.09473 118.911 8.09473 121.015V144.505C8.09473 146.608 9.79955 148.314 11.9033 148.314H19.8395C21.9426 148.314 23.6488 146.608 23.6488 144.505V121.015C23.6474 118.911 21.9426 116.571 19.8395 116.571ZM22.9813 126.147V134.02L21.1394 134.257V131.013L22.9813 126.147ZM22.0148 123.842C21.3291 126.474 20.5172 129.586 20.5172 129.586H11.225L9.72531 123.842C9.72599 123.842 15.7212 121.805 22.0148 123.842ZM10.6243 131.226V134.257L8.78179 134.022V126.359L10.6243 131.226ZM8.78179 142.176V135.185L10.6243 135.416V140.948L8.78179 142.176ZM9.83263 144.163L11.3296 141.912H20.6238L22.1214 144.163H9.83263ZM21.1394 140.737V135.424L22.9813 135.184V141.966L21.1394 140.737Z" fill="white"/>
</g>
<g clip-path="url(#clip8)">
<path d="M64.7165 58.0121H56.7802C54.6765 58.0121 52.9717 60.352 52.9717 62.4557V85.9453C52.9717 88.0484 54.6765 89.7545 56.7802 89.7545H64.7165C66.8195 89.7545 68.5257 88.049 68.5257 85.9453V62.4557C68.5244 60.352 66.8195 58.0121 64.7165 58.0121ZM67.8582 67.5877V75.4606L66.0164 75.6975V72.4538L67.8582 67.5877ZM66.8917 65.2829C66.206 67.9151 65.3941 71.0264 65.3941 71.0264H56.1019L54.6023 65.2829C54.6029 65.2829 60.5982 63.246 66.8917 65.2829ZM55.5013 72.6664V75.6982L53.6587 75.4626V67.7997L55.5013 72.6664ZM53.6587 83.6169V76.6255L55.5013 76.857V82.3886L53.6587 83.6169ZM54.7096 85.6038L56.2065 83.3523H65.5007L66.9984 85.6038H54.7096ZM66.0164 82.1773V76.8644L67.8582 76.6248V83.4063L66.0164 82.1773Z" fill="white"/>
</g>
<g clip-path="url(#clip9)">
<path d="M87.7028 29.006H79.7665C77.6628 29.006 75.958 31.3459 75.958 33.4496V56.9392C75.958 59.0423 77.6628 60.7484 79.7665 60.7484H87.7028C89.8059 60.7484 91.512 59.0429 91.512 56.9392V33.4496C91.5107 31.3459 89.8059 29.006 87.7028 29.006ZM90.8445 38.5816V46.4545L89.0027 46.6914V43.4477L90.8445 38.5816ZM89.8781 36.2768C89.1924 38.909 88.3804 42.0203 88.3804 42.0203H79.0883L77.5886 36.2768C77.5893 36.2768 83.5845 34.2399 89.8781 36.2768ZM78.4876 43.6603V46.692L76.6451 46.4565V38.7936L78.4876 43.6603ZM76.6451 54.6108V47.6194L78.4876 47.8509V53.3824L76.6451 54.6108ZM77.6959 56.5977L79.1929 54.3462H88.4871L89.9847 56.5977H77.6959ZM89.0027 53.1712V47.8583L90.8445 47.6187V54.4002L89.0027 53.1712Z" fill="white"/>
</g>
<g clip-path="url(#clip10)">
<path d="M110.141 0H102.205C100.101 0 98.3965 2.33992 98.3965 4.44362V27.9333C98.3965 30.0363 100.101 31.7425 102.205 31.7425H110.141C112.244 31.7425 113.951 30.037 113.951 27.9333V4.44362C113.949 2.33992 112.244 0 110.141 0ZM113.283 9.57565V17.4485L111.441 17.6854V14.4418L113.283 9.57565ZM112.317 7.27083C111.631 9.90298 110.819 13.0143 110.819 13.0143H101.527L100.027 7.27083C100.028 7.27083 106.023 5.23394 112.317 7.27083ZM100.926 14.6544V17.6861L99.0835 17.4505V9.78757L100.926 14.6544ZM99.0835 25.6048V18.6134L100.926 18.8449V24.3765L99.0835 25.6048ZM100.134 27.5917L101.631 25.3402H110.926L112.423 27.5917H100.134ZM111.441 24.1652V18.8523L113.283 18.6127V25.3942L111.441 24.1652Z" fill="white"/>
</g>
</g>
<defs>
<clipPath id="clip0">
<rect width="31.7425" height="31.7425" fill="white" transform="translate(112.74 14.7767)"/>
</clipPath>
<clipPath id="clip1">
<rect width="31.7425" height="31.7425" fill="white" transform="translate(203.042 131.348)"/>
</clipPath>
<clipPath id="clip2">
<rect width="31.7425" height="31.7425" fill="white" transform="translate(180.056 102.342)"/>
</clipPath>
<clipPath id="clip3">
<rect width="31.7425" height="31.7425" fill="white" transform="translate(157.617 73.8833)"/>
</clipPath>
<clipPath id="clip4">
<rect width="31.7425" height="31.7425" fill="white" transform="translate(135.18 43.7826)"/>
</clipPath>
<clipPath id="clip5">
<rect width="31.7425" height="31.7425" fill="white" transform="translate(67.8633 29.006)"/>
</clipPath>
<clipPath id="clip6">
<rect width="31.7425" height="31.7425" fill="white" transform="translate(22.4385 87.5654)"/>
</clipPath>
<clipPath id="clip7">
<rect width="31.7425" height="31.7425" fill="white" transform="translate(0 116.571)"/>
</clipPath>
<clipPath id="clip8">
<rect width="31.7425" height="31.7425" fill="white" transform="translate(44.877 58.0121)"/>
</clipPath>
<clipPath id="clip9">
<rect width="31.7425" height="31.7425" fill="white" transform="translate(67.8633 29.006)"/>
</clipPath>
<clipPath id="clip10">
<rect width="31.7425" height="31.7425" fill="white" transform="translate(90.3018)"/>
</clipPath>
</defs>
</svg>
