<svg width="152" height="42" viewBox="0 0 152 42" fill="none" xmlns="http://www.w3.org/2000/svg">
<g clip-path="url(#clip0_813_361)">
<path d="M41.7883 41.9999H144.554L147.847 25.8921H64.5128C51.1663 25.8844 43.5991 33.9634 41.7883 41.9999Z" fill="#BF8F50"/>
<path d="M58.5734 37.1968C58.3637 37.1968 58.2188 37.1389 58.1426 37.0232C58.0663 36.9074 58.0473 36.7492 58.0854 36.5486L59.1033 31.6796C59.1757 31.3092 59.3968 31.124 59.7628 31.124C59.9229 31.124 60.0487 31.1587 60.1364 31.2321C60.224 31.3054 60.2965 31.425 60.3537 31.5947L61.4249 34.8703L63.9486 31.5021C64.0439 31.3671 64.1468 31.2706 64.2573 31.2128C64.3679 31.1549 64.5051 31.124 64.6652 31.124C64.8635 31.124 65.0083 31.1819 65.0922 31.2976C65.1761 31.4134 65.199 31.5716 65.157 31.7722L64.1468 36.6412C64.0667 37.0116 63.8418 37.1968 63.4758 37.1968C63.2814 37.1968 63.1404 37.1389 63.0565 37.0232C62.9688 36.9074 62.9498 36.7492 62.9955 36.5486L63.6283 33.4968L61.7337 36.0316C61.6574 36.1319 61.5774 36.2052 61.5011 36.2515C61.4249 36.2978 61.3258 36.3171 61.2114 36.3171C60.9827 36.3171 60.8264 36.1975 60.7387 35.9544L59.8809 33.5199L59.2367 36.6373C59.1528 37.0116 58.9317 37.1968 58.5734 37.1968Z" fill="white"/>
<path d="M68.1077 37.2276C67.5701 37.2276 67.1051 37.1234 66.7124 36.9151C66.3198 36.7068 66.0224 36.4058 65.8242 36.0123C65.6221 35.6187 65.5383 35.1442 65.5649 34.5886C65.5992 33.9096 65.7594 33.3077 66.0453 32.783C66.3312 32.2583 66.7124 31.8455 67.1965 31.5484C67.6769 31.2513 68.2373 31.1008 68.8777 31.1008C69.4229 31.1008 69.888 31.205 70.2806 31.4133C70.6733 31.6217 70.9668 31.9226 71.165 32.3162C71.3633 32.7097 71.4509 33.1804 71.4204 33.7321C71.3861 34.4189 71.226 35.0246 70.9439 35.5493C70.6618 36.074 70.2768 36.4868 69.7926 36.7839C69.3047 37.081 68.7443 37.2276 68.1077 37.2276ZM68.1877 36.1165C68.5613 36.1165 68.8815 36.0161 69.156 35.8117C69.4305 35.6072 69.644 35.3294 69.8041 34.9783C69.9642 34.6272 70.0519 34.2182 70.0747 33.7553C70.1014 33.2344 69.9985 32.8447 69.7698 32.5939C69.541 32.3432 69.2132 32.2158 68.79 32.2158C68.4164 32.2158 68.0962 32.3162 67.8256 32.5168C67.5549 32.7174 67.3414 32.9913 67.1813 33.3463C67.025 33.7012 66.9335 34.1102 66.9106 34.577C66.884 35.0979 66.9831 35.4876 67.2118 35.7383C67.4443 35.9891 67.7684 36.1165 68.1877 36.1165Z" fill="white"/>
<path d="M73.5973 37.2122C73.3914 37.2122 73.2427 37.1466 73.1512 37.0115C73.0597 36.8765 73.0369 36.6875 73.0902 36.4482L73.9556 32.2776H72.5909C72.4117 32.2776 72.2783 32.239 72.1791 32.158C72.08 32.0769 72.0381 31.9728 72.0457 31.8377C72.0571 31.6371 72.122 31.4789 72.2401 31.367C72.3583 31.2551 72.5184 31.1973 72.7205 31.1973H76.8414C77.2188 31.1973 77.4018 31.34 77.3866 31.6255C77.3751 31.8261 77.3141 31.9882 77.196 32.1001C77.0778 32.2158 76.9215 32.2737 76.7194 32.2737H75.2556L74.3597 36.5524C74.2606 36.9922 74.009 37.2122 73.5973 37.2122Z" fill="white"/>
<path d="M79.7196 37.2276C79.1821 37.2276 78.717 37.1234 78.3243 36.9151C77.9317 36.7068 77.6343 36.4058 77.4361 36.0123C77.2341 35.6187 77.1502 35.1442 77.1769 34.5886C77.2112 33.9096 77.3713 33.3077 77.6572 32.783C77.9431 32.2583 78.3243 31.8455 78.8085 31.5484C79.2926 31.2513 79.8492 31.1008 80.4897 31.1008C81.0348 31.1008 81.4999 31.205 81.8926 31.4133C82.2852 31.6217 82.5788 31.9226 82.777 32.3162C82.9752 32.7097 83.0629 33.1804 83.0324 33.7321C82.9981 34.4189 82.838 35.0246 82.5559 35.5493C82.2738 36.074 81.8887 36.4868 81.4046 36.7839C80.9204 37.081 80.3601 37.2276 79.7196 37.2276ZM79.8035 36.1165C80.1771 36.1165 80.4973 36.0161 80.7718 35.8117C81.0462 35.611 81.2597 35.3294 81.4198 34.9783C81.58 34.6272 81.6676 34.2182 81.6905 33.7553C81.7172 33.2344 81.6143 32.8447 81.3855 32.5939C81.1568 32.3432 80.829 32.2158 80.4058 32.2158C80.0322 32.2158 79.712 32.3162 79.4413 32.5168C79.1707 32.7174 78.9572 32.9913 78.7971 33.3463C78.6369 33.7012 78.5493 34.1102 78.5264 34.577C78.4997 35.0979 78.5988 35.4876 78.8276 35.7383C79.0563 35.9891 79.3803 36.1165 79.8035 36.1165Z" fill="white"/>
<path d="M83.9473 37.2122C83.7415 37.2122 83.5966 37.1466 83.5089 37.0116C83.4213 36.8765 83.4022 36.6875 83.4479 36.4483L84.4086 31.8493C84.4963 31.4172 84.7593 31.2012 85.1901 31.2012H86.9132C87.5956 31.2012 88.1027 31.3478 88.4305 31.6449C88.7584 31.9419 88.9108 32.3548 88.8803 32.8872C88.846 33.5624 88.6173 34.0832 88.1903 34.4497C87.7672 34.8163 87.1687 35.0015 86.3948 35.0015H85.03L84.7098 36.5602C84.6259 36.9923 84.3705 37.2122 83.9473 37.2122ZM85.2549 33.9868H86.5053C87.2258 33.9868 87.6033 33.655 87.6376 32.9914C87.6642 32.4744 87.3516 32.2159 86.7036 32.2159H85.6209L85.2549 33.9868Z" fill="white"/>
<path d="M89.4788 37.2122C89.2577 37.2122 89.1052 37.1427 89.0175 37.0038C88.9299 36.8649 88.9146 36.6759 88.968 36.4367L89.9401 31.776C90.0278 31.3362 90.287 31.1201 90.7063 31.1201C90.9236 31.1201 91.0723 31.1896 91.1562 31.3285C91.24 31.4673 91.2591 31.6564 91.2057 31.8956L90.8512 33.5816H93.5731L93.9581 31.7799C94.0458 31.34 94.3012 31.124 94.7168 31.124C94.9341 31.124 95.0865 31.1896 95.1742 31.3246C95.2619 31.4596 95.2772 31.6487 95.22 31.8995L94.2555 36.5486C94.1602 36.9922 93.9048 37.216 93.4892 37.216C93.2681 37.216 93.1156 37.1466 93.0356 37.0077C92.9555 36.8688 92.9403 36.6797 92.9898 36.4405L93.3558 34.6696H90.6263L90.2374 36.5486C90.1498 36.9884 89.8944 37.2122 89.4788 37.2122Z" fill="white"/>
<path d="M96.0663 37.135C95.8376 37.135 95.6737 37.0694 95.5745 36.9421C95.4716 36.8148 95.4449 36.6334 95.4907 36.4019L96.4513 31.7683C96.4895 31.5599 96.5733 31.4018 96.6953 31.2899C96.8173 31.178 96.9851 31.1201 97.1909 31.1201C97.4082 31.1201 97.5607 31.1818 97.656 31.3092C97.7513 31.4365 97.7742 31.614 97.7284 31.8455L97.3625 33.5893H98.3536C99.036 33.5893 99.5354 33.7398 99.8518 34.0446C100.168 34.3494 100.317 34.7314 100.29 35.1982C100.26 35.8271 100.039 36.3093 99.6269 36.6373C99.219 36.9691 98.6357 37.135 97.8733 37.135H96.0663V37.135ZM96.8364 36.1242H97.961C98.6662 36.1242 99.0322 35.8425 99.0627 35.2715C99.0741 35.04 99.0093 34.8703 98.8645 34.7622C98.7196 34.6542 98.4756 34.5963 98.1325 34.5963H97.1604L96.8364 36.1242ZM101.251 37.2122C101.041 37.2122 100.885 37.1504 100.79 37.0231C100.694 36.8958 100.671 36.7183 100.721 36.4868L101.708 31.7451C101.792 31.3285 102.036 31.1201 102.44 31.1201C102.658 31.1201 102.814 31.1818 102.909 31.3092C103.005 31.4365 103.031 31.614 102.985 31.8455L101.998 36.5871C101.914 37.0038 101.666 37.2122 101.251 37.2122Z" fill="white"/>
<path d="M103.817 37.1349C103.329 37.1349 103.134 36.8919 103.229 36.4019L104.182 31.8261C104.266 31.4056 104.518 31.1934 104.941 31.1934H107.804C108.159 31.1934 108.33 31.3323 108.315 31.6062C108.303 31.7991 108.242 31.9457 108.128 32.0537C108.014 32.1618 107.865 32.2119 107.682 32.2119H105.334L105.044 33.6009H107.118C107.469 33.6009 107.636 33.7398 107.621 34.0137C107.61 34.2105 107.549 34.3609 107.434 34.4689C107.32 34.577 107.175 34.631 106.996 34.631H104.831L104.522 36.1125H106.771C107.125 36.1125 107.297 36.2514 107.282 36.5254C107.27 36.7183 107.209 36.8649 107.095 36.9729C106.981 37.0809 106.832 37.1349 106.649 37.1349H103.817V37.1349Z" fill="white"/>
<path d="M111.063 37.1968C110.854 37.1968 110.709 37.1389 110.633 37.0232C110.556 36.9074 110.537 36.7492 110.576 36.5486L111.593 31.6796C111.67 31.3092 111.887 31.124 112.257 31.124C112.417 31.124 112.543 31.1587 112.63 31.2321C112.718 31.3054 112.79 31.425 112.848 31.5947L113.919 34.8703L116.443 31.5021C116.538 31.3671 116.641 31.2706 116.751 31.2128C116.862 31.1549 116.999 31.124 117.159 31.124C117.357 31.124 117.502 31.1819 117.586 31.2976C117.67 31.4134 117.693 31.5716 117.651 31.7722L116.641 36.6412C116.561 37.0116 116.336 37.1968 115.97 37.1968C115.775 37.1968 115.634 37.1389 115.55 37.0232C115.463 36.9074 115.444 36.7492 115.489 36.5486L116.122 33.4968L114.228 36.0316C114.151 36.1319 114.071 36.2052 113.995 36.2515C113.919 36.2978 113.82 36.3171 113.705 36.3171C113.477 36.3171 113.32 36.1975 113.233 35.9544L112.375 33.5199L111.731 36.6373C111.643 37.0116 111.426 37.1968 111.063 37.1968Z" fill="white"/>
<path d="M117.952 37.2122C117.723 37.2122 117.563 37.1389 117.464 36.9884C117.365 36.8418 117.388 36.6605 117.525 36.4444L120.758 31.5677C120.861 31.4095 120.968 31.2976 121.082 31.2282C121.196 31.1587 121.341 31.124 121.513 31.124C121.856 31.124 122.073 31.3054 122.161 31.6642L123.32 36.4252C123.385 36.6875 123.358 36.8881 123.243 37.0193C123.129 37.1505 122.969 37.2161 122.771 37.2161C122.588 37.2161 122.451 37.1698 122.351 37.0772C122.256 36.9846 122.187 36.838 122.149 36.6451L121.993 35.8464H119.229L118.612 36.8341C118.448 37.0849 118.23 37.2122 117.952 37.2122ZM121.288 32.5863L119.873 34.8279H121.772L121.307 32.5863H121.288Z" fill="white"/>
<path d="M126.739 37.2275C126.206 37.2275 125.737 37.1272 125.333 36.9228C124.928 36.7221 124.616 36.4173 124.399 36.0122C124.181 35.6071 124.086 35.1056 124.12 34.5037C124.143 34.0253 124.238 33.5816 124.406 33.1726C124.57 32.7637 124.799 32.401 125.089 32.0885C125.378 31.776 125.729 31.5329 126.141 31.3593C126.552 31.1857 127.014 31.0969 127.532 31.0969C127.822 31.0969 128.104 31.1316 128.379 31.205C128.657 31.2783 128.905 31.3863 129.13 31.5329C129.274 31.6216 129.354 31.7412 129.373 31.8917C129.393 32.0422 129.362 32.1811 129.29 32.3161C129.217 32.4511 129.114 32.5476 128.988 32.6093C128.863 32.6711 128.729 32.6633 128.596 32.5823C128.386 32.455 128.188 32.3663 128.005 32.3161C127.822 32.2698 127.631 32.2428 127.437 32.2428C127.037 32.2428 126.697 32.3393 126.415 32.5322C126.133 32.7251 125.916 32.9913 125.759 33.3231C125.603 33.6549 125.516 34.033 125.493 34.4497C125.462 35.013 125.569 35.4181 125.809 35.6766C126.049 35.9312 126.427 36.0585 126.941 36.0585C127.113 36.0585 127.288 36.0392 127.46 35.9968C127.631 35.9544 127.81 35.8849 127.993 35.7885C128.165 35.7036 128.31 35.692 128.432 35.7499C128.554 35.8077 128.638 35.9042 128.683 36.0315C128.729 36.1588 128.729 36.2977 128.687 36.4405C128.645 36.5832 128.539 36.699 128.375 36.7916C128.135 36.9305 127.864 37.0385 127.566 37.1079C127.273 37.1928 126.995 37.2275 126.739 37.2275Z" fill="white"/>
<path d="M134.101 37.2121C133.891 37.2121 133.738 37.1465 133.647 37.0192C133.555 36.8919 133.533 36.7067 133.578 36.4713L134.451 32.2736H132.629L132.385 33.462C132.244 34.1256 132.072 34.6927 131.87 35.1634C131.665 35.6341 131.421 36.0315 131.135 36.3479C130.849 36.6642 130.509 36.9266 130.117 37.1272C129.953 37.2121 129.797 37.2391 129.652 37.216C129.507 37.189 129.393 37.1002 129.312 36.942C129.232 36.7838 129.217 36.6372 129.274 36.4983C129.328 36.3594 129.434 36.2437 129.595 36.1472C129.858 35.9968 130.094 35.7962 130.3 35.5492C130.506 35.3023 130.689 34.9821 130.845 34.5924C131.001 34.2027 131.142 33.7127 131.268 33.1224L131.543 31.8261C131.63 31.4056 131.882 31.1934 132.301 31.1934H135.24C135.473 31.1934 135.641 31.2551 135.744 31.3824C135.847 31.5097 135.873 31.6911 135.828 31.9264L134.855 36.5871C134.764 37.0038 134.516 37.2121 134.101 37.2121Z" fill="white"/>
<path d="M136.14 37.2122C135.911 37.2122 135.751 37.1389 135.652 36.9884C135.553 36.8418 135.576 36.6605 135.713 36.4444L138.946 31.5677C139.049 31.4095 139.156 31.2976 139.27 31.2282C139.384 31.1587 139.529 31.124 139.701 31.124C140.044 31.124 140.261 31.3054 140.349 31.6642L141.508 36.4252C141.572 36.6875 141.546 36.8881 141.431 37.0193C141.317 37.1505 141.157 37.2161 140.959 37.2161C140.776 37.2161 140.638 37.1698 140.539 37.0772C140.444 36.9846 140.375 36.838 140.337 36.6451L140.177 35.8541H137.413L136.796 36.8418C136.636 37.0849 136.418 37.2122 136.14 37.2122ZM139.476 32.5863L138.061 34.8279H139.96L139.495 32.5863H139.476Z" fill="white"/>
<path d="M80.5926 20.2129H73.4295L72.4574 16.6017H62.2636L59.8924 20.2129H53.0114L58.8364 11.9256H71.2489L69.6021 5.62908H69.4877L69.1294 6.15379C66.3503 10.3746 63.5216 10.3746 59.9229 10.3746L66.9107 0.432129H74.6685L80.5926 20.2129Z" fill="#BF8F50"/>
<path d="M106.725 7.04503C107.19 4.73398 106.805 3.14442 105.574 2.07957C103.938 0.636612 101.121 0.432129 97.3243 0.432129H86.7341L85.7848 5.13909H96.2607C99.036 5.13909 100.603 5.22397 100.203 7.21864C99.848 8.98183 98.7615 9.44095 95.4792 9.44095H91.3163L91.8729 6.68622C87.4698 6.68622 84.969 9.00112 84.2104 12.9557L82.7465 20.2129H89.1472L90.4205 13.8894H93.9315L97.4425 20.2129H105.143L100.957 13.1679C104.636 12.242 106.142 9.93093 106.725 7.04503Z" fill="#BF8F50"/>
<path d="M109.325 0.432129L108.345 5.28184H129.217L130.197 0.432129H109.325Z" fill="#BF8F50"/>
<path d="M115.871 6.83276L113.172 20.2129H119.572L121.01 13.0907C122.024 8.00951 118.978 6.83276 115.871 6.83276Z" fill="#BF8F50"/>
<path d="M23.2879 15.6333C19.3232 15.3632 14.2835 15.6333 12.8234 15.6333C8.3441 15.6333 6.48756 14.0167 7.27668 10.1161C8.07343 6.15763 10.5323 4.94231 14.9811 4.94231C19.4605 4.94231 21.3208 6.53188 20.5355 10.4325C20.1924 12.1301 19.7349 13.1525 18.7628 13.9627C22.1824 13.9627 26.4482 13.1409 27.306 8.95094C27.7825 6.30038 27.2068 3.55337 25.1063 1.96766C23.0134 0.405107 20.0018 0 15.9799 0C11.9542 0 8.7825 0.405107 6.05678 1.96381C2.91172 3.78486 1.42115 6.81738 0.71971 10.2859C0.0144538 13.7814 0.292744 16.7599 2.70205 18.5771C4.78351 20.1936 8.24498 20.5949 12.2707 20.5949C17.2379 20.5949 24.3667 20.047 28.6707 23.612C30.7026 18.4305 29.5856 16.2159 23.2879 15.6333Z" fill="#BF8F50"/>
<path d="M34.0457 0.432129L31.8804 11.1771C31.6669 12.2343 31.5182 13.2104 31.4687 14.1055H32.1701C34.9721 13.9396 37.8884 12.9635 38.9063 8.08287L40.4502 0.435987H34.0457V0.432129Z" fill="#BF8F50"/>
<path d="M49.9083 0.432129L47.7773 11.0035C47.0949 14.391 45.368 15.6526 41.8836 15.6526C41.8836 15.6526 33.9619 15.6526 31.4992 15.6526C32.0367 20.3711 37.6483 20.6181 41.327 20.6181C44.9791 20.6181 47.4265 20.3017 50.1523 18.4536C52.4548 16.8641 53.3736 14.4103 54.0254 11.1771L56.1908 0.432129H49.9083V0.432129Z" fill="#BF8F50"/>
<path d="M132.438 0.432129L131.462 5.28184H141.37L141.336 5.45546L128.386 15.3324L127.402 20.2129H131.798L150.973 5.28184L151.949 0.432129H132.438Z" fill="#BF8F50"/>
<path d="M136.483 20.213H149.01L150.005 15.344H143.353C139.316 15.344 137.028 17.7862 136.483 20.213Z" fill="#BF8F50"/>
</g>
<defs>
<clipPath id="clip0_813_361">
<rect width="151.565" height="42" fill="white" transform="translate(0.384064)"/>
</clipPath>
</defs>
</svg>
