<svg width="189" height="77" viewBox="0 0 189 77" fill="none" xmlns="http://www.w3.org/2000/svg">
<g clip-path="url(#clip0)">
<path d="M85.6736 15.5389C77.6667 15.5389 73.0793 18.9042 73.0793 24.7739C73.0793 30.5827 77.6667 33.9468 85.6736 33.9468C93.6715 33.9468 98.2498 30.5827 98.2498 24.7739C98.2498 18.9042 93.6715 15.5389 85.6736 15.5389ZM85.6736 29.685C81.2939 29.685 79.0822 28.0438 79.0822 24.7739C79.0822 21.4691 81.2939 19.8135 85.6736 19.8135C90.0438 19.8135 92.2769 21.4691 92.2769 24.7739C92.2769 28.0438 90.0438 29.685 85.6736 29.685Z" fill="#C3072C"/>
<path d="M121.733 15.9884H99.8878V19.9136H107.471V32.1028C107.471 33.265 109.285 33.6854 110.818 33.6854C112.348 33.6854 114.162 33.2862 114.162 32.1028V19.9136H121.733V15.9884Z" fill="#C3072C"/>
<path d="M162.083 29.4424C160.23 29.4424 158.957 29.1382 158.261 28.5756C157.357 27.8237 157.253 26.7079 157.229 25.8607V17.2581C157.229 16.1107 155.507 15.7368 154.04 15.7368C152.55 15.7368 150.819 16.1107 150.819 17.2389V25.5718C150.819 28.7499 151.862 30.9802 153.941 32.2034C156.505 33.659 161.169 33.6065 165.652 33.5516H171.257V29.4424H162.083Z" fill="#C3072C"/>
<path d="M75.8538 10.6662H49.369V14.9946H58.5018V28.1384C58.5018 31.2436 61.1711 33.3556 65.6974 33.7216V14.9946H75.8538V10.6662Z" fill="#C3072C"/>
<path d="M136.489 16.2009C135.924 15.8226 135.332 15.7368 134.558 15.7136C133.765 15.7368 133.149 15.8226 132.601 16.2009C130.87 17.4201 122.505 25.6472 121.032 32.8435L120.864 33.5548H126.781L126.89 33.0394C127.137 32.0231 127.517 30.9169 128.037 29.7791H141.048C141.566 30.9169 141.958 32.0231 142.176 33.0394L142.301 33.5548H148.229L148.072 32.8435C146.578 25.6472 138.221 17.4201 136.489 16.2009ZM130.124 26.0772C131.37 24.228 132.876 22.4249 134.558 20.8178C136.21 22.4249 137.71 24.228 138.96 26.0772H130.124Z" fill="#C3072C"/>
<path d="M118.026 42.0593H110.901L104.484 50.8888C107.787 50.8888 110.386 50.8888 112.937 47.1399L113.266 46.6754H113.371L114.882 52.2663H103.482L98.1334 59.6261H104.452L106.63 56.4203H115.992L116.885 59.6261H123.464L118.026 42.0593Z" fill="#A8844E"/>
<path d="M147.463 47.9323C147.891 45.8807 147.536 44.4696 146.407 43.5218C144.906 42.2393 142.317 42.0593 138.832 42.0593H129.106L128.234 46.2394H137.856C140.404 46.2394 141.845 46.3164 141.476 48.0858C141.149 49.6504 140.154 50.0608 137.137 50.0608H133.314L133.824 47.6157C129.779 47.6157 127.482 49.6721 126.785 53.1829L125.44 59.6257H131.318L132.49 54.0097H135.714L138.938 59.6257H146.012L142.168 53.3684C145.547 52.5468 146.929 50.4961 147.463 47.9323Z" fill="#A8844E"/>
<path d="M149.851 42.0595L148.952 46.3679H168.121L169.02 42.0595H149.851Z" fill="#A8844E"/>
<path d="M155.862 47.7443L153.383 59.6261H159.26L160.58 53.3011C161.515 48.7891 158.717 47.7443 155.862 47.7443Z" fill="#A8844E"/>
<path d="M60.7196 59.9664C60.5086 59.9693 60.9357 59.9664 60.7196 59.9664Z" fill="#A8844E"/>
<path d="M70.8333 55.5574C67.1929 55.3165 62.565 55.5574 61.2237 55.5574C57.1098 55.5574 55.4051 54.1206 56.1276 50.6571C56.8612 47.1415 59.1172 46.0643 63.2048 46.0643C67.3174 46.0643 69.0274 47.4758 68.3053 50.9393C67.9908 52.4458 67.5714 53.3547 66.6785 54.0749C69.82 54.0749 73.738 53.3435 74.5236 49.6243C74.9627 47.2694 74.4339 44.8311 72.5031 43.4215C70.5793 42.0361 67.8163 41.6766 64.1198 41.6766C60.4225 41.6766 57.51 42.0361 55.0087 43.4215C52.1199 45.0375 50.7506 47.7327 50.1084 50.811C49.4605 53.9154 49.716 56.5581 51.9307 58.1741C53.843 59.6108 57.0218 59.9663 60.7191 59.9663C65.283 59.9663 71.8282 59.4798 75.7798 62.6467C77.6426 58.0438 76.6186 56.0744 70.8333 55.5574Z" fill="#A8844E"/>
<path d="M80.7142 42.0593L78.7245 51.599C78.5283 52.5392 78.3907 53.4061 78.3444 54.198H78.9899C81.5641 54.0509 84.2436 53.1833 85.1754 48.8505L86.5922 42.0593H80.7142Z" fill="#A8844E"/>
<path d="M95.2828 42.0593L93.3246 51.4455C92.6967 54.4549 91.1125 55.5743 87.912 55.5743H78.3761C78.8693 59.7636 84.0234 59.9848 87.4033 59.9848C90.7582 59.9848 93.006 59.7027 95.5069 58.0615C97.622 56.6516 98.4661 54.4713 99.0657 51.599L101.056 42.0593H95.2828Z" fill="#A8844E"/>
<path d="M171.081 42.0595L170.183 46.3678H179.285L179.253 46.5213L167.358 55.2923L166.454 59.6259H170.493L188.101 46.3678L189 42.0595H171.081Z" fill="#A8844E"/>
<path d="M174.794 59.6258H186.298L187.212 55.3015H181.103C177.397 55.2999 175.296 57.4688 174.794 59.6258Z" fill="#A8844E"/>
<path d="M39.3018 23.4462C39.2744 23.3552 39.2391 23.2702 39.2051 23.1849C36.1316 26.6151 28.5892 28.8378 21.8024 28.344C17.8053 28.0531 10.4013 26.03 6.66591 23.7884C10.6143 27.4892 15.2286 30.3018 20.4627 31.8192C26.6756 33.6279 33.3006 33.5048 37.0348 31.6007C39.7765 29.7932 40.397 26.5626 39.3018 23.4462Z" fill="#DD9216"/>
<path d="M30.7583 1.85526C42.9917 8.92452 35.7097 31.1703 25.9756 38.3189C16.9177 44.9658 7.27818 41.9014 5.19013 35.77C7.01646 38.4259 10.6372 39.397 13.8548 38.3378C22.7977 34.8298 27.4026 18.9715 27.9977 13.4657C28.3958 8.72694 27.7655 5.54158 26.0837 3.53771C24.1554 1.54546 21.2072 0.57799 16.8862 1.90495C19.8577 -0.482058 26.2205 -0.765806 30.7583 1.85526Z" fill="#274195"/>
<path d="M37.6025 31.2864C37.6451 31.2576 37.6996 31.2247 37.7483 31.1959C37.7553 31.1863 37.7676 31.1834 37.7725 31.1782C38.0232 31.0167 38.2722 30.8368 38.5048 30.6288C38.6109 30.5342 38.7219 30.4316 38.8284 30.3214C43.5882 25.5951 44.5982 12.4509 32.8678 6.22443C28.6949 4.00534 18.9882 0.90134 9.31146 5.68979C6.10771 7.27085 2.80566 10.5596 1.02398 15.025C2.33874 12.9049 4.60946 11.467 9.08496 10.8494C13.5478 10.2975 19.7042 10.976 25.7226 13.0568C29.6046 14.4583 32.7441 16.1881 35.2007 18.1487C37.2253 19.8463 38.5269 21.4651 39.2048 23.1836C39.2392 23.2702 39.2744 23.3551 39.3015 23.4461C40.3971 26.5625 39.7762 29.7924 37.0348 31.6015C37.0316 31.6051 37.041 31.6007 37.0348 31.6015C37.1647 31.5353 37.2863 31.4704 37.4252 31.3886C37.4477 31.379 37.4633 31.3698 37.4846 31.3562C37.5173 31.3333 37.5603 31.3089 37.6025 31.2864Z" fill="#C3072C"/>
<path d="M2.53946 22.588C2.76473 22.9379 3.27262 23.5331 3.60192 23.9078C5.95743 18.4957 18.8363 14.9809 22.634 15.0254C14.0999 12.335 5.73461 13.6191 2.3744 16.4722C1.15303 17.8048 0.772117 19.803 2.53946 22.588Z" fill="#DD9216"/>
<path d="M27.6566 34.8606C20.7978 34.4874 10.8109 31.8992 3.73539 24.0565C3.69893 24.0056 3.65347 23.9607 3.60186 23.9062C3.27215 23.5331 2.76468 22.9371 2.53941 22.5876C0.772061 19.8035 1.15297 17.8044 2.37394 16.475H2.37107C2.15153 16.6686 1.87916 16.9179 1.57402 17.3062C-0.241245 19.5979 -0.457914 23.3171 0.776566 27.2599C3.47284 35.8216 15.2655 40.9732 24.8358 39.5592C30.9513 38.6567 34.7829 35.2874 36.3778 33.9115C32.9136 34.8774 30.3545 35.0113 27.6566 34.8606Z" fill="#7299CE"/>
<path d="M53.3314 67.4849H55.6193L56.6567 74.5658H56.6838L60.807 67.4849H63.1617L61.2064 76.7785H59.6098L61.2592 69.3333H61.233L56.9361 76.7785H55.6328L54.4356 69.3333H54.409L52.9586 76.7785H51.3625L53.3314 67.4849Z" fill="#A8844E"/>
<path d="M63.9874 72.9386C63.9874 71.9671 64.1361 71.1231 64.433 70.4069C64.73 69.6911 65.1203 69.1012 65.6036 68.6367C66.0869 68.1726 66.6325 67.8279 67.2399 67.6019C67.8473 67.3762 68.4613 67.2636 69.0822 67.2636C69.7031 67.2636 70.2704 67.3634 70.7848 67.563C71.2993 67.7626 71.7359 68.0423 72.0951 68.4026C72.4543 68.7625 72.7336 69.1897 72.9335 69.6847C73.1329 70.1792 73.2325 70.7259 73.2325 71.3247C73.2325 72.3054 73.0908 73.1514 72.8069 73.8632C72.5231 74.5745 72.1463 75.1625 71.6761 75.6266C71.2059 76.0907 70.6697 76.4353 70.0664 76.6614C69.4635 76.8866 68.843 77 68.2045 77C67.5213 77 66.9184 76.8954 66.3953 76.687C65.8719 76.479 65.4328 76.1925 65.0785 75.8286C64.7234 75.4639 64.4531 75.0338 64.2667 74.5397C64.0808 74.0451 63.9874 73.5117 63.9874 72.9386ZM65.6503 72.8865C65.6503 73.7546 65.8764 74.4355 66.3286 74.9304C66.7812 75.4246 67.4238 75.6719 68.2577 75.6719C68.8074 75.6719 69.2882 75.5464 69.7011 75.2943C70.1131 75.043 70.4592 74.7132 70.7385 74.3052C71.0179 73.8976 71.2259 73.4379 71.3636 72.9258C71.5012 72.4136 71.57 71.897 71.57 71.3768C71.57 70.5091 71.3545 69.8278 70.9245 69.3332C70.4944 68.8383 69.8624 68.5914 69.0293 68.5914C68.4613 68.5914 67.9669 68.7172 67.5458 68.9689C67.1248 69.2206 66.7746 69.55 66.4953 69.9576C66.2155 70.3656 66.005 70.8257 65.8633 71.3375C65.7212 71.8497 65.6503 72.3659 65.6503 72.8865Z" fill="#A8844E"/>
<path d="M74.8258 67.4849H82.6475L82.3416 68.8908H79.3222L77.6457 76.7785H75.9832L77.6593 68.8908H74.5333L74.8258 67.4849Z" fill="#A8844E"/>
<path d="M82.6368 72.9386C82.6368 71.9671 82.7855 71.1231 83.0824 70.4069C83.3794 69.6911 83.7697 69.1012 84.253 68.6367C84.7363 68.1726 85.2819 67.8279 85.8893 67.6019C86.4967 67.3762 87.1106 67.2636 87.7316 67.2636C88.3525 67.2636 88.9198 67.3634 89.4342 67.563C89.9486 67.7626 90.3853 68.0423 90.7445 68.4026C91.1037 68.7625 91.383 69.1897 91.5825 69.6847C91.7823 70.1792 91.8819 70.7259 91.8819 71.3247C91.8819 72.3054 91.7402 73.1514 91.4563 73.8632C91.1721 74.5745 90.7952 75.1625 90.3255 75.6266C89.8553 76.0907 89.3191 76.4353 88.7158 76.6614C88.1129 76.8866 87.4924 77 86.8538 77C86.1707 77 85.5677 76.8954 85.0443 76.687C84.5213 76.479 84.0822 76.1925 83.7275 75.8286C83.3728 75.4639 83.1025 75.0338 82.9161 74.5397C82.7298 74.0451 82.6368 73.5117 82.6368 72.9386ZM84.2997 72.8865C84.2997 73.7546 84.5258 74.4355 84.978 74.9304C85.4301 75.4246 86.0736 75.6719 86.9067 75.6719C87.4567 75.6719 87.938 75.5464 88.3505 75.2943C88.7625 75.043 89.1082 74.7132 89.3879 74.3052C89.6673 73.8976 89.8753 73.4379 90.0125 72.9258C90.1502 72.4136 90.219 71.897 90.219 71.3768C90.219 70.5091 90.0039 69.8278 89.5739 69.3332C89.1438 68.8383 88.5118 68.5914 87.6783 68.5914C87.1106 68.5914 86.6163 68.7172 86.1952 68.9689C85.7738 69.2206 85.4236 69.55 85.1442 69.9576C84.8649 70.3656 84.654 70.8257 84.5123 71.3375C84.3705 71.8497 84.2997 72.3659 84.2997 72.8865Z" fill="#A8844E"/>
<path d="M94.7666 67.4852H98.5843C99.0812 67.4852 99.4981 67.5353 99.8352 67.6351C100.172 67.7349 100.451 67.8648 100.673 68.0255C100.895 68.1858 101.066 68.3681 101.185 68.5721C101.305 68.7761 101.392 68.9821 101.444 69.1901C101.498 69.3985 101.529 69.6025 101.538 69.8021C101.546 70.0021 101.551 70.1752 101.551 70.3227C101.551 70.3315 101.544 70.4097 101.531 70.5572C101.517 70.7047 101.478 70.8846 101.412 71.0974C101.345 71.3098 101.241 71.5399 101.099 71.7871C100.957 72.0344 100.758 72.2641 100.5 72.4773C100.243 72.6897 99.9167 72.8652 99.5223 73.0039C99.1274 73.143 98.6421 73.2123 98.0662 73.2123H95.2192L94.4611 76.7788H92.7982L94.7666 67.4852ZM95.4985 71.8845H98.0126C98.3849 71.8845 98.6929 71.8304 98.9374 71.7222C99.1807 71.6136 99.3716 71.4729 99.5092 71.299C99.6464 71.1255 99.7439 70.9327 99.8016 70.7199C99.859 70.5071 99.888 70.2967 99.888 70.0887C99.888 69.958 99.868 69.8193 99.8282 69.6719C99.7885 69.5244 99.7127 69.3857 99.6021 69.2555C99.4912 69.1252 99.3314 69.0194 99.1234 68.9364C98.9149 68.8539 98.6421 68.8126 98.3054 68.8126H96.1506L95.4985 71.8845Z" fill="#A8844E"/>
<path d="M103.891 67.4849H105.554L104.769 71.1817H109.212L109.997 67.4849H111.659L109.691 76.7785H108.028L108.919 72.5872H104.477L103.585 76.7785H101.922L103.891 67.4849Z" fill="#A8844E"/>
<path d="M119.923 73.4981C119.923 73.9494 119.852 74.375 119.711 74.7742C119.569 75.173 119.35 75.5204 119.052 75.8154C118.755 76.1104 118.376 76.3448 117.915 76.5184C117.454 76.6919 116.904 76.7785 116.265 76.7785H112.075L114.044 67.4849H115.707L114.949 71.0514H116.904C117.347 71.0514 117.753 71.0971 118.121 71.1881C118.489 71.2791 118.806 71.4225 119.072 71.6173C119.338 71.8125 119.547 72.0666 119.697 72.3788C119.848 72.6918 119.923 73.0645 119.923 73.4981ZM118.314 73.6156C118.314 73.1815 118.181 72.8669 117.915 72.6717C117.649 72.477 117.187 72.3788 116.532 72.3788H114.669L114.017 75.4375H116.145C116.811 75.4375 117.338 75.2904 117.729 74.9954C118.119 74.7001 118.314 74.2404 118.314 73.6156ZM122.331 67.4849H123.994L122.012 76.7785H120.349L122.331 67.4849Z" fill="#A8844E"/>
<path d="M126.391 67.4849H133.308L133.016 68.8908H127.735L127.216 71.3247H132.111L131.832 72.6521H126.923L126.351 75.3726H131.672L131.379 76.7785H124.422L126.391 67.4849Z" fill="#A8844E"/>
<path d="M139.972 67.4849H142.261L143.298 74.5658H143.325L147.448 67.4849H149.803L147.847 76.7785H146.251L147.901 69.3333H147.874L143.577 76.7785H142.274L141.076 69.3333H141.05L139.6 76.7785H138.004L139.972 67.4849Z" fill="#A8844E"/>
<path d="M155.154 67.4852H156.91L158.559 76.7788H156.87L156.484 74.3184H152.706L151.243 76.7788H149.46L155.154 67.4852ZM155.726 69.1252H155.7L153.412 73.082H156.311L155.726 69.1252Z" fill="#A8844E"/>
<path d="M167.093 70.5828C167.093 69.9316 166.909 69.4374 166.541 69.0988C166.173 68.7605 165.643 68.5914 164.951 68.5914C164.384 68.5914 163.889 68.7172 163.468 68.9689C163.047 69.2206 162.697 69.55 162.417 69.9576C162.138 70.3656 161.927 70.8257 161.785 71.3375C161.643 71.8497 161.572 72.3659 161.572 72.8865C161.572 73.7546 161.798 74.4355 162.251 74.9304C162.703 75.4246 163.346 75.6719 164.18 75.6719C164.606 75.6719 164.964 75.5921 165.257 75.4314C165.55 75.2707 165.791 75.0755 165.982 74.8459C166.173 74.6158 166.319 74.3794 166.421 74.1361C166.523 73.8932 166.596 73.6936 166.641 73.5373H168.303C168.171 74.1277 167.971 74.6395 167.705 75.0731C167.439 75.5071 167.121 75.8674 166.754 76.1536C166.386 76.4397 165.977 76.653 165.53 76.7912C165.082 76.9299 164.614 77 164.127 77C163.444 77 162.841 76.8954 162.317 76.687C161.794 76.479 161.355 76.1925 161.001 75.8286C160.646 75.4639 160.375 75.0338 160.189 74.5397C160.003 74.0451 159.91 73.5117 159.91 72.9386C159.91 71.9671 160.058 71.1231 160.355 70.4069C160.652 69.6911 161.043 69.1012 161.526 68.6371C162.009 68.1726 162.555 67.8279 163.162 67.6023C163.769 67.3766 164.384 67.2636 165.004 67.2636C165.563 67.2636 166.078 67.3374 166.547 67.4848C167.017 67.6327 167.419 67.8447 167.751 68.1229C168.084 68.4006 168.339 68.7473 168.516 69.1637C168.693 69.5805 168.774 70.0534 168.756 70.5828H167.093V70.5828Z" fill="#A8844E"/>
<path d="M175.382 76.7785L177.045 68.8908H173.933L172.615 74.1626C172.483 74.6744 172.323 75.1105 172.137 75.4704C171.951 75.8307 171.738 76.1236 171.498 76.3489C171.259 76.5745 170.993 76.7392 170.7 76.8434C170.408 76.948 170.097 77.0001 169.769 77.0001C169.397 77.0001 169.059 76.9348 168.758 76.8045L169.051 75.5421C169.255 75.6291 169.454 75.6719 169.649 75.6719C169.817 75.6719 169.973 75.6443 170.115 75.5874C170.256 75.5313 170.388 75.4295 170.507 75.282C170.627 75.1341 170.735 74.9345 170.833 74.6828C170.931 74.4315 171.028 74.1101 171.126 73.7198L172.628 67.4849H179.014L177.045 76.7785H175.382Z" fill="#A8844E"/>
<path d="M184.347 67.4852H186.103L187.752 76.7788H186.063L185.677 74.3184H181.9L180.436 76.7788H178.653L184.347 67.4852ZM184.919 69.1252H184.893L182.605 73.082H185.504L184.919 69.1252Z" fill="#A8844E"/>
</g>
<defs>
<clipPath id="clip0">
<rect width="189" height="77" fill="white"/>
</clipPath>
</defs>
</svg>
