<svg width="268" height="85" viewBox="0 0 268 85" fill="none" xmlns="http://www.w3.org/2000/svg">
<g clip-path="url(#clip0)">
<path d="M122.278 54.8078H115.852V77.9967H122.278V54.8078Z" fill="black"/>
<path d="M106.751 54.8071L100.462 71.6789L94.1738 54.8071H87.7528L96.4008 77.996H98.109H102.813H104.524L113.17 54.8071H106.751Z" fill="black"/>
<path d="M144.954 59.9166V54.8071H137.262V48.4105H130.843V54.8071H125.764V59.9166H130.843V69.8922C130.843 75.0398 133.459 78.4731 140.119 78.4731C142.697 78.4731 144.954 77.5475 144.954 77.5475L144.176 72.5367C144.176 72.5367 142.912 72.9066 141.357 72.9066C139.452 72.9066 137.262 72.101 137.262 69.5011V59.9166H144.954Z" fill="black"/>
<path d="M82.9719 77.9967H89.8075L77.1457 44.0304H76.1213H73.7757H72.19L59.5282 77.9967H66.3651L68.7801 71.5163H80.5497L82.9719 77.9967ZM70.6861 66.3977L74.6718 55.7217L78.6509 66.3977H70.6861Z" fill="black"/>
<path d="M159.68 54.2133C152.722 54.2133 147.077 59.6578 147.077 66.3629C147.077 73.0725 152.722 78.5131 159.68 78.5131C166.635 78.5131 172.288 73.0718 172.288 66.3629C172.288 59.6578 166.635 54.2133 159.68 54.2133ZM159.68 72.6942C156.105 72.6942 153.202 69.8974 153.202 66.4494C153.202 62.9994 156.105 60.2013 159.68 60.2013C163.263 60.2013 166.16 62.9994 166.16 66.4494C166.16 69.8968 163.263 72.6942 159.68 72.6942Z" fill="black"/>
<path d="M123.209 48.0149C123.209 50.2689 121.354 52.093 119.07 52.093C116.78 52.093 114.928 50.2689 114.928 48.0149C114.928 45.7648 116.78 43.9369 119.07 43.9369C121.354 43.9369 123.209 45.7648 123.209 48.0149Z" fill="black"/>
<path d="M21.6379 47.6599C21.6379 53.5484 16.7961 58.3236 10.8206 58.3236C4.84503 58.3236 0 53.5484 0 47.6599C0 41.7739 4.84503 37 10.8206 37C16.7961 37 21.6379 41.7739 21.6379 47.6599Z" fill="#55ADE7"/>
<path d="M48.711 72.0306C48.711 79.194 42.816 85.0006 35.5462 85.0006C28.2796 85.0006 22.3905 79.1947 22.3905 72.0306C22.3905 64.8666 28.2796 59.0594 35.5462 59.0594C42.816 59.0594 48.711 64.8666 48.711 72.0306Z" fill="#9FC762"/>
<path d="M44.0212 47.6599C44.0212 52.2711 40.2268 56.0115 35.5462 56.0115C30.8715 56.0115 27.0777 52.2711 27.0777 47.6599C27.0777 43.0506 30.8715 39.3134 35.5462 39.3134C40.2268 39.3134 44.0212 43.0506 44.0212 47.6599Z" fill="#D96C6C"/>
<path d="M16.9501 72.0307C16.9501 75.3664 14.2043 78.0658 10.8206 78.0658C7.43685 78.0658 4.6911 75.3664 4.6911 72.0307C4.6911 68.6949 7.43685 65.9956 10.8206 65.9956C14.2043 65.9956 16.9501 68.6949 16.9501 72.0307Z" fill="#8072B0"/>
<path d="M204.431 77.9824H201.495C201.17 77.9824 200.902 77.8998 200.692 77.7352C200.48 77.57 200.327 77.3654 200.229 77.1201L198.282 72.0364H188.209L186.262 77.1201C186.175 77.3331 186.024 77.5306 185.808 77.7113C185.591 77.8927 185.327 77.9831 185.013 77.9831H182.061L191.324 54.9639H195.168L204.431 77.9824ZM197.261 69.3506L194.032 60.9421C193.914 60.6226 193.783 60.2521 193.644 59.8319C193.502 59.4105 193.367 58.9548 193.237 58.4649C193.118 58.9657 192.992 59.4266 192.856 59.8481C192.722 60.2689 192.589 60.6388 192.459 60.9589L189.247 69.3513H197.261V69.3506Z" fill="black"/>
<path d="M214.819 54.9633C216.311 54.9633 217.587 55.1047 218.647 55.3874C219.707 55.6694 220.577 56.0716 221.259 56.5944C221.94 57.1159 222.44 57.7524 222.759 58.5043C223.078 59.2556 223.238 60.0999 223.238 61.0378C223.238 61.5819 223.154 62.106 222.987 62.6127C222.819 63.1188 222.559 63.5932 222.208 64.0353C221.856 64.4775 221.415 64.8751 220.886 65.2262C220.355 65.578 219.729 65.871 219.004 66.106C222.313 66.7985 223.968 68.5303 223.968 71.3013C223.968 72.2824 223.782 73.1796 223.408 73.9955C223.035 74.8107 222.495 75.5136 221.787 76.1055C221.078 76.6968 220.205 77.1576 219.166 77.4881C218.128 77.8186 216.944 77.9838 215.614 77.9838H207.048V54.9633H214.819ZM210.844 57.8892V65.0823H214.641C216.263 65.0823 217.474 64.7731 218.274 64.1554C219.074 63.5377 219.474 62.6476 219.474 61.4857C219.474 60.2174 219.099 59.3015 218.347 58.7367C217.595 58.1719 216.419 57.8892 214.819 57.8892H210.844ZM215.549 75.0263C216.403 75.0263 217.125 74.9275 217.714 74.73C218.303 74.5332 218.785 74.264 219.158 73.9232C219.531 73.5817 219.802 73.1796 219.97 72.7162C220.137 72.2527 220.22 71.7544 220.22 71.2213C220.22 70.1337 219.845 69.2791 219.093 68.6556C218.341 68.0327 217.154 67.7203 215.533 67.7203H210.844V75.0263H215.549Z" fill="black"/>
<path d="M243.956 58.0809H236.673V77.9825H232.893V58.0809H225.593V54.9633H243.956V58.0809Z" fill="black"/>
<path d="M268 66.4733C268 68.1786 267.718 69.7503 267.156 71.1884C266.594 72.6271 265.801 73.8658 264.78 74.905C263.758 75.9448 262.53 76.7568 261.098 77.3429C259.664 77.9296 258.071 78.2227 256.321 78.2227C254.578 78.2227 252.991 77.9296 251.559 77.3429C250.126 76.7568 248.896 75.9448 247.869 74.905C246.842 73.8658 246.046 72.6271 245.484 71.1884C244.922 69.7497 244.641 68.1779 244.641 66.4733C244.641 64.768 244.922 63.1963 245.484 61.7575C246.046 60.3188 246.842 59.0775 247.869 58.0325C248.896 56.9888 250.126 56.1729 251.559 55.5869C252.991 55.0008 254.578 54.7077 256.321 54.7077C258.071 54.7077 259.664 55.0008 261.098 55.5869C262.53 56.1729 263.758 56.9888 264.78 58.0325C265.801 59.0775 266.594 60.3188 267.156 61.7575C267.718 63.1963 268 64.7686 268 66.4733ZM264.122 66.4733C264.122 65.1514 263.942 63.9631 263.579 62.909C263.216 61.853 262.698 60.9584 262.022 60.2226C261.346 59.4874 260.527 58.9233 259.564 58.5282C258.601 58.1339 257.52 57.9376 256.321 57.9376C255.131 57.9376 254.054 58.1345 253.093 58.5282C252.13 58.9226 251.307 59.4874 250.626 60.2226C249.945 60.9584 249.42 61.8537 249.053 62.909C248.685 63.9631 248.501 65.152 248.501 66.4733C248.501 67.8055 248.685 68.999 249.053 70.0543C249.42 71.109 249.945 72.0023 250.626 72.7317C251.307 73.4617 252.13 74.0207 253.093 74.4099C254.054 74.7991 255.131 74.9934 256.321 74.9934C257.52 74.9934 258.601 74.7991 259.564 74.4099C260.527 74.0213 261.346 73.4617 262.022 72.7317C262.698 72.0023 263.216 71.109 263.579 70.0543C263.942 68.9996 264.122 67.8055 264.122 66.4733Z" fill="black"/>
</g>
<path d="M50.5098 18H48.625V5.32422H41.6133V18H39.7383V3.78125H50.5098V18ZM62.3793 14.2891H56.4223L55.0844 18H53.1508L58.5805 3.78125H60.2211L65.6605 18H63.7367L62.3793 14.2891ZM56.9887 12.7461H61.8227L59.4008 6.0957L56.9887 12.7461ZM70.0496 12.4336V18H68.1746V3.78125H73.4188C74.9747 3.78125 76.1922 4.17839 77.0711 4.97266C77.9565 5.76693 78.3992 6.81836 78.3992 8.12695C78.3992 9.50716 77.9663 10.5716 77.1004 11.3203C76.241 12.0625 75.0073 12.4336 73.3992 12.4336H70.0496ZM70.0496 10.9004H73.4188C74.4214 10.9004 75.1896 10.666 75.7234 10.1973C76.2573 9.72201 76.5242 9.03841 76.5242 8.14648C76.5242 7.30013 76.2573 6.62305 75.7234 6.11523C75.1896 5.60742 74.4572 5.34375 73.5262 5.32422H70.0496V10.9004ZM91.216 5.32422H86.6457V18H84.7805V5.32422H80.2199V3.78125H91.216V5.32422ZM104.853 18H102.968V11.4277H95.8004V18H93.9254V3.78125H95.8004V9.89453H102.968V3.78125H104.853V18ZM116.82 11.4277H110.658V16.4668H117.816V18H108.783V3.78125H117.719V5.32422H110.658V9.89453H116.82V11.4277ZM122.625 12.4336V18H120.75V3.78125H125.995C127.551 3.78125 128.768 4.17839 129.647 4.97266C130.532 5.76693 130.975 6.81836 130.975 8.12695C130.975 9.50716 130.542 10.5716 129.676 11.3203C128.817 12.0625 127.583 12.4336 125.975 12.4336H122.625ZM122.625 10.9004H125.995C126.997 10.9004 127.765 10.666 128.299 10.1973C128.833 9.72201 129.1 9.03841 129.1 8.14648C129.1 7.30013 128.833 6.62305 128.299 6.11523C127.765 5.60742 127.033 5.34375 126.102 5.32422H122.625V10.9004ZM150.388 18H148.503V5.32422H141.491V18H139.616V3.78125H150.388V18ZM156.281 12.4336V18H154.406V3.78125H159.65C161.206 3.78125 162.423 4.17839 163.302 4.97266C164.188 5.76693 164.63 6.81836 164.63 8.12695C164.63 9.50716 164.198 10.5716 163.332 11.3203C162.472 12.0625 161.239 12.4336 159.63 12.4336H156.281ZM156.281 10.9004H159.65C160.653 10.9004 161.421 10.666 161.955 10.1973C162.489 9.72201 162.755 9.03841 162.755 8.14648C162.755 7.30013 162.489 6.62305 161.955 6.11523C161.421 5.60742 160.688 5.34375 159.757 5.32422H156.281V10.9004ZM178.561 11.3496C178.561 12.7428 178.326 13.9603 177.857 15.002C177.389 16.0371 176.725 16.8281 175.865 17.375C175.006 17.9219 174.003 18.1953 172.857 18.1953C171.738 18.1953 170.745 17.9219 169.879 17.375C169.013 16.8216 168.339 16.0371 167.857 15.0215C167.382 13.9993 167.138 12.8177 167.125 11.4766V10.4512C167.125 9.08398 167.363 7.8763 167.838 6.82812C168.313 5.77995 168.984 4.97917 169.85 4.42578C170.722 3.86589 171.718 3.58594 172.838 3.58594C173.977 3.58594 174.98 3.86263 175.846 4.41602C176.718 4.96289 177.389 5.76042 177.857 6.80859C178.326 7.85026 178.561 9.06445 178.561 10.4512V11.3496ZM176.695 10.4316C176.695 8.74544 176.357 7.45312 175.68 6.55469C175.003 5.64974 174.055 5.19727 172.838 5.19727C171.653 5.19727 170.719 5.64974 170.035 6.55469C169.358 7.45312 169.01 8.70312 168.99 10.3047V11.3496C168.99 12.9837 169.332 14.2695 170.016 15.207C170.706 16.138 171.653 16.6035 172.857 16.6035C174.068 16.6035 175.006 16.1641 175.67 15.2852C176.334 14.3997 176.676 13.1335 176.695 11.4863V10.4316ZM190.01 11.4277H183.848V16.4668H191.006V18H181.973V3.78125H190.909V5.32422H183.848V9.89453H190.01V11.4277ZM197.632 11.6133H195.903V18H194.028V3.78125H195.903V10.0508H197.368L202.339 3.78125H204.673L199.243 10.6758L205.073 18H202.778L197.632 11.6133ZM217.216 5.32422H212.646V18H210.78V5.32422H206.22V3.78125H217.216V5.32422ZM226.996 14.2891H221.039L219.701 18H217.767L223.197 3.78125H224.837L230.277 18H228.353L226.996 14.2891ZM221.605 12.7461H226.439L224.017 6.0957L221.605 12.7461Z" fill="black"/>
<defs>
<clipPath id="clip0">
<rect width="268" height="48" fill="white" transform="translate(0 37)"/>
</clipPath>
</defs>
</svg>
